G04 #@! TF.GenerationSoftware,KiCad,Pcbnew,5.1.6-c6e7f7d~87~ubuntu20.04.1*
G04 #@! TF.CreationDate,2020-11-08T20:48:53+01:00*
G04 #@! TF.ProjectId,soil_humidity_module,736f696c-5f68-4756-9d69-646974795f6d,rev?*
G04 #@! TF.SameCoordinates,Original*
G04 #@! TF.FileFunction,Copper,L1,Top*
G04 #@! TF.FilePolarity,Positive*
%FSLAX46Y46*%
G04 Gerber Fmt 4.6, Leading zero omitted, Abs format (unit mm)*
G04 Created by KiCad (PCBNEW 5.1.6-c6e7f7d~87~ubuntu20.04.1) date 2020-11-08 20:48:53*
%MOMM*%
%LPD*%
G01*
G04 APERTURE LIST*
G04 #@! TA.AperFunction,ComponentPad*
%ADD10C,1.524000*%
G04 #@! TD*
G04 #@! TA.AperFunction,ComponentPad*
%ADD11R,1.524000X1.524000*%
G04 #@! TD*
G04 #@! TA.AperFunction,ComponentPad*
%ADD12O,1.700000X2.000000*%
G04 #@! TD*
G04 #@! TA.AperFunction,SMDPad,CuDef*
%ADD13R,1.700000X0.900000*%
G04 #@! TD*
G04 #@! TA.AperFunction,ComponentPad*
%ADD14O,1.950000X1.700000*%
G04 #@! TD*
G04 #@! TA.AperFunction,SMDPad,CuDef*
%ADD15R,1.560000X0.650000*%
G04 #@! TD*
G04 #@! TA.AperFunction,ComponentPad*
%ADD16R,3.800000X3.800000*%
G04 #@! TD*
G04 #@! TA.AperFunction,ComponentPad*
%ADD17C,4.000000*%
G04 #@! TD*
G04 #@! TA.AperFunction,SMDPad,CuDef*
%ADD18R,0.900000X0.800000*%
G04 #@! TD*
G04 #@! TA.AperFunction,ComponentPad*
%ADD19R,1.700000X1.700000*%
G04 #@! TD*
G04 #@! TA.AperFunction,ComponentPad*
%ADD20O,1.700000X1.700000*%
G04 #@! TD*
G04 #@! TA.AperFunction,ComponentPad*
%ADD21R,1.600000X1.600000*%
G04 #@! TD*
G04 #@! TA.AperFunction,ComponentPad*
%ADD22O,1.600000X1.600000*%
G04 #@! TD*
G04 #@! TA.AperFunction,ViaPad*
%ADD23C,0.800000*%
G04 #@! TD*
G04 #@! TA.AperFunction,Conductor*
%ADD24C,0.500000*%
G04 #@! TD*
G04 #@! TA.AperFunction,Conductor*
%ADD25C,0.250000*%
G04 #@! TD*
G04 #@! TA.AperFunction,Conductor*
%ADD26C,0.254000*%
G04 #@! TD*
G04 APERTURE END LIST*
D10*
X161544000Y-105156000D03*
X161544000Y-102616000D03*
X164084000Y-105156000D03*
X164084000Y-102616000D03*
X166624000Y-105156000D03*
X166624000Y-102616000D03*
X169164000Y-105156000D03*
D11*
X169164000Y-102616000D03*
D12*
X160132400Y-88366600D03*
G04 #@! TA.AperFunction,ComponentPad*
G36*
G01*
X156782400Y-89116600D02*
X156782400Y-87616600D01*
G75*
G02*
X157032400Y-87366600I250000J0D01*
G01*
X158232400Y-87366600D01*
G75*
G02*
X158482400Y-87616600I0J-250000D01*
G01*
X158482400Y-89116600D01*
G75*
G02*
X158232400Y-89366600I-250000J0D01*
G01*
X157032400Y-89366600D01*
G75*
G02*
X156782400Y-89116600I0J250000D01*
G01*
G37*
G04 #@! TD.AperFunction*
D13*
X138430000Y-94664000D03*
X138430000Y-91264000D03*
D14*
X140208000Y-98886000D03*
X140208000Y-101386000D03*
G04 #@! TA.AperFunction,ComponentPad*
G36*
G01*
X140933000Y-104736000D02*
X139483000Y-104736000D01*
G75*
G02*
X139233000Y-104486000I0J250000D01*
G01*
X139233000Y-103286000D01*
G75*
G02*
X139483000Y-103036000I250000J0D01*
G01*
X140933000Y-103036000D01*
G75*
G02*
X141183000Y-103286000I0J-250000D01*
G01*
X141183000Y-104486000D01*
G75*
G02*
X140933000Y-104736000I-250000J0D01*
G01*
G37*
G04 #@! TD.AperFunction*
G04 #@! TA.AperFunction,SMDPad,CuDef*
G36*
G01*
X161740000Y-100151250D02*
X161740000Y-99238750D01*
G75*
G02*
X161983750Y-98995000I243750J0D01*
G01*
X162471250Y-98995000D01*
G75*
G02*
X162715000Y-99238750I0J-243750D01*
G01*
X162715000Y-100151250D01*
G75*
G02*
X162471250Y-100395000I-243750J0D01*
G01*
X161983750Y-100395000D01*
G75*
G02*
X161740000Y-100151250I0J243750D01*
G01*
G37*
G04 #@! TD.AperFunction*
G04 #@! TA.AperFunction,SMDPad,CuDef*
G36*
G01*
X159865000Y-100151250D02*
X159865000Y-99238750D01*
G75*
G02*
X160108750Y-98995000I243750J0D01*
G01*
X160596250Y-98995000D01*
G75*
G02*
X160840000Y-99238750I0J-243750D01*
G01*
X160840000Y-100151250D01*
G75*
G02*
X160596250Y-100395000I-243750J0D01*
G01*
X160108750Y-100395000D01*
G75*
G02*
X159865000Y-100151250I0J243750D01*
G01*
G37*
G04 #@! TD.AperFunction*
G04 #@! TA.AperFunction,SMDPad,CuDef*
G36*
G01*
X163627750Y-96208000D02*
X164540250Y-96208000D01*
G75*
G02*
X164784000Y-96451750I0J-243750D01*
G01*
X164784000Y-96939250D01*
G75*
G02*
X164540250Y-97183000I-243750J0D01*
G01*
X163627750Y-97183000D01*
G75*
G02*
X163384000Y-96939250I0J243750D01*
G01*
X163384000Y-96451750D01*
G75*
G02*
X163627750Y-96208000I243750J0D01*
G01*
G37*
G04 #@! TD.AperFunction*
G04 #@! TA.AperFunction,SMDPad,CuDef*
G36*
G01*
X163627750Y-94333000D02*
X164540250Y-94333000D01*
G75*
G02*
X164784000Y-94576750I0J-243750D01*
G01*
X164784000Y-95064250D01*
G75*
G02*
X164540250Y-95308000I-243750J0D01*
G01*
X163627750Y-95308000D01*
G75*
G02*
X163384000Y-95064250I0J243750D01*
G01*
X163384000Y-94576750D01*
G75*
G02*
X163627750Y-94333000I243750J0D01*
G01*
G37*
G04 #@! TD.AperFunction*
D15*
X161751000Y-94706400D03*
X161751000Y-96606400D03*
X159051000Y-96606400D03*
X159051000Y-95656400D03*
X159051000Y-94706400D03*
G04 #@! TA.AperFunction,SMDPad,CuDef*
G36*
G01*
X139504000Y-110033750D02*
X139504000Y-110946250D01*
G75*
G02*
X139260250Y-111190000I-243750J0D01*
G01*
X138772750Y-111190000D01*
G75*
G02*
X138529000Y-110946250I0J243750D01*
G01*
X138529000Y-110033750D01*
G75*
G02*
X138772750Y-109790000I243750J0D01*
G01*
X139260250Y-109790000D01*
G75*
G02*
X139504000Y-110033750I0J-243750D01*
G01*
G37*
G04 #@! TD.AperFunction*
G04 #@! TA.AperFunction,SMDPad,CuDef*
G36*
G01*
X141379000Y-110033750D02*
X141379000Y-110946250D01*
G75*
G02*
X141135250Y-111190000I-243750J0D01*
G01*
X140647750Y-111190000D01*
G75*
G02*
X140404000Y-110946250I0J243750D01*
G01*
X140404000Y-110033750D01*
G75*
G02*
X140647750Y-109790000I243750J0D01*
G01*
X141135250Y-109790000D01*
G75*
G02*
X141379000Y-110033750I0J-243750D01*
G01*
G37*
G04 #@! TD.AperFunction*
G04 #@! TA.AperFunction,SMDPad,CuDef*
G36*
G01*
X142799750Y-111067000D02*
X143712250Y-111067000D01*
G75*
G02*
X143956000Y-111310750I0J-243750D01*
G01*
X143956000Y-111798250D01*
G75*
G02*
X143712250Y-112042000I-243750J0D01*
G01*
X142799750Y-112042000D01*
G75*
G02*
X142556000Y-111798250I0J243750D01*
G01*
X142556000Y-111310750D01*
G75*
G02*
X142799750Y-111067000I243750J0D01*
G01*
G37*
G04 #@! TD.AperFunction*
G04 #@! TA.AperFunction,SMDPad,CuDef*
G36*
G01*
X142799750Y-109192000D02*
X143712250Y-109192000D01*
G75*
G02*
X143956000Y-109435750I0J-243750D01*
G01*
X143956000Y-109923250D01*
G75*
G02*
X143712250Y-110167000I-243750J0D01*
G01*
X142799750Y-110167000D01*
G75*
G02*
X142556000Y-109923250I0J243750D01*
G01*
X142556000Y-109435750D01*
G75*
G02*
X142799750Y-109192000I243750J0D01*
G01*
G37*
G04 #@! TD.AperFunction*
D16*
X169926000Y-87630000D03*
D17*
X169926000Y-92630000D03*
G04 #@! TA.AperFunction,SMDPad,CuDef*
G36*
G01*
X142672750Y-125799000D02*
X143585250Y-125799000D01*
G75*
G02*
X143829000Y-126042750I0J-243750D01*
G01*
X143829000Y-126530250D01*
G75*
G02*
X143585250Y-126774000I-243750J0D01*
G01*
X142672750Y-126774000D01*
G75*
G02*
X142429000Y-126530250I0J243750D01*
G01*
X142429000Y-126042750D01*
G75*
G02*
X142672750Y-125799000I243750J0D01*
G01*
G37*
G04 #@! TD.AperFunction*
G04 #@! TA.AperFunction,SMDPad,CuDef*
G36*
G01*
X142672750Y-123924000D02*
X143585250Y-123924000D01*
G75*
G02*
X143829000Y-124167750I0J-243750D01*
G01*
X143829000Y-124655250D01*
G75*
G02*
X143585250Y-124899000I-243750J0D01*
G01*
X142672750Y-124899000D01*
G75*
G02*
X142429000Y-124655250I0J243750D01*
G01*
X142429000Y-124167750D01*
G75*
G02*
X142672750Y-123924000I243750J0D01*
G01*
G37*
G04 #@! TD.AperFunction*
G04 #@! TA.AperFunction,SMDPad,CuDef*
G36*
G01*
X140259750Y-125799000D02*
X141172250Y-125799000D01*
G75*
G02*
X141416000Y-126042750I0J-243750D01*
G01*
X141416000Y-126530250D01*
G75*
G02*
X141172250Y-126774000I-243750J0D01*
G01*
X140259750Y-126774000D01*
G75*
G02*
X140016000Y-126530250I0J243750D01*
G01*
X140016000Y-126042750D01*
G75*
G02*
X140259750Y-125799000I243750J0D01*
G01*
G37*
G04 #@! TD.AperFunction*
G04 #@! TA.AperFunction,SMDPad,CuDef*
G36*
G01*
X140259750Y-123924000D02*
X141172250Y-123924000D01*
G75*
G02*
X141416000Y-124167750I0J-243750D01*
G01*
X141416000Y-124655250D01*
G75*
G02*
X141172250Y-124899000I-243750J0D01*
G01*
X140259750Y-124899000D01*
G75*
G02*
X140016000Y-124655250I0J243750D01*
G01*
X140016000Y-124167750D01*
G75*
G02*
X140259750Y-123924000I243750J0D01*
G01*
G37*
G04 #@! TD.AperFunction*
G04 #@! TA.AperFunction,SMDPad,CuDef*
G36*
G01*
X156158250Y-106484000D02*
X155245750Y-106484000D01*
G75*
G02*
X155002000Y-106240250I0J243750D01*
G01*
X155002000Y-105752750D01*
G75*
G02*
X155245750Y-105509000I243750J0D01*
G01*
X156158250Y-105509000D01*
G75*
G02*
X156402000Y-105752750I0J-243750D01*
G01*
X156402000Y-106240250D01*
G75*
G02*
X156158250Y-106484000I-243750J0D01*
G01*
G37*
G04 #@! TD.AperFunction*
G04 #@! TA.AperFunction,SMDPad,CuDef*
G36*
G01*
X156158250Y-108359000D02*
X155245750Y-108359000D01*
G75*
G02*
X155002000Y-108115250I0J243750D01*
G01*
X155002000Y-107627750D01*
G75*
G02*
X155245750Y-107384000I243750J0D01*
G01*
X156158250Y-107384000D01*
G75*
G02*
X156402000Y-107627750I0J-243750D01*
G01*
X156402000Y-108115250D01*
G75*
G02*
X156158250Y-108359000I-243750J0D01*
G01*
G37*
G04 #@! TD.AperFunction*
D18*
X141240000Y-117729000D03*
X143240000Y-116779000D03*
X143240000Y-118679000D03*
G04 #@! TA.AperFunction,SMDPad,CuDef*
G36*
G01*
X142690000Y-115137250D02*
X142690000Y-114224750D01*
G75*
G02*
X142933750Y-113981000I243750J0D01*
G01*
X143421250Y-113981000D01*
G75*
G02*
X143665000Y-114224750I0J-243750D01*
G01*
X143665000Y-115137250D01*
G75*
G02*
X143421250Y-115381000I-243750J0D01*
G01*
X142933750Y-115381000D01*
G75*
G02*
X142690000Y-115137250I0J243750D01*
G01*
G37*
G04 #@! TD.AperFunction*
G04 #@! TA.AperFunction,SMDPad,CuDef*
G36*
G01*
X140815000Y-115137250D02*
X140815000Y-114224750D01*
G75*
G02*
X141058750Y-113981000I243750J0D01*
G01*
X141546250Y-113981000D01*
G75*
G02*
X141790000Y-114224750I0J-243750D01*
G01*
X141790000Y-115137250D01*
G75*
G02*
X141546250Y-115381000I-243750J0D01*
G01*
X141058750Y-115381000D01*
G75*
G02*
X140815000Y-115137250I0J243750D01*
G01*
G37*
G04 #@! TD.AperFunction*
G04 #@! TA.AperFunction,SMDPad,CuDef*
G36*
G01*
X155245750Y-112464000D02*
X156158250Y-112464000D01*
G75*
G02*
X156402000Y-112707750I0J-243750D01*
G01*
X156402000Y-113195250D01*
G75*
G02*
X156158250Y-113439000I-243750J0D01*
G01*
X155245750Y-113439000D01*
G75*
G02*
X155002000Y-113195250I0J243750D01*
G01*
X155002000Y-112707750D01*
G75*
G02*
X155245750Y-112464000I243750J0D01*
G01*
G37*
G04 #@! TD.AperFunction*
G04 #@! TA.AperFunction,SMDPad,CuDef*
G36*
G01*
X155245750Y-110589000D02*
X156158250Y-110589000D01*
G75*
G02*
X156402000Y-110832750I0J-243750D01*
G01*
X156402000Y-111320250D01*
G75*
G02*
X156158250Y-111564000I-243750J0D01*
G01*
X155245750Y-111564000D01*
G75*
G02*
X155002000Y-111320250I0J243750D01*
G01*
X155002000Y-110832750D01*
G75*
G02*
X155245750Y-110589000I243750J0D01*
G01*
G37*
G04 #@! TD.AperFunction*
G04 #@! TA.AperFunction,SMDPad,CuDef*
G36*
G01*
X155245750Y-116274000D02*
X156158250Y-116274000D01*
G75*
G02*
X156402000Y-116517750I0J-243750D01*
G01*
X156402000Y-117005250D01*
G75*
G02*
X156158250Y-117249000I-243750J0D01*
G01*
X155245750Y-117249000D01*
G75*
G02*
X155002000Y-117005250I0J243750D01*
G01*
X155002000Y-116517750D01*
G75*
G02*
X155245750Y-116274000I243750J0D01*
G01*
G37*
G04 #@! TD.AperFunction*
G04 #@! TA.AperFunction,SMDPad,CuDef*
G36*
G01*
X155245750Y-114399000D02*
X156158250Y-114399000D01*
G75*
G02*
X156402000Y-114642750I0J-243750D01*
G01*
X156402000Y-115130250D01*
G75*
G02*
X156158250Y-115374000I-243750J0D01*
G01*
X155245750Y-115374000D01*
G75*
G02*
X155002000Y-115130250I0J243750D01*
G01*
X155002000Y-114642750D01*
G75*
G02*
X155245750Y-114399000I243750J0D01*
G01*
G37*
G04 #@! TD.AperFunction*
D19*
X145288000Y-87376000D03*
D20*
X142748000Y-87376000D03*
X140208000Y-87376000D03*
G04 #@! TA.AperFunction,SMDPad,CuDef*
G36*
G01*
X143966250Y-92006000D02*
X143053750Y-92006000D01*
G75*
G02*
X142810000Y-91762250I0J243750D01*
G01*
X142810000Y-91274750D01*
G75*
G02*
X143053750Y-91031000I243750J0D01*
G01*
X143966250Y-91031000D01*
G75*
G02*
X144210000Y-91274750I0J-243750D01*
G01*
X144210000Y-91762250D01*
G75*
G02*
X143966250Y-92006000I-243750J0D01*
G01*
G37*
G04 #@! TD.AperFunction*
G04 #@! TA.AperFunction,SMDPad,CuDef*
G36*
G01*
X143966250Y-93881000D02*
X143053750Y-93881000D01*
G75*
G02*
X142810000Y-93637250I0J243750D01*
G01*
X142810000Y-93149750D01*
G75*
G02*
X143053750Y-92906000I243750J0D01*
G01*
X143966250Y-92906000D01*
G75*
G02*
X144210000Y-93149750I0J-243750D01*
G01*
X144210000Y-93637250D01*
G75*
G02*
X143966250Y-93881000I-243750J0D01*
G01*
G37*
G04 #@! TD.AperFunction*
G04 #@! TA.AperFunction,SMDPad,CuDef*
G36*
G01*
X168352150Y-99256000D02*
X169264650Y-99256000D01*
G75*
G02*
X169508400Y-99499750I0J-243750D01*
G01*
X169508400Y-99987250D01*
G75*
G02*
X169264650Y-100231000I-243750J0D01*
G01*
X168352150Y-100231000D01*
G75*
G02*
X168108400Y-99987250I0J243750D01*
G01*
X168108400Y-99499750D01*
G75*
G02*
X168352150Y-99256000I243750J0D01*
G01*
G37*
G04 #@! TD.AperFunction*
G04 #@! TA.AperFunction,SMDPad,CuDef*
G36*
G01*
X168352150Y-97381000D02*
X169264650Y-97381000D01*
G75*
G02*
X169508400Y-97624750I0J-243750D01*
G01*
X169508400Y-98112250D01*
G75*
G02*
X169264650Y-98356000I-243750J0D01*
G01*
X168352150Y-98356000D01*
G75*
G02*
X168108400Y-98112250I0J243750D01*
G01*
X168108400Y-97624750D01*
G75*
G02*
X168352150Y-97381000I243750J0D01*
G01*
G37*
G04 #@! TD.AperFunction*
G04 #@! TA.AperFunction,SMDPad,CuDef*
G36*
G01*
X170511150Y-99256000D02*
X171423650Y-99256000D01*
G75*
G02*
X171667400Y-99499750I0J-243750D01*
G01*
X171667400Y-99987250D01*
G75*
G02*
X171423650Y-100231000I-243750J0D01*
G01*
X170511150Y-100231000D01*
G75*
G02*
X170267400Y-99987250I0J243750D01*
G01*
X170267400Y-99499750D01*
G75*
G02*
X170511150Y-99256000I243750J0D01*
G01*
G37*
G04 #@! TD.AperFunction*
G04 #@! TA.AperFunction,SMDPad,CuDef*
G36*
G01*
X170511150Y-97381000D02*
X171423650Y-97381000D01*
G75*
G02*
X171667400Y-97624750I0J-243750D01*
G01*
X171667400Y-98112250D01*
G75*
G02*
X171423650Y-98356000I-243750J0D01*
G01*
X170511150Y-98356000D01*
G75*
G02*
X170267400Y-98112250I0J243750D01*
G01*
X170267400Y-97624750D01*
G75*
G02*
X170511150Y-97381000I243750J0D01*
G01*
G37*
G04 #@! TD.AperFunction*
G04 #@! TA.AperFunction,SMDPad,CuDef*
G36*
G01*
X157157000Y-99238750D02*
X157157000Y-100151250D01*
G75*
G02*
X156913250Y-100395000I-243750J0D01*
G01*
X156425750Y-100395000D01*
G75*
G02*
X156182000Y-100151250I0J243750D01*
G01*
X156182000Y-99238750D01*
G75*
G02*
X156425750Y-98995000I243750J0D01*
G01*
X156913250Y-98995000D01*
G75*
G02*
X157157000Y-99238750I0J-243750D01*
G01*
G37*
G04 #@! TD.AperFunction*
G04 #@! TA.AperFunction,SMDPad,CuDef*
G36*
G01*
X159032000Y-99238750D02*
X159032000Y-100151250D01*
G75*
G02*
X158788250Y-100395000I-243750J0D01*
G01*
X158300750Y-100395000D01*
G75*
G02*
X158057000Y-100151250I0J243750D01*
G01*
X158057000Y-99238750D01*
G75*
G02*
X158300750Y-98995000I243750J0D01*
G01*
X158788250Y-98995000D01*
G75*
G02*
X159032000Y-99238750I0J-243750D01*
G01*
G37*
G04 #@! TD.AperFunction*
G04 #@! TA.AperFunction,SMDPad,CuDef*
G36*
G01*
X139504000Y-107747750D02*
X139504000Y-108660250D01*
G75*
G02*
X139260250Y-108904000I-243750J0D01*
G01*
X138772750Y-108904000D01*
G75*
G02*
X138529000Y-108660250I0J243750D01*
G01*
X138529000Y-107747750D01*
G75*
G02*
X138772750Y-107504000I243750J0D01*
G01*
X139260250Y-107504000D01*
G75*
G02*
X139504000Y-107747750I0J-243750D01*
G01*
G37*
G04 #@! TD.AperFunction*
G04 #@! TA.AperFunction,SMDPad,CuDef*
G36*
G01*
X141379000Y-107747750D02*
X141379000Y-108660250D01*
G75*
G02*
X141135250Y-108904000I-243750J0D01*
G01*
X140647750Y-108904000D01*
G75*
G02*
X140404000Y-108660250I0J243750D01*
G01*
X140404000Y-107747750D01*
G75*
G02*
X140647750Y-107504000I243750J0D01*
G01*
X141135250Y-107504000D01*
G75*
G02*
X141379000Y-107747750I0J-243750D01*
G01*
G37*
G04 #@! TD.AperFunction*
G04 #@! TA.AperFunction,SMDPad,CuDef*
G36*
G01*
X156007750Y-94231400D02*
X156920250Y-94231400D01*
G75*
G02*
X157164000Y-94475150I0J-243750D01*
G01*
X157164000Y-94962650D01*
G75*
G02*
X156920250Y-95206400I-243750J0D01*
G01*
X156007750Y-95206400D01*
G75*
G02*
X155764000Y-94962650I0J243750D01*
G01*
X155764000Y-94475150D01*
G75*
G02*
X156007750Y-94231400I243750J0D01*
G01*
G37*
G04 #@! TD.AperFunction*
G04 #@! TA.AperFunction,SMDPad,CuDef*
G36*
G01*
X156007750Y-96106400D02*
X156920250Y-96106400D01*
G75*
G02*
X157164000Y-96350150I0J-243750D01*
G01*
X157164000Y-96837650D01*
G75*
G02*
X156920250Y-97081400I-243750J0D01*
G01*
X156007750Y-97081400D01*
G75*
G02*
X155764000Y-96837650I0J243750D01*
G01*
X155764000Y-96350150D01*
G75*
G02*
X156007750Y-96106400I243750J0D01*
G01*
G37*
G04 #@! TD.AperFunction*
G04 #@! TA.AperFunction,SMDPad,CuDef*
G36*
G01*
X141553250Y-93881000D02*
X140640750Y-93881000D01*
G75*
G02*
X140397000Y-93637250I0J243750D01*
G01*
X140397000Y-93149750D01*
G75*
G02*
X140640750Y-92906000I243750J0D01*
G01*
X141553250Y-92906000D01*
G75*
G02*
X141797000Y-93149750I0J-243750D01*
G01*
X141797000Y-93637250D01*
G75*
G02*
X141553250Y-93881000I-243750J0D01*
G01*
G37*
G04 #@! TD.AperFunction*
G04 #@! TA.AperFunction,SMDPad,CuDef*
G36*
G01*
X141553250Y-92006000D02*
X140640750Y-92006000D01*
G75*
G02*
X140397000Y-91762250I0J243750D01*
G01*
X140397000Y-91274750D01*
G75*
G02*
X140640750Y-91031000I243750J0D01*
G01*
X141553250Y-91031000D01*
G75*
G02*
X141797000Y-91274750I0J-243750D01*
G01*
X141797000Y-91762250D01*
G75*
G02*
X141553250Y-92006000I-243750J0D01*
G01*
G37*
G04 #@! TD.AperFunction*
G04 #@! TA.AperFunction,SMDPad,CuDef*
G36*
G01*
X150546750Y-89985000D02*
X151459250Y-89985000D01*
G75*
G02*
X151703000Y-90228750I0J-243750D01*
G01*
X151703000Y-90716250D01*
G75*
G02*
X151459250Y-90960000I-243750J0D01*
G01*
X150546750Y-90960000D01*
G75*
G02*
X150303000Y-90716250I0J243750D01*
G01*
X150303000Y-90228750D01*
G75*
G02*
X150546750Y-89985000I243750J0D01*
G01*
G37*
G04 #@! TD.AperFunction*
G04 #@! TA.AperFunction,SMDPad,CuDef*
G36*
G01*
X150546750Y-88110000D02*
X151459250Y-88110000D01*
G75*
G02*
X151703000Y-88353750I0J-243750D01*
G01*
X151703000Y-88841250D01*
G75*
G02*
X151459250Y-89085000I-243750J0D01*
G01*
X150546750Y-89085000D01*
G75*
G02*
X150303000Y-88841250I0J243750D01*
G01*
X150303000Y-88353750D01*
G75*
G02*
X150546750Y-88110000I243750J0D01*
G01*
G37*
G04 #@! TD.AperFunction*
G04 #@! TA.AperFunction,SMDPad,CuDef*
G36*
G01*
X148919250Y-89085000D02*
X148006750Y-89085000D01*
G75*
G02*
X147763000Y-88841250I0J243750D01*
G01*
X147763000Y-88353750D01*
G75*
G02*
X148006750Y-88110000I243750J0D01*
G01*
X148919250Y-88110000D01*
G75*
G02*
X149163000Y-88353750I0J-243750D01*
G01*
X149163000Y-88841250D01*
G75*
G02*
X148919250Y-89085000I-243750J0D01*
G01*
G37*
G04 #@! TD.AperFunction*
G04 #@! TA.AperFunction,SMDPad,CuDef*
G36*
G01*
X148919250Y-90960000D02*
X148006750Y-90960000D01*
G75*
G02*
X147763000Y-90716250I0J243750D01*
G01*
X147763000Y-90228750D01*
G75*
G02*
X148006750Y-89985000I243750J0D01*
G01*
X148919250Y-89985000D01*
G75*
G02*
X149163000Y-90228750I0J-243750D01*
G01*
X149163000Y-90716250D01*
G75*
G02*
X148919250Y-90960000I-243750J0D01*
G01*
G37*
G04 #@! TD.AperFunction*
D21*
X145796000Y-93218000D03*
D22*
X153416000Y-126238000D03*
X145796000Y-95758000D03*
X153416000Y-123698000D03*
X145796000Y-98298000D03*
X153416000Y-121158000D03*
X145796000Y-100838000D03*
X153416000Y-118618000D03*
X145796000Y-103378000D03*
X153416000Y-116078000D03*
X145796000Y-105918000D03*
X153416000Y-113538000D03*
X145796000Y-108458000D03*
X153416000Y-110998000D03*
X145796000Y-110998000D03*
X153416000Y-108458000D03*
X145796000Y-113538000D03*
X153416000Y-105918000D03*
X145796000Y-116078000D03*
X153416000Y-103378000D03*
X145796000Y-118618000D03*
X153416000Y-100838000D03*
X145796000Y-121158000D03*
X153416000Y-98298000D03*
X145796000Y-123698000D03*
X153416000Y-95758000D03*
X145796000Y-126238000D03*
X153416000Y-93218000D03*
D23*
X166878000Y-100076000D03*
X164084000Y-98298000D03*
X155702000Y-98044000D03*
X141732000Y-111887000D03*
X155702000Y-119888000D03*
X156464000Y-103632000D03*
X138684000Y-124333000D03*
X146812000Y-90932000D03*
X142494000Y-113030000D03*
X137922000Y-89408000D03*
D24*
X161895800Y-92630000D02*
X157632400Y-88366600D01*
X169926000Y-92630000D02*
X161895800Y-92630000D01*
D25*
X155702000Y-105996500D02*
X155242500Y-105996500D01*
X156464000Y-96593900D02*
X156464000Y-96799400D01*
X169951400Y-99743500D02*
X169999900Y-99743500D01*
X143240000Y-114743500D02*
X143177500Y-114681000D01*
X143240000Y-116779000D02*
X143240000Y-114743500D01*
X155702000Y-104394000D02*
X156464000Y-103632000D01*
X155702000Y-105996500D02*
X155702000Y-104394000D01*
X146812000Y-90248500D02*
X146812000Y-90932000D01*
X148463000Y-88597500D02*
X146812000Y-90248500D01*
X143256000Y-111554500D02*
X142699500Y-111554500D01*
X143177500Y-114681000D02*
X143177500Y-114602500D01*
X155702000Y-116761500D02*
X155702000Y-119888000D01*
X138762500Y-124411500D02*
X138684000Y-124333000D01*
X140716000Y-124411500D02*
X138762500Y-124411500D01*
X142064500Y-111554500D02*
X141732000Y-111887000D01*
X143256000Y-111554500D02*
X142064500Y-111554500D01*
X143177500Y-113713500D02*
X142494000Y-113030000D01*
X143177500Y-114681000D02*
X143177500Y-113713500D01*
X138430000Y-91264000D02*
X138430000Y-91186000D01*
X138430000Y-89916000D02*
X137922000Y-89408000D01*
X138430000Y-91264000D02*
X138430000Y-89916000D01*
X170967400Y-99743500D02*
X168808400Y-99743500D01*
X157401500Y-95656400D02*
X156464000Y-96593900D01*
X159051000Y-95656400D02*
X157401500Y-95656400D01*
X156464000Y-97282000D02*
X155702000Y-98044000D01*
X156464000Y-96593900D02*
X156464000Y-97282000D01*
X156669500Y-99011500D02*
X155702000Y-98044000D01*
X156669500Y-99695000D02*
X156669500Y-99011500D01*
X164084000Y-96695500D02*
X164084000Y-98171000D01*
X167210500Y-99743500D02*
X166878000Y-100076000D01*
X168808400Y-99743500D02*
X167210500Y-99743500D01*
X169164000Y-102362000D02*
X166878000Y-100076000D01*
X169164000Y-102616000D02*
X169164000Y-102362000D01*
X161751000Y-94706400D02*
X162323500Y-94706400D01*
X170967400Y-97868500D02*
X168808400Y-97868500D01*
X163969900Y-94706400D02*
X164084000Y-94820500D01*
X161751000Y-94706400D02*
X163969900Y-94706400D01*
X162856001Y-99066499D02*
X162227500Y-99695000D01*
X162856001Y-95811401D02*
X162856001Y-99066499D01*
X161751000Y-94706400D02*
X162856001Y-95811401D01*
X165760400Y-94820500D02*
X168808400Y-97868500D01*
X164084000Y-94820500D02*
X165760400Y-94820500D01*
X171992410Y-102327590D02*
X169164000Y-105156000D01*
X171992410Y-98893510D02*
X171992410Y-102327590D01*
X170967400Y-97868500D02*
X171992410Y-98893510D01*
X149461001Y-102252999D02*
X145796000Y-105918000D01*
X155615851Y-102252999D02*
X149461001Y-102252999D01*
X157482010Y-100386840D02*
X155615851Y-102252999D01*
X157482010Y-97145390D02*
X157482010Y-100386840D01*
X158021000Y-96606400D02*
X157482010Y-97145390D01*
X159051000Y-96606400D02*
X158021000Y-96606400D01*
X143177500Y-118491500D02*
X143177500Y-118491000D01*
X143177500Y-118491500D02*
X143177000Y-118491000D01*
X145796000Y-117934500D02*
X145796000Y-118618000D01*
X143240000Y-118293998D02*
X141950001Y-117003999D01*
X143240000Y-118679000D02*
X143240000Y-118293998D01*
X141950001Y-117003999D02*
X141478000Y-117003999D01*
X141478000Y-114856500D02*
X141302500Y-114681000D01*
X141478000Y-117003999D02*
X141478000Y-114856500D01*
X143301000Y-118618000D02*
X143240000Y-118679000D01*
X145796000Y-118618000D02*
X143301000Y-118618000D01*
X148463000Y-90472500D02*
X151003000Y-90472500D01*
X151003000Y-98425000D02*
X153416000Y-100838000D01*
X151003000Y-90472500D02*
X151003000Y-98425000D01*
X160352500Y-99695000D02*
X158544500Y-99695000D01*
X140891500Y-108204000D02*
X140891500Y-110490000D01*
X145082500Y-92504500D02*
X145796000Y-93218000D01*
X142972000Y-93393500D02*
X143510000Y-93393500D01*
X141097000Y-93393500D02*
X143510000Y-93393500D01*
X145620500Y-93393500D02*
X145796000Y-93218000D01*
X143510000Y-93393500D02*
X145620500Y-93393500D01*
X139826500Y-94664000D02*
X141097000Y-93393500D01*
X138430000Y-94664000D02*
X139826500Y-94664000D01*
X153416000Y-110665500D02*
X153416000Y-110998000D01*
X155702000Y-108712000D02*
X153416000Y-110998000D01*
X155702000Y-107871500D02*
X155702000Y-108712000D01*
X153494500Y-113459500D02*
X153416000Y-113538000D01*
X155702000Y-112951500D02*
X155702000Y-114886500D01*
X154002500Y-112951500D02*
X153416000Y-113538000D01*
X155702000Y-112951500D02*
X154002500Y-112951500D01*
X150306000Y-88659700D02*
X150495000Y-88470500D01*
X145747500Y-108506500D02*
X145796000Y-108458000D01*
X159038500Y-94718900D02*
X159051000Y-94706400D01*
X156464000Y-94718900D02*
X159038500Y-94718900D01*
X143256000Y-109679500D02*
X143969500Y-109679500D01*
X143461500Y-109474000D02*
X143256000Y-109679500D01*
X144574500Y-109679500D02*
X145796000Y-108458000D01*
X143256000Y-109679500D02*
X144574500Y-109679500D01*
X145717500Y-123698000D02*
X145796000Y-123698000D01*
X143842500Y-123698000D02*
X143129000Y-124411500D01*
X145796000Y-123698000D02*
X143842500Y-123698000D01*
X143129000Y-126286500D02*
X140716000Y-126286500D01*
X139016500Y-115505500D02*
X141240000Y-117729000D01*
X139016500Y-110490000D02*
X139016500Y-115505500D01*
X139829010Y-109677490D02*
X139016500Y-110490000D01*
X139829010Y-104264990D02*
X139829010Y-109677490D01*
X140208000Y-103886000D02*
X139829010Y-104264990D01*
X143256000Y-91264500D02*
X143510000Y-91518500D01*
X145288000Y-89740500D02*
X143510000Y-91518500D01*
X145288000Y-87376000D02*
X145288000Y-89740500D01*
X145796000Y-102719000D02*
X145796000Y-103378000D01*
D26*
G36*
X162843056Y-85145842D02*
G01*
X162894925Y-85305741D01*
X162915905Y-85478731D01*
X163059046Y-91392925D01*
X163045625Y-91571537D01*
X162998974Y-91737909D01*
X162995356Y-91745000D01*
X162262379Y-91745000D01*
X160459994Y-89942615D01*
X160489290Y-89958076D01*
X160501661Y-89956154D01*
X160775409Y-89856454D01*
X161024446Y-89705264D01*
X161239202Y-89508395D01*
X161411425Y-89273412D01*
X161534496Y-89009345D01*
X161603685Y-88726342D01*
X161459632Y-88493600D01*
X160259400Y-88493600D01*
X160259400Y-88513600D01*
X160005400Y-88513600D01*
X160005400Y-88493600D01*
X159985400Y-88493600D01*
X159985400Y-88239600D01*
X160005400Y-88239600D01*
X160005400Y-86896445D01*
X160259400Y-86896445D01*
X160259400Y-88239600D01*
X161459632Y-88239600D01*
X161603685Y-88006858D01*
X161534496Y-87723855D01*
X161411425Y-87459788D01*
X161239202Y-87224805D01*
X161024446Y-87027936D01*
X160775409Y-86876746D01*
X160501661Y-86777046D01*
X160489290Y-86775124D01*
X160259400Y-86896445D01*
X160005400Y-86896445D01*
X159775510Y-86775124D01*
X159763139Y-86777046D01*
X159489391Y-86876746D01*
X159240354Y-87027936D01*
X159025598Y-87224805D01*
X159025314Y-87225193D01*
X158970805Y-87123214D01*
X158860362Y-86988638D01*
X158725786Y-86878195D01*
X158572250Y-86796128D01*
X158405654Y-86745592D01*
X158232400Y-86728528D01*
X157032400Y-86728528D01*
X156859146Y-86745592D01*
X156692550Y-86796128D01*
X156539014Y-86878195D01*
X156404438Y-86988638D01*
X156293995Y-87123214D01*
X156211928Y-87276750D01*
X156161392Y-87443346D01*
X156144328Y-87616600D01*
X156144328Y-89116600D01*
X156161392Y-89289854D01*
X156211928Y-89456450D01*
X156293995Y-89609986D01*
X156404438Y-89744562D01*
X156539014Y-89855005D01*
X156692550Y-89937072D01*
X156859146Y-89987608D01*
X157032400Y-90004672D01*
X158018894Y-90004672D01*
X160322323Y-92308101D01*
X158671254Y-92321143D01*
X158658849Y-92321849D01*
X158464504Y-92342483D01*
X158440197Y-92347502D01*
X158253577Y-92405541D01*
X158230709Y-92415193D01*
X158058943Y-92508422D01*
X158038390Y-92522337D01*
X157888036Y-92647195D01*
X157870582Y-92664842D01*
X157747385Y-92816559D01*
X157733697Y-92837264D01*
X157642362Y-93010046D01*
X157632962Y-93033018D01*
X157576978Y-93220264D01*
X157572226Y-93244625D01*
X157553730Y-93439185D01*
X157553161Y-93451597D01*
X157554023Y-93730021D01*
X157518494Y-93700863D01*
X157408180Y-93641898D01*
X157288482Y-93605588D01*
X157164000Y-93593328D01*
X156749750Y-93596400D01*
X156591000Y-93755150D01*
X156591000Y-94591900D01*
X156611000Y-94591900D01*
X156611000Y-94845900D01*
X156591000Y-94845900D01*
X156591000Y-94865900D01*
X156337000Y-94865900D01*
X156337000Y-94845900D01*
X155287750Y-94845900D01*
X155129000Y-95004650D01*
X155125928Y-95206400D01*
X155138188Y-95330882D01*
X155174498Y-95450580D01*
X155233463Y-95560894D01*
X155312815Y-95657585D01*
X155390564Y-95721392D01*
X155384208Y-95726608D01*
X155274542Y-95860236D01*
X155193053Y-96012691D01*
X155142872Y-96178115D01*
X155125928Y-96350150D01*
X155125928Y-96837650D01*
X155142872Y-97009685D01*
X155184017Y-97145322D01*
X155042226Y-97240063D01*
X154898063Y-97384226D01*
X154784795Y-97553744D01*
X154722873Y-97703236D01*
X154687680Y-97618273D01*
X154530637Y-97383241D01*
X154330759Y-97183363D01*
X154098241Y-97028000D01*
X154330759Y-96872637D01*
X154530637Y-96672759D01*
X154687680Y-96437727D01*
X154795853Y-96176574D01*
X154851000Y-95899335D01*
X154851000Y-95616665D01*
X154795853Y-95339426D01*
X154687680Y-95078273D01*
X154530637Y-94843241D01*
X154330759Y-94643363D01*
X154098241Y-94488000D01*
X154330759Y-94332637D01*
X154431996Y-94231400D01*
X155125928Y-94231400D01*
X155129000Y-94433150D01*
X155287750Y-94591900D01*
X156337000Y-94591900D01*
X156337000Y-93755150D01*
X156178250Y-93596400D01*
X155764000Y-93593328D01*
X155639518Y-93605588D01*
X155519820Y-93641898D01*
X155409506Y-93700863D01*
X155312815Y-93780215D01*
X155233463Y-93876906D01*
X155174498Y-93987220D01*
X155138188Y-94106918D01*
X155125928Y-94231400D01*
X154431996Y-94231400D01*
X154530637Y-94132759D01*
X154687680Y-93897727D01*
X154795853Y-93636574D01*
X154851000Y-93359335D01*
X154851000Y-93076665D01*
X154795853Y-92799426D01*
X154687680Y-92538273D01*
X154530637Y-92303241D01*
X154330759Y-92103363D01*
X154095727Y-91946320D01*
X153834574Y-91838147D01*
X153557335Y-91783000D01*
X153274665Y-91783000D01*
X152997426Y-91838147D01*
X152736273Y-91946320D01*
X152501241Y-92103363D01*
X152301363Y-92303241D01*
X152144320Y-92538273D01*
X152036147Y-92799426D01*
X151981000Y-93076665D01*
X151981000Y-93359335D01*
X152036147Y-93636574D01*
X152144320Y-93897727D01*
X152301363Y-94132759D01*
X152501241Y-94332637D01*
X152733759Y-94488000D01*
X152501241Y-94643363D01*
X152301363Y-94843241D01*
X152144320Y-95078273D01*
X152036147Y-95339426D01*
X151981000Y-95616665D01*
X151981000Y-95899335D01*
X152036147Y-96176574D01*
X152144320Y-96437727D01*
X152301363Y-96672759D01*
X152501241Y-96872637D01*
X152733759Y-97028000D01*
X152501241Y-97183363D01*
X152301363Y-97383241D01*
X152144320Y-97618273D01*
X152036147Y-97879426D01*
X151981000Y-98156665D01*
X151981000Y-98328199D01*
X151763000Y-98110199D01*
X151763000Y-91541173D01*
X151796709Y-91530947D01*
X151949164Y-91449458D01*
X152082792Y-91339792D01*
X152192458Y-91206164D01*
X152273947Y-91053709D01*
X152324128Y-90888285D01*
X152341072Y-90716250D01*
X152341072Y-90228750D01*
X152324128Y-90056715D01*
X152273947Y-89891291D01*
X152192458Y-89738836D01*
X152082792Y-89605208D01*
X152076436Y-89599992D01*
X152154185Y-89536185D01*
X152233537Y-89439494D01*
X152292502Y-89329180D01*
X152328812Y-89209482D01*
X152341072Y-89085000D01*
X152338000Y-88883250D01*
X152179250Y-88724500D01*
X151130000Y-88724500D01*
X151130000Y-88744500D01*
X150876000Y-88744500D01*
X150876000Y-88724500D01*
X150856000Y-88724500D01*
X150856000Y-88470500D01*
X150876000Y-88470500D01*
X150876000Y-87633750D01*
X151130000Y-87633750D01*
X151130000Y-88470500D01*
X152179250Y-88470500D01*
X152338000Y-88311750D01*
X152341072Y-88110000D01*
X152328812Y-87985518D01*
X152292502Y-87865820D01*
X152233537Y-87755506D01*
X152154185Y-87658815D01*
X152057494Y-87579463D01*
X151947180Y-87520498D01*
X151827482Y-87484188D01*
X151703000Y-87471928D01*
X151288750Y-87475000D01*
X151130000Y-87633750D01*
X150876000Y-87633750D01*
X150717250Y-87475000D01*
X150303000Y-87471928D01*
X150178518Y-87484188D01*
X150058820Y-87520498D01*
X149948506Y-87579463D01*
X149851815Y-87658815D01*
X149772463Y-87755506D01*
X149713498Y-87865820D01*
X149691782Y-87937407D01*
X149652458Y-87863836D01*
X149542792Y-87730208D01*
X149409164Y-87620542D01*
X149256709Y-87539053D01*
X149091285Y-87488872D01*
X148919250Y-87471928D01*
X148006750Y-87471928D01*
X147834715Y-87488872D01*
X147669291Y-87539053D01*
X147516836Y-87620542D01*
X147383208Y-87730208D01*
X147273542Y-87863836D01*
X147192053Y-88016291D01*
X147141872Y-88181715D01*
X147124928Y-88353750D01*
X147124928Y-88841250D01*
X147126678Y-88859020D01*
X146301003Y-89684696D01*
X146271999Y-89708499D01*
X146216871Y-89775674D01*
X146177026Y-89824224D01*
X146141178Y-89891291D01*
X146106454Y-89956254D01*
X146062997Y-90099515D01*
X146052000Y-90211168D01*
X146052000Y-90211178D01*
X146050131Y-90230158D01*
X146008063Y-90272226D01*
X145894795Y-90441744D01*
X145816774Y-90630102D01*
X145777000Y-90830061D01*
X145777000Y-91033939D01*
X145816774Y-91233898D01*
X145894795Y-91422256D01*
X146008063Y-91591774D01*
X146152226Y-91735937D01*
X146218063Y-91779928D01*
X145312023Y-91779928D01*
X145231485Y-91755498D01*
X145082500Y-91740824D01*
X144933515Y-91755498D01*
X144846126Y-91782006D01*
X144848072Y-91762250D01*
X144848072Y-91274750D01*
X144846322Y-91256980D01*
X145799003Y-90304299D01*
X145828001Y-90280501D01*
X145922974Y-90164776D01*
X145993546Y-90032747D01*
X146037003Y-89889486D01*
X146048000Y-89777833D01*
X146048000Y-89777825D01*
X146051676Y-89740500D01*
X146048000Y-89703175D01*
X146048000Y-88864072D01*
X146138000Y-88864072D01*
X146262482Y-88851812D01*
X146382180Y-88815502D01*
X146492494Y-88756537D01*
X146589185Y-88677185D01*
X146668537Y-88580494D01*
X146727502Y-88470180D01*
X146763812Y-88350482D01*
X146776072Y-88226000D01*
X146776072Y-86526000D01*
X146763812Y-86401518D01*
X146727502Y-86281820D01*
X146668537Y-86171506D01*
X146589185Y-86074815D01*
X146492494Y-85995463D01*
X146382180Y-85936498D01*
X146262482Y-85900188D01*
X146138000Y-85887928D01*
X144438000Y-85887928D01*
X144313518Y-85900188D01*
X144193820Y-85936498D01*
X144083506Y-85995463D01*
X143986815Y-86074815D01*
X143907463Y-86171506D01*
X143848498Y-86281820D01*
X143826487Y-86354380D01*
X143694632Y-86222525D01*
X143451411Y-86060010D01*
X143181158Y-85948068D01*
X142894260Y-85891000D01*
X142601740Y-85891000D01*
X142314842Y-85948068D01*
X142044589Y-86060010D01*
X141801368Y-86222525D01*
X141594525Y-86429368D01*
X141478000Y-86603760D01*
X141361475Y-86429368D01*
X141154632Y-86222525D01*
X140911411Y-86060010D01*
X140641158Y-85948068D01*
X140354260Y-85891000D01*
X140061740Y-85891000D01*
X139774842Y-85948068D01*
X139504589Y-86060010D01*
X139261368Y-86222525D01*
X139054525Y-86429368D01*
X138892010Y-86672589D01*
X138780068Y-86942842D01*
X138723000Y-87229740D01*
X138723000Y-87522260D01*
X138780068Y-87809158D01*
X138892010Y-88079411D01*
X139054525Y-88322632D01*
X139261368Y-88529475D01*
X139504589Y-88691990D01*
X139774842Y-88803932D01*
X140061740Y-88861000D01*
X140354260Y-88861000D01*
X140641158Y-88803932D01*
X140911411Y-88691990D01*
X141154632Y-88529475D01*
X141361475Y-88322632D01*
X141478000Y-88148240D01*
X141594525Y-88322632D01*
X141801368Y-88529475D01*
X142044589Y-88691990D01*
X142314842Y-88803932D01*
X142601740Y-88861000D01*
X142894260Y-88861000D01*
X143181158Y-88803932D01*
X143451411Y-88691990D01*
X143694632Y-88529475D01*
X143826487Y-88397620D01*
X143848498Y-88470180D01*
X143907463Y-88580494D01*
X143986815Y-88677185D01*
X144083506Y-88756537D01*
X144193820Y-88815502D01*
X144313518Y-88851812D01*
X144438000Y-88864072D01*
X144528001Y-88864072D01*
X144528001Y-89425697D01*
X143560771Y-90392928D01*
X143053750Y-90392928D01*
X142881715Y-90409872D01*
X142716291Y-90460053D01*
X142563836Y-90541542D01*
X142430208Y-90651208D01*
X142359844Y-90736947D01*
X142327537Y-90676506D01*
X142248185Y-90579815D01*
X142151494Y-90500463D01*
X142041180Y-90441498D01*
X141921482Y-90405188D01*
X141797000Y-90392928D01*
X141382750Y-90396000D01*
X141224000Y-90554750D01*
X141224000Y-91391500D01*
X141244000Y-91391500D01*
X141244000Y-91645500D01*
X141224000Y-91645500D01*
X141224000Y-91665500D01*
X140970000Y-91665500D01*
X140970000Y-91645500D01*
X140950000Y-91645500D01*
X140950000Y-91391500D01*
X140970000Y-91391500D01*
X140970000Y-90554750D01*
X140811250Y-90396000D01*
X140397000Y-90392928D01*
X140272518Y-90405188D01*
X140152820Y-90441498D01*
X140042506Y-90500463D01*
X139945815Y-90579815D01*
X139892311Y-90645010D01*
X139869502Y-90569820D01*
X139810537Y-90459506D01*
X139731185Y-90362815D01*
X139634494Y-90283463D01*
X139524180Y-90224498D01*
X139404482Y-90188188D01*
X139280000Y-90175928D01*
X139190000Y-90175928D01*
X139190000Y-89953322D01*
X139193676Y-89915999D01*
X139190000Y-89878676D01*
X139190000Y-89878667D01*
X139179003Y-89767014D01*
X139135546Y-89623753D01*
X139064974Y-89491724D01*
X138970001Y-89375999D01*
X138957000Y-89365329D01*
X138957000Y-89306061D01*
X138917226Y-89106102D01*
X138839205Y-88917744D01*
X138725937Y-88748226D01*
X138581774Y-88604063D01*
X138412256Y-88490795D01*
X138223898Y-88412774D01*
X138023939Y-88373000D01*
X137820061Y-88373000D01*
X137620102Y-88412774D01*
X137431744Y-88490795D01*
X137262226Y-88604063D01*
X137118063Y-88748226D01*
X137004795Y-88917744D01*
X136926774Y-89106102D01*
X136887000Y-89306061D01*
X136887000Y-89509939D01*
X136926774Y-89709898D01*
X137004795Y-89898256D01*
X137118063Y-90067774D01*
X137262226Y-90211937D01*
X137305378Y-90240770D01*
X137225506Y-90283463D01*
X137128815Y-90362815D01*
X137049463Y-90459506D01*
X136990498Y-90569820D01*
X136954188Y-90689518D01*
X136941928Y-90814000D01*
X136941928Y-91714000D01*
X136954188Y-91838482D01*
X136990498Y-91958180D01*
X137049463Y-92068494D01*
X137128815Y-92165185D01*
X137225506Y-92244537D01*
X137335820Y-92303502D01*
X137455518Y-92339812D01*
X137580000Y-92352072D01*
X139280000Y-92352072D01*
X139404482Y-92339812D01*
X139524180Y-92303502D01*
X139634494Y-92244537D01*
X139731185Y-92165185D01*
X139769953Y-92117946D01*
X139771188Y-92130482D01*
X139807498Y-92250180D01*
X139866463Y-92360494D01*
X139945815Y-92457185D01*
X140023564Y-92520992D01*
X140017208Y-92526208D01*
X139907542Y-92659836D01*
X139826053Y-92812291D01*
X139775872Y-92977715D01*
X139758928Y-93149750D01*
X139758928Y-93637250D01*
X139760678Y-93655020D01*
X139688178Y-93727520D01*
X139634494Y-93683463D01*
X139524180Y-93624498D01*
X139404482Y-93588188D01*
X139280000Y-93575928D01*
X137580000Y-93575928D01*
X137455518Y-93588188D01*
X137335820Y-93624498D01*
X137225506Y-93683463D01*
X137128815Y-93762815D01*
X137049463Y-93859506D01*
X136990498Y-93969820D01*
X136954188Y-94089518D01*
X136941928Y-94214000D01*
X136941928Y-95114000D01*
X136954188Y-95238482D01*
X136990498Y-95358180D01*
X137049463Y-95468494D01*
X137128815Y-95565185D01*
X137225506Y-95644537D01*
X137335820Y-95703502D01*
X137455518Y-95739812D01*
X137580000Y-95752072D01*
X139280000Y-95752072D01*
X139404482Y-95739812D01*
X139524180Y-95703502D01*
X139634494Y-95644537D01*
X139731185Y-95565185D01*
X139810537Y-95468494D01*
X139832680Y-95427067D01*
X139863822Y-95424000D01*
X139863833Y-95424000D01*
X139975486Y-95413003D01*
X140118747Y-95369546D01*
X140250776Y-95298974D01*
X140366501Y-95204001D01*
X140390304Y-95174997D01*
X141046230Y-94519072D01*
X141553250Y-94519072D01*
X141725285Y-94502128D01*
X141890709Y-94451947D01*
X142043164Y-94370458D01*
X142176792Y-94260792D01*
X142264845Y-94153500D01*
X142342155Y-94153500D01*
X142430208Y-94260792D01*
X142563836Y-94370458D01*
X142716291Y-94451947D01*
X142881715Y-94502128D01*
X143053750Y-94519072D01*
X143966250Y-94519072D01*
X144138285Y-94502128D01*
X144303709Y-94451947D01*
X144456164Y-94370458D01*
X144461871Y-94365774D01*
X144465463Y-94372494D01*
X144544815Y-94469185D01*
X144641506Y-94548537D01*
X144751820Y-94607502D01*
X144871518Y-94643812D01*
X144879961Y-94644643D01*
X144681363Y-94843241D01*
X144524320Y-95078273D01*
X144416147Y-95339426D01*
X144361000Y-95616665D01*
X144361000Y-95899335D01*
X144416147Y-96176574D01*
X144524320Y-96437727D01*
X144681363Y-96672759D01*
X144881241Y-96872637D01*
X145113759Y-97028000D01*
X144881241Y-97183363D01*
X144681363Y-97383241D01*
X144524320Y-97618273D01*
X144416147Y-97879426D01*
X144361000Y-98156665D01*
X144361000Y-98439335D01*
X144416147Y-98716574D01*
X144524320Y-98977727D01*
X144681363Y-99212759D01*
X144881241Y-99412637D01*
X145113759Y-99568000D01*
X144881241Y-99723363D01*
X144681363Y-99923241D01*
X144524320Y-100158273D01*
X144416147Y-100419426D01*
X144361000Y-100696665D01*
X144361000Y-100979335D01*
X144416147Y-101256574D01*
X144524320Y-101517727D01*
X144681363Y-101752759D01*
X144881241Y-101952637D01*
X145113759Y-102108000D01*
X144881241Y-102263363D01*
X144681363Y-102463241D01*
X144524320Y-102698273D01*
X144416147Y-102959426D01*
X144361000Y-103236665D01*
X144361000Y-103519335D01*
X144416147Y-103796574D01*
X144524320Y-104057727D01*
X144681363Y-104292759D01*
X144881241Y-104492637D01*
X145113759Y-104648000D01*
X144881241Y-104803363D01*
X144681363Y-105003241D01*
X144524320Y-105238273D01*
X144416147Y-105499426D01*
X144361000Y-105776665D01*
X144361000Y-106059335D01*
X144416147Y-106336574D01*
X144524320Y-106597727D01*
X144681363Y-106832759D01*
X144881241Y-107032637D01*
X145113759Y-107188000D01*
X144526000Y-107188000D01*
X144501224Y-107190440D01*
X144477399Y-107197667D01*
X144455443Y-107209403D01*
X144436197Y-107225197D01*
X144420403Y-107244443D01*
X144408667Y-107266399D01*
X144401440Y-107290224D01*
X144399000Y-107315000D01*
X144399000Y-108734098D01*
X144310494Y-108661463D01*
X144200180Y-108602498D01*
X144080482Y-108566188D01*
X143956000Y-108553928D01*
X143541750Y-108557000D01*
X143383000Y-108715750D01*
X143383000Y-109552500D01*
X143403000Y-109552500D01*
X143403000Y-109806500D01*
X143383000Y-109806500D01*
X143383000Y-109826500D01*
X143129000Y-109826500D01*
X143129000Y-109806500D01*
X143109000Y-109806500D01*
X143109000Y-109552500D01*
X143129000Y-109552500D01*
X143129000Y-108715750D01*
X142970250Y-108557000D01*
X142556000Y-108553928D01*
X142431518Y-108566188D01*
X142311820Y-108602498D01*
X142201506Y-108661463D01*
X142104815Y-108740815D01*
X142025463Y-108837506D01*
X141966498Y-108947820D01*
X141930188Y-109067518D01*
X141917928Y-109192000D01*
X141921000Y-109393750D01*
X142079748Y-109552498D01*
X141921000Y-109552498D01*
X141921000Y-109642135D01*
X141868458Y-109543836D01*
X141758792Y-109410208D01*
X141681773Y-109347000D01*
X141758792Y-109283792D01*
X141868458Y-109150164D01*
X141949947Y-108997709D01*
X142000128Y-108832285D01*
X142017072Y-108660250D01*
X142017072Y-107747750D01*
X142000128Y-107575715D01*
X141949947Y-107410291D01*
X141868458Y-107257836D01*
X141758792Y-107124208D01*
X141625164Y-107014542D01*
X141472709Y-106933053D01*
X141307285Y-106882872D01*
X141135250Y-106865928D01*
X140647750Y-106865928D01*
X140589010Y-106871713D01*
X140589010Y-105374072D01*
X140933000Y-105374072D01*
X141106254Y-105357008D01*
X141272850Y-105306472D01*
X141426386Y-105224405D01*
X141560962Y-105113962D01*
X141671405Y-104979386D01*
X141753472Y-104825850D01*
X141804008Y-104659254D01*
X141821072Y-104486000D01*
X141821072Y-103286000D01*
X141804008Y-103112746D01*
X141753472Y-102946150D01*
X141671405Y-102792614D01*
X141560962Y-102658038D01*
X141426386Y-102547595D01*
X141321039Y-102491286D01*
X141342429Y-102475049D01*
X141535496Y-102257193D01*
X141682352Y-102005858D01*
X141774476Y-101742890D01*
X141653155Y-101513000D01*
X140335000Y-101513000D01*
X140335000Y-101533000D01*
X140081000Y-101533000D01*
X140081000Y-101513000D01*
X138762845Y-101513000D01*
X138641524Y-101742890D01*
X138733648Y-102005858D01*
X138880504Y-102257193D01*
X139073571Y-102475049D01*
X139094961Y-102491286D01*
X138989614Y-102547595D01*
X138855038Y-102658038D01*
X138744595Y-102792614D01*
X138662528Y-102946150D01*
X138611992Y-103112746D01*
X138594928Y-103286000D01*
X138594928Y-104486000D01*
X138611992Y-104659254D01*
X138662528Y-104825850D01*
X138744595Y-104979386D01*
X138855038Y-105113962D01*
X138989614Y-105224405D01*
X139069010Y-105266843D01*
X139069011Y-108351000D01*
X138889500Y-108351000D01*
X138889500Y-108331000D01*
X138052750Y-108331000D01*
X137894000Y-108489750D01*
X137890928Y-108904000D01*
X137903188Y-109028482D01*
X137939498Y-109148180D01*
X137998463Y-109258494D01*
X138077815Y-109355185D01*
X138147459Y-109412340D01*
X138039542Y-109543836D01*
X137958053Y-109696291D01*
X137907872Y-109861715D01*
X137890928Y-110033750D01*
X137890928Y-110946250D01*
X137907872Y-111118285D01*
X137958053Y-111283709D01*
X138039542Y-111436164D01*
X138149208Y-111569792D01*
X138256500Y-111657845D01*
X138256501Y-115468168D01*
X138252824Y-115505500D01*
X138256501Y-115542833D01*
X138262674Y-115605502D01*
X138267498Y-115654485D01*
X138310954Y-115797746D01*
X138381526Y-115929776D01*
X138449414Y-116012497D01*
X138476500Y-116045501D01*
X138505498Y-116069299D01*
X140151928Y-117715730D01*
X140151928Y-118129000D01*
X140164188Y-118253482D01*
X140200498Y-118373180D01*
X140259463Y-118483494D01*
X140338815Y-118580185D01*
X140435506Y-118659537D01*
X140545820Y-118718502D01*
X140665518Y-118754812D01*
X140790000Y-118767072D01*
X141690000Y-118767072D01*
X141814482Y-118754812D01*
X141934180Y-118718502D01*
X142044494Y-118659537D01*
X142141185Y-118580185D01*
X142151928Y-118567095D01*
X142151928Y-119079000D01*
X142164188Y-119203482D01*
X142200498Y-119323180D01*
X142259463Y-119433494D01*
X142338815Y-119530185D01*
X142435506Y-119609537D01*
X142545820Y-119668502D01*
X142665518Y-119704812D01*
X142790000Y-119717072D01*
X143690000Y-119717072D01*
X143814482Y-119704812D01*
X143934180Y-119668502D01*
X144044494Y-119609537D01*
X144141185Y-119530185D01*
X144220537Y-119433494D01*
X144250200Y-119378000D01*
X144577957Y-119378000D01*
X144681363Y-119532759D01*
X144881241Y-119732637D01*
X145113759Y-119888000D01*
X144881241Y-120043363D01*
X144681363Y-120243241D01*
X144524320Y-120478273D01*
X144416147Y-120739426D01*
X144361000Y-121016665D01*
X144361000Y-121299335D01*
X144416147Y-121576574D01*
X144524320Y-121837727D01*
X144681363Y-122072759D01*
X144881241Y-122272637D01*
X145113759Y-122428000D01*
X144881241Y-122583363D01*
X144681363Y-122783241D01*
X144577957Y-122938000D01*
X143879822Y-122938000D01*
X143842499Y-122934324D01*
X143805176Y-122938000D01*
X143805167Y-122938000D01*
X143693514Y-122948997D01*
X143550253Y-122992454D01*
X143418224Y-123063026D01*
X143418222Y-123063027D01*
X143418223Y-123063027D01*
X143331496Y-123134201D01*
X143331492Y-123134205D01*
X143302499Y-123157999D01*
X143278705Y-123186992D01*
X143179769Y-123285928D01*
X142672750Y-123285928D01*
X142500715Y-123302872D01*
X142335291Y-123353053D01*
X142182836Y-123434542D01*
X142049208Y-123544208D01*
X141939542Y-123677836D01*
X141922500Y-123709719D01*
X141905458Y-123677836D01*
X141795792Y-123544208D01*
X141662164Y-123434542D01*
X141509709Y-123353053D01*
X141344285Y-123302872D01*
X141172250Y-123285928D01*
X140259750Y-123285928D01*
X140087715Y-123302872D01*
X139922291Y-123353053D01*
X139769836Y-123434542D01*
X139636208Y-123544208D01*
X139548155Y-123651500D01*
X139466211Y-123651500D01*
X139343774Y-123529063D01*
X139174256Y-123415795D01*
X138985898Y-123337774D01*
X138785939Y-123298000D01*
X138582061Y-123298000D01*
X138382102Y-123337774D01*
X138193744Y-123415795D01*
X138024226Y-123529063D01*
X137880063Y-123673226D01*
X137766795Y-123842744D01*
X137688774Y-124031102D01*
X137649000Y-124231061D01*
X137649000Y-124434939D01*
X137688774Y-124634898D01*
X137766795Y-124823256D01*
X137880063Y-124992774D01*
X138024226Y-125136937D01*
X138193744Y-125250205D01*
X138382102Y-125328226D01*
X138582061Y-125368000D01*
X138785939Y-125368000D01*
X138985898Y-125328226D01*
X139174256Y-125250205D01*
X139292047Y-125171500D01*
X139548155Y-125171500D01*
X139636208Y-125278792D01*
X139721756Y-125349000D01*
X139636208Y-125419208D01*
X139526542Y-125552836D01*
X139445053Y-125705291D01*
X139394872Y-125870715D01*
X139377928Y-126042750D01*
X139377928Y-126530250D01*
X139394872Y-126702285D01*
X139445053Y-126867709D01*
X139526542Y-127020164D01*
X139636208Y-127153792D01*
X139769836Y-127263458D01*
X139922291Y-127344947D01*
X140087715Y-127395128D01*
X140259750Y-127412072D01*
X141172250Y-127412072D01*
X141344285Y-127395128D01*
X141509709Y-127344947D01*
X141662164Y-127263458D01*
X141795792Y-127153792D01*
X141883845Y-127046500D01*
X141961155Y-127046500D01*
X142049208Y-127153792D01*
X142182836Y-127263458D01*
X142335291Y-127344947D01*
X142500715Y-127395128D01*
X142672750Y-127412072D01*
X143585250Y-127412072D01*
X143757285Y-127395128D01*
X143922709Y-127344947D01*
X144075164Y-127263458D01*
X144208792Y-127153792D01*
X144318458Y-127020164D01*
X144399947Y-126867709D01*
X144443767Y-126723255D01*
X144524320Y-126917727D01*
X144681363Y-127152759D01*
X144881241Y-127352637D01*
X145116273Y-127509680D01*
X145377426Y-127617853D01*
X145654665Y-127673000D01*
X145937335Y-127673000D01*
X146214574Y-127617853D01*
X146475727Y-127509680D01*
X146710759Y-127352637D01*
X146910637Y-127152759D01*
X147067680Y-126917727D01*
X147175853Y-126656574D01*
X147231000Y-126379335D01*
X147231000Y-126096665D01*
X147175853Y-125819426D01*
X147067680Y-125558273D01*
X146910637Y-125323241D01*
X146710759Y-125123363D01*
X146478241Y-124968000D01*
X146710759Y-124812637D01*
X146910637Y-124612759D01*
X147067680Y-124377727D01*
X147175853Y-124116574D01*
X147231000Y-123839335D01*
X147231000Y-123556665D01*
X147175853Y-123279426D01*
X147067680Y-123018273D01*
X146910637Y-122783241D01*
X146710759Y-122583363D01*
X146478241Y-122428000D01*
X146710759Y-122272637D01*
X146910637Y-122072759D01*
X147067680Y-121837727D01*
X147175853Y-121576574D01*
X147231000Y-121299335D01*
X147231000Y-121016665D01*
X147175853Y-120739426D01*
X147067680Y-120478273D01*
X146910637Y-120243241D01*
X146710759Y-120043363D01*
X146478241Y-119888000D01*
X146710759Y-119732637D01*
X146910637Y-119532759D01*
X147067680Y-119297727D01*
X147175853Y-119036574D01*
X147231000Y-118759335D01*
X147231000Y-118476665D01*
X147175853Y-118199426D01*
X147067680Y-117938273D01*
X146910637Y-117703241D01*
X146710759Y-117503363D01*
X146478241Y-117348000D01*
X146710759Y-117192637D01*
X146910637Y-116992759D01*
X147067680Y-116757727D01*
X147175853Y-116496574D01*
X147231000Y-116219335D01*
X147231000Y-115936665D01*
X147175853Y-115659426D01*
X147067680Y-115398273D01*
X146910637Y-115163241D01*
X146710759Y-114963363D01*
X146478241Y-114808000D01*
X146710759Y-114652637D01*
X146910637Y-114452759D01*
X147067680Y-114217727D01*
X147175853Y-113956574D01*
X147231000Y-113679335D01*
X147231000Y-113396665D01*
X147175853Y-113119426D01*
X147067680Y-112858273D01*
X146910637Y-112623241D01*
X146710759Y-112423363D01*
X146478241Y-112268000D01*
X146710759Y-112112637D01*
X146910637Y-111912759D01*
X147067680Y-111677727D01*
X147175853Y-111416574D01*
X147231000Y-111139335D01*
X147231000Y-110856665D01*
X147175853Y-110579426D01*
X147067680Y-110318273D01*
X146910637Y-110083241D01*
X146900373Y-110072977D01*
X146901803Y-110071803D01*
X146917597Y-110052557D01*
X146929333Y-110030601D01*
X146936560Y-110006776D01*
X146939000Y-109982000D01*
X146939000Y-109314188D01*
X147027037Y-109195420D01*
X147147246Y-108941087D01*
X147187904Y-108807039D01*
X147065915Y-108585000D01*
X146939000Y-108585000D01*
X146939000Y-108331000D01*
X147065915Y-108331000D01*
X147187904Y-108108961D01*
X147147246Y-107974913D01*
X147027037Y-107720580D01*
X146939000Y-107601812D01*
X146939000Y-107315000D01*
X146936560Y-107290224D01*
X146929333Y-107266399D01*
X146917597Y-107244443D01*
X146901803Y-107225197D01*
X146882557Y-107209403D01*
X146860601Y-107197667D01*
X146836776Y-107190440D01*
X146812000Y-107188000D01*
X146478241Y-107188000D01*
X146710759Y-107032637D01*
X146910637Y-106832759D01*
X147067680Y-106597727D01*
X147175853Y-106336574D01*
X147231000Y-106059335D01*
X147231000Y-105776665D01*
X147194688Y-105594113D01*
X149775803Y-103012999D01*
X152025491Y-103012999D01*
X151981000Y-103236665D01*
X151981000Y-103519335D01*
X152036147Y-103796574D01*
X152144320Y-104057727D01*
X152301363Y-104292759D01*
X152501241Y-104492637D01*
X152733759Y-104648000D01*
X152501241Y-104803363D01*
X152301363Y-105003241D01*
X152144320Y-105238273D01*
X152036147Y-105499426D01*
X151981000Y-105776665D01*
X151981000Y-106059335D01*
X152036147Y-106336574D01*
X152144320Y-106597727D01*
X152301363Y-106832759D01*
X152501241Y-107032637D01*
X152733759Y-107188000D01*
X152501241Y-107343363D01*
X152301363Y-107543241D01*
X152144320Y-107778273D01*
X152036147Y-108039426D01*
X151981000Y-108316665D01*
X151981000Y-108599335D01*
X152036147Y-108876574D01*
X152144320Y-109137727D01*
X152301363Y-109372759D01*
X152501241Y-109572637D01*
X152733759Y-109728000D01*
X152501241Y-109883363D01*
X152301363Y-110083241D01*
X152144320Y-110318273D01*
X152036147Y-110579426D01*
X151981000Y-110856665D01*
X151981000Y-111139335D01*
X152036147Y-111416574D01*
X152144320Y-111677727D01*
X152301363Y-111912759D01*
X152501241Y-112112637D01*
X152733759Y-112268000D01*
X152501241Y-112423363D01*
X152301363Y-112623241D01*
X152144320Y-112858273D01*
X152036147Y-113119426D01*
X151981000Y-113396665D01*
X151981000Y-113679335D01*
X152036147Y-113956574D01*
X152144320Y-114217727D01*
X152301363Y-114452759D01*
X152501241Y-114652637D01*
X152733759Y-114808000D01*
X152501241Y-114963363D01*
X152301363Y-115163241D01*
X152144320Y-115398273D01*
X152036147Y-115659426D01*
X151981000Y-115936665D01*
X151981000Y-116219335D01*
X152036147Y-116496574D01*
X152144320Y-116757727D01*
X152301363Y-116992759D01*
X152501241Y-117192637D01*
X152733759Y-117348000D01*
X152501241Y-117503363D01*
X152301363Y-117703241D01*
X152144320Y-117938273D01*
X152036147Y-118199426D01*
X151981000Y-118476665D01*
X151981000Y-118759335D01*
X152036147Y-119036574D01*
X152144320Y-119297727D01*
X152301363Y-119532759D01*
X152501241Y-119732637D01*
X152733759Y-119888000D01*
X152501241Y-120043363D01*
X152301363Y-120243241D01*
X152144320Y-120478273D01*
X152036147Y-120739426D01*
X151981000Y-121016665D01*
X151981000Y-121299335D01*
X152036147Y-121576574D01*
X152144320Y-121837727D01*
X152301363Y-122072759D01*
X152501241Y-122272637D01*
X152733759Y-122428000D01*
X152501241Y-122583363D01*
X152301363Y-122783241D01*
X152144320Y-123018273D01*
X152036147Y-123279426D01*
X151981000Y-123556665D01*
X151981000Y-123839335D01*
X152036147Y-124116574D01*
X152144320Y-124377727D01*
X152301363Y-124612759D01*
X152501241Y-124812637D01*
X152733759Y-124968000D01*
X152501241Y-125123363D01*
X152301363Y-125323241D01*
X152144320Y-125558273D01*
X152036147Y-125819426D01*
X151981000Y-126096665D01*
X151981000Y-126379335D01*
X152036147Y-126656574D01*
X152144320Y-126917727D01*
X152301363Y-127152759D01*
X152501241Y-127352637D01*
X152736273Y-127509680D01*
X152997426Y-127617853D01*
X153274665Y-127673000D01*
X153557335Y-127673000D01*
X153834574Y-127617853D01*
X154095727Y-127509680D01*
X154330759Y-127352637D01*
X154530637Y-127152759D01*
X154687680Y-126917727D01*
X154795853Y-126656574D01*
X154851000Y-126379335D01*
X154851000Y-126096665D01*
X154795853Y-125819426D01*
X154687680Y-125558273D01*
X154530637Y-125323241D01*
X154330759Y-125123363D01*
X154098241Y-124968000D01*
X154330759Y-124812637D01*
X154530637Y-124612759D01*
X154687680Y-124377727D01*
X154795853Y-124116574D01*
X154851000Y-123839335D01*
X154851000Y-123556665D01*
X154795853Y-123279426D01*
X154687680Y-123018273D01*
X154530637Y-122783241D01*
X154330759Y-122583363D01*
X154098241Y-122428000D01*
X154330759Y-122272637D01*
X154530637Y-122072759D01*
X154687680Y-121837727D01*
X154795853Y-121576574D01*
X154851000Y-121299335D01*
X154851000Y-121016665D01*
X154795853Y-120739426D01*
X154687680Y-120478273D01*
X154530637Y-120243241D01*
X154330759Y-120043363D01*
X154098241Y-119888000D01*
X154330759Y-119732637D01*
X154530637Y-119532759D01*
X154687680Y-119297727D01*
X154795853Y-119036574D01*
X154851000Y-118759335D01*
X154851000Y-118476665D01*
X154795853Y-118199426D01*
X154687680Y-117938273D01*
X154530637Y-117703241D01*
X154330759Y-117503363D01*
X154098241Y-117348000D01*
X154330759Y-117192637D01*
X154377755Y-117145641D01*
X154380872Y-117177285D01*
X154431053Y-117342709D01*
X154512542Y-117495164D01*
X154622208Y-117628792D01*
X154755836Y-117738458D01*
X154908291Y-117819947D01*
X154942000Y-117830173D01*
X154942001Y-119184288D01*
X154898063Y-119228226D01*
X154784795Y-119397744D01*
X154706774Y-119586102D01*
X154667000Y-119786061D01*
X154667000Y-119989939D01*
X154706774Y-120189898D01*
X154784795Y-120378256D01*
X154898063Y-120547774D01*
X155042226Y-120691937D01*
X155211744Y-120805205D01*
X155400102Y-120883226D01*
X155600061Y-120923000D01*
X155803939Y-120923000D01*
X156003898Y-120883226D01*
X156192256Y-120805205D01*
X156361774Y-120691937D01*
X156505937Y-120547774D01*
X156619205Y-120378256D01*
X156697226Y-120189898D01*
X156737000Y-119989939D01*
X156737000Y-119786061D01*
X156697226Y-119586102D01*
X156619205Y-119397744D01*
X156505937Y-119228226D01*
X156462000Y-119184289D01*
X156462000Y-117830173D01*
X156495709Y-117819947D01*
X156648164Y-117738458D01*
X156781792Y-117628792D01*
X156891458Y-117495164D01*
X156972947Y-117342709D01*
X157023128Y-117177285D01*
X157040072Y-117005250D01*
X157040072Y-116517750D01*
X157023128Y-116345715D01*
X156972947Y-116180291D01*
X156891458Y-116027836D01*
X156781792Y-115894208D01*
X156696244Y-115824000D01*
X156781792Y-115753792D01*
X156891458Y-115620164D01*
X156972947Y-115467709D01*
X157023128Y-115302285D01*
X157040072Y-115130250D01*
X157040072Y-114642750D01*
X157023128Y-114470715D01*
X156972947Y-114305291D01*
X156891458Y-114152836D01*
X156781792Y-114019208D01*
X156659689Y-113919000D01*
X156781792Y-113818792D01*
X156891458Y-113685164D01*
X156972947Y-113532709D01*
X157023128Y-113367285D01*
X157040072Y-113195250D01*
X157040072Y-112707750D01*
X157023128Y-112535715D01*
X156972947Y-112370291D01*
X156891458Y-112217836D01*
X156781792Y-112084208D01*
X156775436Y-112078992D01*
X156853185Y-112015185D01*
X156932537Y-111918494D01*
X156991502Y-111808180D01*
X157027812Y-111688482D01*
X157040072Y-111564000D01*
X157037000Y-111362250D01*
X156878250Y-111203500D01*
X155829000Y-111203500D01*
X155829000Y-111223500D01*
X155575000Y-111223500D01*
X155575000Y-111203500D01*
X155555000Y-111203500D01*
X155555000Y-110949500D01*
X155575000Y-110949500D01*
X155575000Y-110112750D01*
X155829000Y-110112750D01*
X155829000Y-110949500D01*
X156878250Y-110949500D01*
X157037000Y-110790750D01*
X157040072Y-110589000D01*
X157027812Y-110464518D01*
X156991502Y-110344820D01*
X156932537Y-110234506D01*
X156853185Y-110137815D01*
X156756494Y-110058463D01*
X156646180Y-109999498D01*
X156526482Y-109963188D01*
X156402000Y-109950928D01*
X155987750Y-109954000D01*
X155829000Y-110112750D01*
X155575000Y-110112750D01*
X155475526Y-110013276D01*
X156213003Y-109275799D01*
X156242001Y-109252001D01*
X156336974Y-109136276D01*
X156407546Y-109004247D01*
X156423434Y-108951872D01*
X156495709Y-108929947D01*
X156648164Y-108848458D01*
X156781792Y-108738792D01*
X156891458Y-108605164D01*
X156972947Y-108452709D01*
X157023128Y-108287285D01*
X157040072Y-108115250D01*
X157040072Y-107627750D01*
X157023128Y-107455715D01*
X156972947Y-107290291D01*
X156891458Y-107137836D01*
X156781792Y-107004208D01*
X156696244Y-106934000D01*
X156781792Y-106863792D01*
X156891458Y-106730164D01*
X156972947Y-106577709D01*
X157023128Y-106412285D01*
X157040072Y-106240250D01*
X157040072Y-105752750D01*
X157023128Y-105580715D01*
X156972947Y-105415291D01*
X156891458Y-105262836D01*
X156781792Y-105129208D01*
X156648164Y-105019542D01*
X156495709Y-104938053D01*
X156462000Y-104927827D01*
X156462000Y-104708801D01*
X156503801Y-104667000D01*
X156565939Y-104667000D01*
X156765898Y-104627226D01*
X156954256Y-104549205D01*
X157123774Y-104435937D01*
X157267937Y-104291774D01*
X157381205Y-104122256D01*
X157459226Y-103933898D01*
X157499000Y-103733939D01*
X157499000Y-103530061D01*
X157459226Y-103330102D01*
X157381205Y-103141744D01*
X157267937Y-102972226D01*
X157123774Y-102828063D01*
X156954256Y-102714795D01*
X156765898Y-102636774D01*
X156565939Y-102597000D01*
X156362061Y-102597000D01*
X156342825Y-102600826D01*
X157577666Y-101365985D01*
X157660776Y-128207576D01*
X157659583Y-128220000D01*
X138463505Y-128220000D01*
X138070333Y-128181449D01*
X137724365Y-128076996D01*
X137405276Y-127907333D01*
X137125219Y-127678924D01*
X136894859Y-127400466D01*
X136722973Y-127082570D01*
X136616106Y-126737340D01*
X136575000Y-126346238D01*
X136575000Y-107504000D01*
X137890928Y-107504000D01*
X137894000Y-107918250D01*
X138052750Y-108077000D01*
X138889500Y-108077000D01*
X138889500Y-107027750D01*
X138730750Y-106869000D01*
X138529000Y-106865928D01*
X138404518Y-106878188D01*
X138284820Y-106914498D01*
X138174506Y-106973463D01*
X138077815Y-107052815D01*
X137998463Y-107149506D01*
X137939498Y-107259820D01*
X137903188Y-107379518D01*
X137890928Y-107504000D01*
X136575000Y-107504000D01*
X136575000Y-98886000D01*
X138590815Y-98886000D01*
X138619487Y-99177111D01*
X138704401Y-99457034D01*
X138842294Y-99715014D01*
X139027866Y-99941134D01*
X139253986Y-100126706D01*
X139279722Y-100140462D01*
X139073571Y-100296951D01*
X138880504Y-100514807D01*
X138733648Y-100766142D01*
X138641524Y-101029110D01*
X138762845Y-101259000D01*
X140081000Y-101259000D01*
X140081000Y-101239000D01*
X140335000Y-101239000D01*
X140335000Y-101259000D01*
X141653155Y-101259000D01*
X141774476Y-101029110D01*
X141682352Y-100766142D01*
X141535496Y-100514807D01*
X141342429Y-100296951D01*
X141136278Y-100140462D01*
X141162014Y-100126706D01*
X141388134Y-99941134D01*
X141573706Y-99715014D01*
X141711599Y-99457034D01*
X141796513Y-99177111D01*
X141825185Y-98886000D01*
X141796513Y-98594889D01*
X141711599Y-98314966D01*
X141573706Y-98056986D01*
X141388134Y-97830866D01*
X141162014Y-97645294D01*
X140904034Y-97507401D01*
X140624111Y-97422487D01*
X140405950Y-97401000D01*
X140010050Y-97401000D01*
X139791889Y-97422487D01*
X139511966Y-97507401D01*
X139253986Y-97645294D01*
X139027866Y-97830866D01*
X138842294Y-98056986D01*
X138704401Y-98314966D01*
X138619487Y-98594889D01*
X138590815Y-98886000D01*
X136575000Y-98886000D01*
X136575000Y-87028504D01*
X136613551Y-86635332D01*
X136718004Y-86289366D01*
X136887667Y-85970276D01*
X137116076Y-85690219D01*
X137394534Y-85459859D01*
X137712430Y-85287973D01*
X138057658Y-85181107D01*
X138448753Y-85140000D01*
X162839814Y-85140000D01*
X162843056Y-85145842D01*
G37*
X162843056Y-85145842D02*
X162894925Y-85305741D01*
X162915905Y-85478731D01*
X163059046Y-91392925D01*
X163045625Y-91571537D01*
X162998974Y-91737909D01*
X162995356Y-91745000D01*
X162262379Y-91745000D01*
X160459994Y-89942615D01*
X160489290Y-89958076D01*
X160501661Y-89956154D01*
X160775409Y-89856454D01*
X161024446Y-89705264D01*
X161239202Y-89508395D01*
X161411425Y-89273412D01*
X161534496Y-89009345D01*
X161603685Y-88726342D01*
X161459632Y-88493600D01*
X160259400Y-88493600D01*
X160259400Y-88513600D01*
X160005400Y-88513600D01*
X160005400Y-88493600D01*
X159985400Y-88493600D01*
X159985400Y-88239600D01*
X160005400Y-88239600D01*
X160005400Y-86896445D01*
X160259400Y-86896445D01*
X160259400Y-88239600D01*
X161459632Y-88239600D01*
X161603685Y-88006858D01*
X161534496Y-87723855D01*
X161411425Y-87459788D01*
X161239202Y-87224805D01*
X161024446Y-87027936D01*
X160775409Y-86876746D01*
X160501661Y-86777046D01*
X160489290Y-86775124D01*
X160259400Y-86896445D01*
X160005400Y-86896445D01*
X159775510Y-86775124D01*
X159763139Y-86777046D01*
X159489391Y-86876746D01*
X159240354Y-87027936D01*
X159025598Y-87224805D01*
X159025314Y-87225193D01*
X158970805Y-87123214D01*
X158860362Y-86988638D01*
X158725786Y-86878195D01*
X158572250Y-86796128D01*
X158405654Y-86745592D01*
X158232400Y-86728528D01*
X157032400Y-86728528D01*
X156859146Y-86745592D01*
X156692550Y-86796128D01*
X156539014Y-86878195D01*
X156404438Y-86988638D01*
X156293995Y-87123214D01*
X156211928Y-87276750D01*
X156161392Y-87443346D01*
X156144328Y-87616600D01*
X156144328Y-89116600D01*
X156161392Y-89289854D01*
X156211928Y-89456450D01*
X156293995Y-89609986D01*
X156404438Y-89744562D01*
X156539014Y-89855005D01*
X156692550Y-89937072D01*
X156859146Y-89987608D01*
X157032400Y-90004672D01*
X158018894Y-90004672D01*
X160322323Y-92308101D01*
X158671254Y-92321143D01*
X158658849Y-92321849D01*
X158464504Y-92342483D01*
X158440197Y-92347502D01*
X158253577Y-92405541D01*
X158230709Y-92415193D01*
X158058943Y-92508422D01*
X158038390Y-92522337D01*
X157888036Y-92647195D01*
X157870582Y-92664842D01*
X157747385Y-92816559D01*
X157733697Y-92837264D01*
X157642362Y-93010046D01*
X157632962Y-93033018D01*
X157576978Y-93220264D01*
X157572226Y-93244625D01*
X157553730Y-93439185D01*
X157553161Y-93451597D01*
X157554023Y-93730021D01*
X157518494Y-93700863D01*
X157408180Y-93641898D01*
X157288482Y-93605588D01*
X157164000Y-93593328D01*
X156749750Y-93596400D01*
X156591000Y-93755150D01*
X156591000Y-94591900D01*
X156611000Y-94591900D01*
X156611000Y-94845900D01*
X156591000Y-94845900D01*
X156591000Y-94865900D01*
X156337000Y-94865900D01*
X156337000Y-94845900D01*
X155287750Y-94845900D01*
X155129000Y-95004650D01*
X155125928Y-95206400D01*
X155138188Y-95330882D01*
X155174498Y-95450580D01*
X155233463Y-95560894D01*
X155312815Y-95657585D01*
X155390564Y-95721392D01*
X155384208Y-95726608D01*
X155274542Y-95860236D01*
X155193053Y-96012691D01*
X155142872Y-96178115D01*
X155125928Y-96350150D01*
X155125928Y-96837650D01*
X155142872Y-97009685D01*
X155184017Y-97145322D01*
X155042226Y-97240063D01*
X154898063Y-97384226D01*
X154784795Y-97553744D01*
X154722873Y-97703236D01*
X154687680Y-97618273D01*
X154530637Y-97383241D01*
X154330759Y-97183363D01*
X154098241Y-97028000D01*
X154330759Y-96872637D01*
X154530637Y-96672759D01*
X154687680Y-96437727D01*
X154795853Y-96176574D01*
X154851000Y-95899335D01*
X154851000Y-95616665D01*
X154795853Y-95339426D01*
X154687680Y-95078273D01*
X154530637Y-94843241D01*
X154330759Y-94643363D01*
X154098241Y-94488000D01*
X154330759Y-94332637D01*
X154431996Y-94231400D01*
X155125928Y-94231400D01*
X155129000Y-94433150D01*
X155287750Y-94591900D01*
X156337000Y-94591900D01*
X156337000Y-93755150D01*
X156178250Y-93596400D01*
X155764000Y-93593328D01*
X155639518Y-93605588D01*
X155519820Y-93641898D01*
X155409506Y-93700863D01*
X155312815Y-93780215D01*
X155233463Y-93876906D01*
X155174498Y-93987220D01*
X155138188Y-94106918D01*
X155125928Y-94231400D01*
X154431996Y-94231400D01*
X154530637Y-94132759D01*
X154687680Y-93897727D01*
X154795853Y-93636574D01*
X154851000Y-93359335D01*
X154851000Y-93076665D01*
X154795853Y-92799426D01*
X154687680Y-92538273D01*
X154530637Y-92303241D01*
X154330759Y-92103363D01*
X154095727Y-91946320D01*
X153834574Y-91838147D01*
X153557335Y-91783000D01*
X153274665Y-91783000D01*
X152997426Y-91838147D01*
X152736273Y-91946320D01*
X152501241Y-92103363D01*
X152301363Y-92303241D01*
X152144320Y-92538273D01*
X152036147Y-92799426D01*
X151981000Y-93076665D01*
X151981000Y-93359335D01*
X152036147Y-93636574D01*
X152144320Y-93897727D01*
X152301363Y-94132759D01*
X152501241Y-94332637D01*
X152733759Y-94488000D01*
X152501241Y-94643363D01*
X152301363Y-94843241D01*
X152144320Y-95078273D01*
X152036147Y-95339426D01*
X151981000Y-95616665D01*
X151981000Y-95899335D01*
X152036147Y-96176574D01*
X152144320Y-96437727D01*
X152301363Y-96672759D01*
X152501241Y-96872637D01*
X152733759Y-97028000D01*
X152501241Y-97183363D01*
X152301363Y-97383241D01*
X152144320Y-97618273D01*
X152036147Y-97879426D01*
X151981000Y-98156665D01*
X151981000Y-98328199D01*
X151763000Y-98110199D01*
X151763000Y-91541173D01*
X151796709Y-91530947D01*
X151949164Y-91449458D01*
X152082792Y-91339792D01*
X152192458Y-91206164D01*
X152273947Y-91053709D01*
X152324128Y-90888285D01*
X152341072Y-90716250D01*
X152341072Y-90228750D01*
X152324128Y-90056715D01*
X152273947Y-89891291D01*
X152192458Y-89738836D01*
X152082792Y-89605208D01*
X152076436Y-89599992D01*
X152154185Y-89536185D01*
X152233537Y-89439494D01*
X152292502Y-89329180D01*
X152328812Y-89209482D01*
X152341072Y-89085000D01*
X152338000Y-88883250D01*
X152179250Y-88724500D01*
X151130000Y-88724500D01*
X151130000Y-88744500D01*
X150876000Y-88744500D01*
X150876000Y-88724500D01*
X150856000Y-88724500D01*
X150856000Y-88470500D01*
X150876000Y-88470500D01*
X150876000Y-87633750D01*
X151130000Y-87633750D01*
X151130000Y-88470500D01*
X152179250Y-88470500D01*
X152338000Y-88311750D01*
X152341072Y-88110000D01*
X152328812Y-87985518D01*
X152292502Y-87865820D01*
X152233537Y-87755506D01*
X152154185Y-87658815D01*
X152057494Y-87579463D01*
X151947180Y-87520498D01*
X151827482Y-87484188D01*
X151703000Y-87471928D01*
X151288750Y-87475000D01*
X151130000Y-87633750D01*
X150876000Y-87633750D01*
X150717250Y-87475000D01*
X150303000Y-87471928D01*
X150178518Y-87484188D01*
X150058820Y-87520498D01*
X149948506Y-87579463D01*
X149851815Y-87658815D01*
X149772463Y-87755506D01*
X149713498Y-87865820D01*
X149691782Y-87937407D01*
X149652458Y-87863836D01*
X149542792Y-87730208D01*
X149409164Y-87620542D01*
X149256709Y-87539053D01*
X149091285Y-87488872D01*
X148919250Y-87471928D01*
X148006750Y-87471928D01*
X147834715Y-87488872D01*
X147669291Y-87539053D01*
X147516836Y-87620542D01*
X147383208Y-87730208D01*
X147273542Y-87863836D01*
X147192053Y-88016291D01*
X147141872Y-88181715D01*
X147124928Y-88353750D01*
X147124928Y-88841250D01*
X147126678Y-88859020D01*
X146301003Y-89684696D01*
X146271999Y-89708499D01*
X146216871Y-89775674D01*
X146177026Y-89824224D01*
X146141178Y-89891291D01*
X146106454Y-89956254D01*
X146062997Y-90099515D01*
X146052000Y-90211168D01*
X146052000Y-90211178D01*
X146050131Y-90230158D01*
X146008063Y-90272226D01*
X145894795Y-90441744D01*
X145816774Y-90630102D01*
X145777000Y-90830061D01*
X145777000Y-91033939D01*
X145816774Y-91233898D01*
X145894795Y-91422256D01*
X146008063Y-91591774D01*
X146152226Y-91735937D01*
X146218063Y-91779928D01*
X145312023Y-91779928D01*
X145231485Y-91755498D01*
X145082500Y-91740824D01*
X144933515Y-91755498D01*
X144846126Y-91782006D01*
X144848072Y-91762250D01*
X144848072Y-91274750D01*
X144846322Y-91256980D01*
X145799003Y-90304299D01*
X145828001Y-90280501D01*
X145922974Y-90164776D01*
X145993546Y-90032747D01*
X146037003Y-89889486D01*
X146048000Y-89777833D01*
X146048000Y-89777825D01*
X146051676Y-89740500D01*
X146048000Y-89703175D01*
X146048000Y-88864072D01*
X146138000Y-88864072D01*
X146262482Y-88851812D01*
X146382180Y-88815502D01*
X146492494Y-88756537D01*
X146589185Y-88677185D01*
X146668537Y-88580494D01*
X146727502Y-88470180D01*
X146763812Y-88350482D01*
X146776072Y-88226000D01*
X146776072Y-86526000D01*
X146763812Y-86401518D01*
X146727502Y-86281820D01*
X146668537Y-86171506D01*
X146589185Y-86074815D01*
X146492494Y-85995463D01*
X146382180Y-85936498D01*
X146262482Y-85900188D01*
X146138000Y-85887928D01*
X144438000Y-85887928D01*
X144313518Y-85900188D01*
X144193820Y-85936498D01*
X144083506Y-85995463D01*
X143986815Y-86074815D01*
X143907463Y-86171506D01*
X143848498Y-86281820D01*
X143826487Y-86354380D01*
X143694632Y-86222525D01*
X143451411Y-86060010D01*
X143181158Y-85948068D01*
X142894260Y-85891000D01*
X142601740Y-85891000D01*
X142314842Y-85948068D01*
X142044589Y-86060010D01*
X141801368Y-86222525D01*
X141594525Y-86429368D01*
X141478000Y-86603760D01*
X141361475Y-86429368D01*
X141154632Y-86222525D01*
X140911411Y-86060010D01*
X140641158Y-85948068D01*
X140354260Y-85891000D01*
X140061740Y-85891000D01*
X139774842Y-85948068D01*
X139504589Y-86060010D01*
X139261368Y-86222525D01*
X139054525Y-86429368D01*
X138892010Y-86672589D01*
X138780068Y-86942842D01*
X138723000Y-87229740D01*
X138723000Y-87522260D01*
X138780068Y-87809158D01*
X138892010Y-88079411D01*
X139054525Y-88322632D01*
X139261368Y-88529475D01*
X139504589Y-88691990D01*
X139774842Y-88803932D01*
X140061740Y-88861000D01*
X140354260Y-88861000D01*
X140641158Y-88803932D01*
X140911411Y-88691990D01*
X141154632Y-88529475D01*
X141361475Y-88322632D01*
X141478000Y-88148240D01*
X141594525Y-88322632D01*
X141801368Y-88529475D01*
X142044589Y-88691990D01*
X142314842Y-88803932D01*
X142601740Y-88861000D01*
X142894260Y-88861000D01*
X143181158Y-88803932D01*
X143451411Y-88691990D01*
X143694632Y-88529475D01*
X143826487Y-88397620D01*
X143848498Y-88470180D01*
X143907463Y-88580494D01*
X143986815Y-88677185D01*
X144083506Y-88756537D01*
X144193820Y-88815502D01*
X144313518Y-88851812D01*
X144438000Y-88864072D01*
X144528001Y-88864072D01*
X144528001Y-89425697D01*
X143560771Y-90392928D01*
X143053750Y-90392928D01*
X142881715Y-90409872D01*
X142716291Y-90460053D01*
X142563836Y-90541542D01*
X142430208Y-90651208D01*
X142359844Y-90736947D01*
X142327537Y-90676506D01*
X142248185Y-90579815D01*
X142151494Y-90500463D01*
X142041180Y-90441498D01*
X141921482Y-90405188D01*
X141797000Y-90392928D01*
X141382750Y-90396000D01*
X141224000Y-90554750D01*
X141224000Y-91391500D01*
X141244000Y-91391500D01*
X141244000Y-91645500D01*
X141224000Y-91645500D01*
X141224000Y-91665500D01*
X140970000Y-91665500D01*
X140970000Y-91645500D01*
X140950000Y-91645500D01*
X140950000Y-91391500D01*
X140970000Y-91391500D01*
X140970000Y-90554750D01*
X140811250Y-90396000D01*
X140397000Y-90392928D01*
X140272518Y-90405188D01*
X140152820Y-90441498D01*
X140042506Y-90500463D01*
X139945815Y-90579815D01*
X139892311Y-90645010D01*
X139869502Y-90569820D01*
X139810537Y-90459506D01*
X139731185Y-90362815D01*
X139634494Y-90283463D01*
X139524180Y-90224498D01*
X139404482Y-90188188D01*
X139280000Y-90175928D01*
X139190000Y-90175928D01*
X139190000Y-89953322D01*
X139193676Y-89915999D01*
X139190000Y-89878676D01*
X139190000Y-89878667D01*
X139179003Y-89767014D01*
X139135546Y-89623753D01*
X139064974Y-89491724D01*
X138970001Y-89375999D01*
X138957000Y-89365329D01*
X138957000Y-89306061D01*
X138917226Y-89106102D01*
X138839205Y-88917744D01*
X138725937Y-88748226D01*
X138581774Y-88604063D01*
X138412256Y-88490795D01*
X138223898Y-88412774D01*
X138023939Y-88373000D01*
X137820061Y-88373000D01*
X137620102Y-88412774D01*
X137431744Y-88490795D01*
X137262226Y-88604063D01*
X137118063Y-88748226D01*
X137004795Y-88917744D01*
X136926774Y-89106102D01*
X136887000Y-89306061D01*
X136887000Y-89509939D01*
X136926774Y-89709898D01*
X137004795Y-89898256D01*
X137118063Y-90067774D01*
X137262226Y-90211937D01*
X137305378Y-90240770D01*
X137225506Y-90283463D01*
X137128815Y-90362815D01*
X137049463Y-90459506D01*
X136990498Y-90569820D01*
X136954188Y-90689518D01*
X136941928Y-90814000D01*
X136941928Y-91714000D01*
X136954188Y-91838482D01*
X136990498Y-91958180D01*
X137049463Y-92068494D01*
X137128815Y-92165185D01*
X137225506Y-92244537D01*
X137335820Y-92303502D01*
X137455518Y-92339812D01*
X137580000Y-92352072D01*
X139280000Y-92352072D01*
X139404482Y-92339812D01*
X139524180Y-92303502D01*
X139634494Y-92244537D01*
X139731185Y-92165185D01*
X139769953Y-92117946D01*
X139771188Y-92130482D01*
X139807498Y-92250180D01*
X139866463Y-92360494D01*
X139945815Y-92457185D01*
X140023564Y-92520992D01*
X140017208Y-92526208D01*
X139907542Y-92659836D01*
X139826053Y-92812291D01*
X139775872Y-92977715D01*
X139758928Y-93149750D01*
X139758928Y-93637250D01*
X139760678Y-93655020D01*
X139688178Y-93727520D01*
X139634494Y-93683463D01*
X139524180Y-93624498D01*
X139404482Y-93588188D01*
X139280000Y-93575928D01*
X137580000Y-93575928D01*
X137455518Y-93588188D01*
X137335820Y-93624498D01*
X137225506Y-93683463D01*
X137128815Y-93762815D01*
X137049463Y-93859506D01*
X136990498Y-93969820D01*
X136954188Y-94089518D01*
X136941928Y-94214000D01*
X136941928Y-95114000D01*
X136954188Y-95238482D01*
X136990498Y-95358180D01*
X137049463Y-95468494D01*
X137128815Y-95565185D01*
X137225506Y-95644537D01*
X137335820Y-95703502D01*
X137455518Y-95739812D01*
X137580000Y-95752072D01*
X139280000Y-95752072D01*
X139404482Y-95739812D01*
X139524180Y-95703502D01*
X139634494Y-95644537D01*
X139731185Y-95565185D01*
X139810537Y-95468494D01*
X139832680Y-95427067D01*
X139863822Y-95424000D01*
X139863833Y-95424000D01*
X139975486Y-95413003D01*
X140118747Y-95369546D01*
X140250776Y-95298974D01*
X140366501Y-95204001D01*
X140390304Y-95174997D01*
X141046230Y-94519072D01*
X141553250Y-94519072D01*
X141725285Y-94502128D01*
X141890709Y-94451947D01*
X142043164Y-94370458D01*
X142176792Y-94260792D01*
X142264845Y-94153500D01*
X142342155Y-94153500D01*
X142430208Y-94260792D01*
X142563836Y-94370458D01*
X142716291Y-94451947D01*
X142881715Y-94502128D01*
X143053750Y-94519072D01*
X143966250Y-94519072D01*
X144138285Y-94502128D01*
X144303709Y-94451947D01*
X144456164Y-94370458D01*
X144461871Y-94365774D01*
X144465463Y-94372494D01*
X144544815Y-94469185D01*
X144641506Y-94548537D01*
X144751820Y-94607502D01*
X144871518Y-94643812D01*
X144879961Y-94644643D01*
X144681363Y-94843241D01*
X144524320Y-95078273D01*
X144416147Y-95339426D01*
X144361000Y-95616665D01*
X144361000Y-95899335D01*
X144416147Y-96176574D01*
X144524320Y-96437727D01*
X144681363Y-96672759D01*
X144881241Y-96872637D01*
X145113759Y-97028000D01*
X144881241Y-97183363D01*
X144681363Y-97383241D01*
X144524320Y-97618273D01*
X144416147Y-97879426D01*
X144361000Y-98156665D01*
X144361000Y-98439335D01*
X144416147Y-98716574D01*
X144524320Y-98977727D01*
X144681363Y-99212759D01*
X144881241Y-99412637D01*
X145113759Y-99568000D01*
X144881241Y-99723363D01*
X144681363Y-99923241D01*
X144524320Y-100158273D01*
X144416147Y-100419426D01*
X144361000Y-100696665D01*
X144361000Y-100979335D01*
X144416147Y-101256574D01*
X144524320Y-101517727D01*
X144681363Y-101752759D01*
X144881241Y-101952637D01*
X145113759Y-102108000D01*
X144881241Y-102263363D01*
X144681363Y-102463241D01*
X144524320Y-102698273D01*
X144416147Y-102959426D01*
X144361000Y-103236665D01*
X144361000Y-103519335D01*
X144416147Y-103796574D01*
X144524320Y-104057727D01*
X144681363Y-104292759D01*
X144881241Y-104492637D01*
X145113759Y-104648000D01*
X144881241Y-104803363D01*
X144681363Y-105003241D01*
X144524320Y-105238273D01*
X144416147Y-105499426D01*
X144361000Y-105776665D01*
X144361000Y-106059335D01*
X144416147Y-106336574D01*
X144524320Y-106597727D01*
X144681363Y-106832759D01*
X144881241Y-107032637D01*
X145113759Y-107188000D01*
X144526000Y-107188000D01*
X144501224Y-107190440D01*
X144477399Y-107197667D01*
X144455443Y-107209403D01*
X144436197Y-107225197D01*
X144420403Y-107244443D01*
X144408667Y-107266399D01*
X144401440Y-107290224D01*
X144399000Y-107315000D01*
X144399000Y-108734098D01*
X144310494Y-108661463D01*
X144200180Y-108602498D01*
X144080482Y-108566188D01*
X143956000Y-108553928D01*
X143541750Y-108557000D01*
X143383000Y-108715750D01*
X143383000Y-109552500D01*
X143403000Y-109552500D01*
X143403000Y-109806500D01*
X143383000Y-109806500D01*
X143383000Y-109826500D01*
X143129000Y-109826500D01*
X143129000Y-109806500D01*
X143109000Y-109806500D01*
X143109000Y-109552500D01*
X143129000Y-109552500D01*
X143129000Y-108715750D01*
X142970250Y-108557000D01*
X142556000Y-108553928D01*
X142431518Y-108566188D01*
X142311820Y-108602498D01*
X142201506Y-108661463D01*
X142104815Y-108740815D01*
X142025463Y-108837506D01*
X141966498Y-108947820D01*
X141930188Y-109067518D01*
X141917928Y-109192000D01*
X141921000Y-109393750D01*
X142079748Y-109552498D01*
X141921000Y-109552498D01*
X141921000Y-109642135D01*
X141868458Y-109543836D01*
X141758792Y-109410208D01*
X141681773Y-109347000D01*
X141758792Y-109283792D01*
X141868458Y-109150164D01*
X141949947Y-108997709D01*
X142000128Y-108832285D01*
X142017072Y-108660250D01*
X142017072Y-107747750D01*
X142000128Y-107575715D01*
X141949947Y-107410291D01*
X141868458Y-107257836D01*
X141758792Y-107124208D01*
X141625164Y-107014542D01*
X141472709Y-106933053D01*
X141307285Y-106882872D01*
X141135250Y-106865928D01*
X140647750Y-106865928D01*
X140589010Y-106871713D01*
X140589010Y-105374072D01*
X140933000Y-105374072D01*
X141106254Y-105357008D01*
X141272850Y-105306472D01*
X141426386Y-105224405D01*
X141560962Y-105113962D01*
X141671405Y-104979386D01*
X141753472Y-104825850D01*
X141804008Y-104659254D01*
X141821072Y-104486000D01*
X141821072Y-103286000D01*
X141804008Y-103112746D01*
X141753472Y-102946150D01*
X141671405Y-102792614D01*
X141560962Y-102658038D01*
X141426386Y-102547595D01*
X141321039Y-102491286D01*
X141342429Y-102475049D01*
X141535496Y-102257193D01*
X141682352Y-102005858D01*
X141774476Y-101742890D01*
X141653155Y-101513000D01*
X140335000Y-101513000D01*
X140335000Y-101533000D01*
X140081000Y-101533000D01*
X140081000Y-101513000D01*
X138762845Y-101513000D01*
X138641524Y-101742890D01*
X138733648Y-102005858D01*
X138880504Y-102257193D01*
X139073571Y-102475049D01*
X139094961Y-102491286D01*
X138989614Y-102547595D01*
X138855038Y-102658038D01*
X138744595Y-102792614D01*
X138662528Y-102946150D01*
X138611992Y-103112746D01*
X138594928Y-103286000D01*
X138594928Y-104486000D01*
X138611992Y-104659254D01*
X138662528Y-104825850D01*
X138744595Y-104979386D01*
X138855038Y-105113962D01*
X138989614Y-105224405D01*
X139069010Y-105266843D01*
X139069011Y-108351000D01*
X138889500Y-108351000D01*
X138889500Y-108331000D01*
X138052750Y-108331000D01*
X137894000Y-108489750D01*
X137890928Y-108904000D01*
X137903188Y-109028482D01*
X137939498Y-109148180D01*
X137998463Y-109258494D01*
X138077815Y-109355185D01*
X138147459Y-109412340D01*
X138039542Y-109543836D01*
X137958053Y-109696291D01*
X137907872Y-109861715D01*
X137890928Y-110033750D01*
X137890928Y-110946250D01*
X137907872Y-111118285D01*
X137958053Y-111283709D01*
X138039542Y-111436164D01*
X138149208Y-111569792D01*
X138256500Y-111657845D01*
X138256501Y-115468168D01*
X138252824Y-115505500D01*
X138256501Y-115542833D01*
X138262674Y-115605502D01*
X138267498Y-115654485D01*
X138310954Y-115797746D01*
X138381526Y-115929776D01*
X138449414Y-116012497D01*
X138476500Y-116045501D01*
X138505498Y-116069299D01*
X140151928Y-117715730D01*
X140151928Y-118129000D01*
X140164188Y-118253482D01*
X140200498Y-118373180D01*
X140259463Y-118483494D01*
X140338815Y-118580185D01*
X140435506Y-118659537D01*
X140545820Y-118718502D01*
X140665518Y-118754812D01*
X140790000Y-118767072D01*
X141690000Y-118767072D01*
X141814482Y-118754812D01*
X141934180Y-118718502D01*
X142044494Y-118659537D01*
X142141185Y-118580185D01*
X142151928Y-118567095D01*
X142151928Y-119079000D01*
X142164188Y-119203482D01*
X142200498Y-119323180D01*
X142259463Y-119433494D01*
X142338815Y-119530185D01*
X142435506Y-119609537D01*
X142545820Y-119668502D01*
X142665518Y-119704812D01*
X142790000Y-119717072D01*
X143690000Y-119717072D01*
X143814482Y-119704812D01*
X143934180Y-119668502D01*
X144044494Y-119609537D01*
X144141185Y-119530185D01*
X144220537Y-119433494D01*
X144250200Y-119378000D01*
X144577957Y-119378000D01*
X144681363Y-119532759D01*
X144881241Y-119732637D01*
X145113759Y-119888000D01*
X144881241Y-120043363D01*
X144681363Y-120243241D01*
X144524320Y-120478273D01*
X144416147Y-120739426D01*
X144361000Y-121016665D01*
X144361000Y-121299335D01*
X144416147Y-121576574D01*
X144524320Y-121837727D01*
X144681363Y-122072759D01*
X144881241Y-122272637D01*
X145113759Y-122428000D01*
X144881241Y-122583363D01*
X144681363Y-122783241D01*
X144577957Y-122938000D01*
X143879822Y-122938000D01*
X143842499Y-122934324D01*
X143805176Y-122938000D01*
X143805167Y-122938000D01*
X143693514Y-122948997D01*
X143550253Y-122992454D01*
X143418224Y-123063026D01*
X143418222Y-123063027D01*
X143418223Y-123063027D01*
X143331496Y-123134201D01*
X143331492Y-123134205D01*
X143302499Y-123157999D01*
X143278705Y-123186992D01*
X143179769Y-123285928D01*
X142672750Y-123285928D01*
X142500715Y-123302872D01*
X142335291Y-123353053D01*
X142182836Y-123434542D01*
X142049208Y-123544208D01*
X141939542Y-123677836D01*
X141922500Y-123709719D01*
X141905458Y-123677836D01*
X141795792Y-123544208D01*
X141662164Y-123434542D01*
X141509709Y-123353053D01*
X141344285Y-123302872D01*
X141172250Y-123285928D01*
X140259750Y-123285928D01*
X140087715Y-123302872D01*
X139922291Y-123353053D01*
X139769836Y-123434542D01*
X139636208Y-123544208D01*
X139548155Y-123651500D01*
X139466211Y-123651500D01*
X139343774Y-123529063D01*
X139174256Y-123415795D01*
X138985898Y-123337774D01*
X138785939Y-123298000D01*
X138582061Y-123298000D01*
X138382102Y-123337774D01*
X138193744Y-123415795D01*
X138024226Y-123529063D01*
X137880063Y-123673226D01*
X137766795Y-123842744D01*
X137688774Y-124031102D01*
X137649000Y-124231061D01*
X137649000Y-124434939D01*
X137688774Y-124634898D01*
X137766795Y-124823256D01*
X137880063Y-124992774D01*
X138024226Y-125136937D01*
X138193744Y-125250205D01*
X138382102Y-125328226D01*
X138582061Y-125368000D01*
X138785939Y-125368000D01*
X138985898Y-125328226D01*
X139174256Y-125250205D01*
X139292047Y-125171500D01*
X139548155Y-125171500D01*
X139636208Y-125278792D01*
X139721756Y-125349000D01*
X139636208Y-125419208D01*
X139526542Y-125552836D01*
X139445053Y-125705291D01*
X139394872Y-125870715D01*
X139377928Y-126042750D01*
X139377928Y-126530250D01*
X139394872Y-126702285D01*
X139445053Y-126867709D01*
X139526542Y-127020164D01*
X139636208Y-127153792D01*
X139769836Y-127263458D01*
X139922291Y-127344947D01*
X140087715Y-127395128D01*
X140259750Y-127412072D01*
X141172250Y-127412072D01*
X141344285Y-127395128D01*
X141509709Y-127344947D01*
X141662164Y-127263458D01*
X141795792Y-127153792D01*
X141883845Y-127046500D01*
X141961155Y-127046500D01*
X142049208Y-127153792D01*
X142182836Y-127263458D01*
X142335291Y-127344947D01*
X142500715Y-127395128D01*
X142672750Y-127412072D01*
X143585250Y-127412072D01*
X143757285Y-127395128D01*
X143922709Y-127344947D01*
X144075164Y-127263458D01*
X144208792Y-127153792D01*
X144318458Y-127020164D01*
X144399947Y-126867709D01*
X144443767Y-126723255D01*
X144524320Y-126917727D01*
X144681363Y-127152759D01*
X144881241Y-127352637D01*
X145116273Y-127509680D01*
X145377426Y-127617853D01*
X145654665Y-127673000D01*
X145937335Y-127673000D01*
X146214574Y-127617853D01*
X146475727Y-127509680D01*
X146710759Y-127352637D01*
X146910637Y-127152759D01*
X147067680Y-126917727D01*
X147175853Y-126656574D01*
X147231000Y-126379335D01*
X147231000Y-126096665D01*
X147175853Y-125819426D01*
X147067680Y-125558273D01*
X146910637Y-125323241D01*
X146710759Y-125123363D01*
X146478241Y-124968000D01*
X146710759Y-124812637D01*
X146910637Y-124612759D01*
X147067680Y-124377727D01*
X147175853Y-124116574D01*
X147231000Y-123839335D01*
X147231000Y-123556665D01*
X147175853Y-123279426D01*
X147067680Y-123018273D01*
X146910637Y-122783241D01*
X146710759Y-122583363D01*
X146478241Y-122428000D01*
X146710759Y-122272637D01*
X146910637Y-122072759D01*
X147067680Y-121837727D01*
X147175853Y-121576574D01*
X147231000Y-121299335D01*
X147231000Y-121016665D01*
X147175853Y-120739426D01*
X147067680Y-120478273D01*
X146910637Y-120243241D01*
X146710759Y-120043363D01*
X146478241Y-119888000D01*
X146710759Y-119732637D01*
X146910637Y-119532759D01*
X147067680Y-119297727D01*
X147175853Y-119036574D01*
X147231000Y-118759335D01*
X147231000Y-118476665D01*
X147175853Y-118199426D01*
X147067680Y-117938273D01*
X146910637Y-117703241D01*
X146710759Y-117503363D01*
X146478241Y-117348000D01*
X146710759Y-117192637D01*
X146910637Y-116992759D01*
X147067680Y-116757727D01*
X147175853Y-116496574D01*
X147231000Y-116219335D01*
X147231000Y-115936665D01*
X147175853Y-115659426D01*
X147067680Y-115398273D01*
X146910637Y-115163241D01*
X146710759Y-114963363D01*
X146478241Y-114808000D01*
X146710759Y-114652637D01*
X146910637Y-114452759D01*
X147067680Y-114217727D01*
X147175853Y-113956574D01*
X147231000Y-113679335D01*
X147231000Y-113396665D01*
X147175853Y-113119426D01*
X147067680Y-112858273D01*
X146910637Y-112623241D01*
X146710759Y-112423363D01*
X146478241Y-112268000D01*
X146710759Y-112112637D01*
X146910637Y-111912759D01*
X147067680Y-111677727D01*
X147175853Y-111416574D01*
X147231000Y-111139335D01*
X147231000Y-110856665D01*
X147175853Y-110579426D01*
X147067680Y-110318273D01*
X146910637Y-110083241D01*
X146900373Y-110072977D01*
X146901803Y-110071803D01*
X146917597Y-110052557D01*
X146929333Y-110030601D01*
X146936560Y-110006776D01*
X146939000Y-109982000D01*
X146939000Y-109314188D01*
X147027037Y-109195420D01*
X147147246Y-108941087D01*
X147187904Y-108807039D01*
X147065915Y-108585000D01*
X146939000Y-108585000D01*
X146939000Y-108331000D01*
X147065915Y-108331000D01*
X147187904Y-108108961D01*
X147147246Y-107974913D01*
X147027037Y-107720580D01*
X146939000Y-107601812D01*
X146939000Y-107315000D01*
X146936560Y-107290224D01*
X146929333Y-107266399D01*
X146917597Y-107244443D01*
X146901803Y-107225197D01*
X146882557Y-107209403D01*
X146860601Y-107197667D01*
X146836776Y-107190440D01*
X146812000Y-107188000D01*
X146478241Y-107188000D01*
X146710759Y-107032637D01*
X146910637Y-106832759D01*
X147067680Y-106597727D01*
X147175853Y-106336574D01*
X147231000Y-106059335D01*
X147231000Y-105776665D01*
X147194688Y-105594113D01*
X149775803Y-103012999D01*
X152025491Y-103012999D01*
X151981000Y-103236665D01*
X151981000Y-103519335D01*
X152036147Y-103796574D01*
X152144320Y-104057727D01*
X152301363Y-104292759D01*
X152501241Y-104492637D01*
X152733759Y-104648000D01*
X152501241Y-104803363D01*
X152301363Y-105003241D01*
X152144320Y-105238273D01*
X152036147Y-105499426D01*
X151981000Y-105776665D01*
X151981000Y-106059335D01*
X152036147Y-106336574D01*
X152144320Y-106597727D01*
X152301363Y-106832759D01*
X152501241Y-107032637D01*
X152733759Y-107188000D01*
X152501241Y-107343363D01*
X152301363Y-107543241D01*
X152144320Y-107778273D01*
X152036147Y-108039426D01*
X151981000Y-108316665D01*
X151981000Y-108599335D01*
X152036147Y-108876574D01*
X152144320Y-109137727D01*
X152301363Y-109372759D01*
X152501241Y-109572637D01*
X152733759Y-109728000D01*
X152501241Y-109883363D01*
X152301363Y-110083241D01*
X152144320Y-110318273D01*
X152036147Y-110579426D01*
X151981000Y-110856665D01*
X151981000Y-111139335D01*
X152036147Y-111416574D01*
X152144320Y-111677727D01*
X152301363Y-111912759D01*
X152501241Y-112112637D01*
X152733759Y-112268000D01*
X152501241Y-112423363D01*
X152301363Y-112623241D01*
X152144320Y-112858273D01*
X152036147Y-113119426D01*
X151981000Y-113396665D01*
X151981000Y-113679335D01*
X152036147Y-113956574D01*
X152144320Y-114217727D01*
X152301363Y-114452759D01*
X152501241Y-114652637D01*
X152733759Y-114808000D01*
X152501241Y-114963363D01*
X152301363Y-115163241D01*
X152144320Y-115398273D01*
X152036147Y-115659426D01*
X151981000Y-115936665D01*
X151981000Y-116219335D01*
X152036147Y-116496574D01*
X152144320Y-116757727D01*
X152301363Y-116992759D01*
X152501241Y-117192637D01*
X152733759Y-117348000D01*
X152501241Y-117503363D01*
X152301363Y-117703241D01*
X152144320Y-117938273D01*
X152036147Y-118199426D01*
X151981000Y-118476665D01*
X151981000Y-118759335D01*
X152036147Y-119036574D01*
X152144320Y-119297727D01*
X152301363Y-119532759D01*
X152501241Y-119732637D01*
X152733759Y-119888000D01*
X152501241Y-120043363D01*
X152301363Y-120243241D01*
X152144320Y-120478273D01*
X152036147Y-120739426D01*
X151981000Y-121016665D01*
X151981000Y-121299335D01*
X152036147Y-121576574D01*
X152144320Y-121837727D01*
X152301363Y-122072759D01*
X152501241Y-122272637D01*
X152733759Y-122428000D01*
X152501241Y-122583363D01*
X152301363Y-122783241D01*
X152144320Y-123018273D01*
X152036147Y-123279426D01*
X151981000Y-123556665D01*
X151981000Y-123839335D01*
X152036147Y-124116574D01*
X152144320Y-124377727D01*
X152301363Y-124612759D01*
X152501241Y-124812637D01*
X152733759Y-124968000D01*
X152501241Y-125123363D01*
X152301363Y-125323241D01*
X152144320Y-125558273D01*
X152036147Y-125819426D01*
X151981000Y-126096665D01*
X151981000Y-126379335D01*
X152036147Y-126656574D01*
X152144320Y-126917727D01*
X152301363Y-127152759D01*
X152501241Y-127352637D01*
X152736273Y-127509680D01*
X152997426Y-127617853D01*
X153274665Y-127673000D01*
X153557335Y-127673000D01*
X153834574Y-127617853D01*
X154095727Y-127509680D01*
X154330759Y-127352637D01*
X154530637Y-127152759D01*
X154687680Y-126917727D01*
X154795853Y-126656574D01*
X154851000Y-126379335D01*
X154851000Y-126096665D01*
X154795853Y-125819426D01*
X154687680Y-125558273D01*
X154530637Y-125323241D01*
X154330759Y-125123363D01*
X154098241Y-124968000D01*
X154330759Y-124812637D01*
X154530637Y-124612759D01*
X154687680Y-124377727D01*
X154795853Y-124116574D01*
X154851000Y-123839335D01*
X154851000Y-123556665D01*
X154795853Y-123279426D01*
X154687680Y-123018273D01*
X154530637Y-122783241D01*
X154330759Y-122583363D01*
X154098241Y-122428000D01*
X154330759Y-122272637D01*
X154530637Y-122072759D01*
X154687680Y-121837727D01*
X154795853Y-121576574D01*
X154851000Y-121299335D01*
X154851000Y-121016665D01*
X154795853Y-120739426D01*
X154687680Y-120478273D01*
X154530637Y-120243241D01*
X154330759Y-120043363D01*
X154098241Y-119888000D01*
X154330759Y-119732637D01*
X154530637Y-119532759D01*
X154687680Y-119297727D01*
X154795853Y-119036574D01*
X154851000Y-118759335D01*
X154851000Y-118476665D01*
X154795853Y-118199426D01*
X154687680Y-117938273D01*
X154530637Y-117703241D01*
X154330759Y-117503363D01*
X154098241Y-117348000D01*
X154330759Y-117192637D01*
X154377755Y-117145641D01*
X154380872Y-117177285D01*
X154431053Y-117342709D01*
X154512542Y-117495164D01*
X154622208Y-117628792D01*
X154755836Y-117738458D01*
X154908291Y-117819947D01*
X154942000Y-117830173D01*
X154942001Y-119184288D01*
X154898063Y-119228226D01*
X154784795Y-119397744D01*
X154706774Y-119586102D01*
X154667000Y-119786061D01*
X154667000Y-119989939D01*
X154706774Y-120189898D01*
X154784795Y-120378256D01*
X154898063Y-120547774D01*
X155042226Y-120691937D01*
X155211744Y-120805205D01*
X155400102Y-120883226D01*
X155600061Y-120923000D01*
X155803939Y-120923000D01*
X156003898Y-120883226D01*
X156192256Y-120805205D01*
X156361774Y-120691937D01*
X156505937Y-120547774D01*
X156619205Y-120378256D01*
X156697226Y-120189898D01*
X156737000Y-119989939D01*
X156737000Y-119786061D01*
X156697226Y-119586102D01*
X156619205Y-119397744D01*
X156505937Y-119228226D01*
X156462000Y-119184289D01*
X156462000Y-117830173D01*
X156495709Y-117819947D01*
X156648164Y-117738458D01*
X156781792Y-117628792D01*
X156891458Y-117495164D01*
X156972947Y-117342709D01*
X157023128Y-117177285D01*
X157040072Y-117005250D01*
X157040072Y-116517750D01*
X157023128Y-116345715D01*
X156972947Y-116180291D01*
X156891458Y-116027836D01*
X156781792Y-115894208D01*
X156696244Y-115824000D01*
X156781792Y-115753792D01*
X156891458Y-115620164D01*
X156972947Y-115467709D01*
X157023128Y-115302285D01*
X157040072Y-115130250D01*
X157040072Y-114642750D01*
X157023128Y-114470715D01*
X156972947Y-114305291D01*
X156891458Y-114152836D01*
X156781792Y-114019208D01*
X156659689Y-113919000D01*
X156781792Y-113818792D01*
X156891458Y-113685164D01*
X156972947Y-113532709D01*
X157023128Y-113367285D01*
X157040072Y-113195250D01*
X157040072Y-112707750D01*
X157023128Y-112535715D01*
X156972947Y-112370291D01*
X156891458Y-112217836D01*
X156781792Y-112084208D01*
X156775436Y-112078992D01*
X156853185Y-112015185D01*
X156932537Y-111918494D01*
X156991502Y-111808180D01*
X157027812Y-111688482D01*
X157040072Y-111564000D01*
X157037000Y-111362250D01*
X156878250Y-111203500D01*
X155829000Y-111203500D01*
X155829000Y-111223500D01*
X155575000Y-111223500D01*
X155575000Y-111203500D01*
X155555000Y-111203500D01*
X155555000Y-110949500D01*
X155575000Y-110949500D01*
X155575000Y-110112750D01*
X155829000Y-110112750D01*
X155829000Y-110949500D01*
X156878250Y-110949500D01*
X157037000Y-110790750D01*
X157040072Y-110589000D01*
X157027812Y-110464518D01*
X156991502Y-110344820D01*
X156932537Y-110234506D01*
X156853185Y-110137815D01*
X156756494Y-110058463D01*
X156646180Y-109999498D01*
X156526482Y-109963188D01*
X156402000Y-109950928D01*
X155987750Y-109954000D01*
X155829000Y-110112750D01*
X155575000Y-110112750D01*
X155475526Y-110013276D01*
X156213003Y-109275799D01*
X156242001Y-109252001D01*
X156336974Y-109136276D01*
X156407546Y-109004247D01*
X156423434Y-108951872D01*
X156495709Y-108929947D01*
X156648164Y-108848458D01*
X156781792Y-108738792D01*
X156891458Y-108605164D01*
X156972947Y-108452709D01*
X157023128Y-108287285D01*
X157040072Y-108115250D01*
X157040072Y-107627750D01*
X157023128Y-107455715D01*
X156972947Y-107290291D01*
X156891458Y-107137836D01*
X156781792Y-107004208D01*
X156696244Y-106934000D01*
X156781792Y-106863792D01*
X156891458Y-106730164D01*
X156972947Y-106577709D01*
X157023128Y-106412285D01*
X157040072Y-106240250D01*
X157040072Y-105752750D01*
X157023128Y-105580715D01*
X156972947Y-105415291D01*
X156891458Y-105262836D01*
X156781792Y-105129208D01*
X156648164Y-105019542D01*
X156495709Y-104938053D01*
X156462000Y-104927827D01*
X156462000Y-104708801D01*
X156503801Y-104667000D01*
X156565939Y-104667000D01*
X156765898Y-104627226D01*
X156954256Y-104549205D01*
X157123774Y-104435937D01*
X157267937Y-104291774D01*
X157381205Y-104122256D01*
X157459226Y-103933898D01*
X157499000Y-103733939D01*
X157499000Y-103530061D01*
X157459226Y-103330102D01*
X157381205Y-103141744D01*
X157267937Y-102972226D01*
X157123774Y-102828063D01*
X156954256Y-102714795D01*
X156765898Y-102636774D01*
X156565939Y-102597000D01*
X156362061Y-102597000D01*
X156342825Y-102600826D01*
X157577666Y-101365985D01*
X157660776Y-128207576D01*
X157659583Y-128220000D01*
X138463505Y-128220000D01*
X138070333Y-128181449D01*
X137724365Y-128076996D01*
X137405276Y-127907333D01*
X137125219Y-127678924D01*
X136894859Y-127400466D01*
X136722973Y-127082570D01*
X136616106Y-126737340D01*
X136575000Y-126346238D01*
X136575000Y-107504000D01*
X137890928Y-107504000D01*
X137894000Y-107918250D01*
X138052750Y-108077000D01*
X138889500Y-108077000D01*
X138889500Y-107027750D01*
X138730750Y-106869000D01*
X138529000Y-106865928D01*
X138404518Y-106878188D01*
X138284820Y-106914498D01*
X138174506Y-106973463D01*
X138077815Y-107052815D01*
X137998463Y-107149506D01*
X137939498Y-107259820D01*
X137903188Y-107379518D01*
X137890928Y-107504000D01*
X136575000Y-107504000D01*
X136575000Y-98886000D01*
X138590815Y-98886000D01*
X138619487Y-99177111D01*
X138704401Y-99457034D01*
X138842294Y-99715014D01*
X139027866Y-99941134D01*
X139253986Y-100126706D01*
X139279722Y-100140462D01*
X139073571Y-100296951D01*
X138880504Y-100514807D01*
X138733648Y-100766142D01*
X138641524Y-101029110D01*
X138762845Y-101259000D01*
X140081000Y-101259000D01*
X140081000Y-101239000D01*
X140335000Y-101239000D01*
X140335000Y-101259000D01*
X141653155Y-101259000D01*
X141774476Y-101029110D01*
X141682352Y-100766142D01*
X141535496Y-100514807D01*
X141342429Y-100296951D01*
X141136278Y-100140462D01*
X141162014Y-100126706D01*
X141388134Y-99941134D01*
X141573706Y-99715014D01*
X141711599Y-99457034D01*
X141796513Y-99177111D01*
X141825185Y-98886000D01*
X141796513Y-98594889D01*
X141711599Y-98314966D01*
X141573706Y-98056986D01*
X141388134Y-97830866D01*
X141162014Y-97645294D01*
X140904034Y-97507401D01*
X140624111Y-97422487D01*
X140405950Y-97401000D01*
X140010050Y-97401000D01*
X139791889Y-97422487D01*
X139511966Y-97507401D01*
X139253986Y-97645294D01*
X139027866Y-97830866D01*
X138842294Y-98056986D01*
X138704401Y-98314966D01*
X138619487Y-98594889D01*
X138590815Y-98886000D01*
X136575000Y-98886000D01*
X136575000Y-87028504D01*
X136613551Y-86635332D01*
X136718004Y-86289366D01*
X136887667Y-85970276D01*
X137116076Y-85690219D01*
X137394534Y-85459859D01*
X137712430Y-85287973D01*
X138057658Y-85181107D01*
X138448753Y-85140000D01*
X162839814Y-85140000D01*
X162843056Y-85145842D01*
M02*
