M48
; DRILL file {KiCad 5.1.6-c6e7f7d~87~ubuntu20.04.1} date Sun Nov  8 20:48:59 2020
; FORMAT={-:-/ absolute / inch / decimal}
; #@! TF.CreationDate,2020-11-08T20:48:59+01:00
; #@! TF.GenerationSoftware,Kicad,Pcbnew,5.1.6-c6e7f7d~87~ubuntu20.04.1
FMAT,2
INCH
T1C0.0157
T2C0.0300
T3C0.0315
T4C0.0374
T5C0.0394
T6C0.1063
%
G90
G05
T1
X5.43Y-3.52
X5.46Y-4.895
X5.58Y-4.405
X5.61Y-4.45
X5.78Y-3.58
X6.13Y-3.86
X6.13Y-4.72
X6.16Y-4.08
X6.46Y-3.87
X6.57Y-3.94
T2
X6.36Y-4.04
X6.36Y-4.14
X6.46Y-4.04
X6.46Y-4.14
X6.56Y-4.04
X6.56Y-4.14
X6.66Y-4.04
X6.66Y-4.14
T3
X5.74Y-3.67
X5.74Y-3.77
X5.74Y-3.87
X5.74Y-3.97
X5.74Y-4.07
X5.74Y-4.17
X5.74Y-4.27
X5.74Y-4.37
X5.74Y-4.47
X5.74Y-4.57
X5.74Y-4.67
X5.74Y-4.77
X5.74Y-4.87
X5.74Y-4.97
X6.04Y-3.67
X6.04Y-3.77
X6.04Y-3.87
X6.04Y-3.97
X6.04Y-4.07
X6.04Y-4.17
X6.04Y-4.27
X6.04Y-4.37
X6.04Y-4.47
X6.04Y-4.57
X6.04Y-4.67
X6.04Y-4.77
X6.04Y-4.87
X6.04Y-4.97
T4
X5.52Y-3.8931
X5.52Y-3.9916
X5.52Y-4.09
T5
X5.52Y-3.44
X5.62Y-3.44
X5.72Y-3.44
X6.206Y-3.479
X6.3044Y-3.479
T6
X6.69Y-3.45
X6.69Y-3.6469
T0
M30
