M48
; DRILL file {KiCad 5.1.6-c6e7f7d~87~ubuntu20.04.1} date Sun Sep 27 23:01:09 2020
; FORMAT={-:-/ absolute / inch / decimal}
; #@! TF.CreationDate,2020-09-27T23:01:09+02:00
; #@! TF.GenerationSoftware,Kicad,Pcbnew,5.1.6-c6e7f7d~87~ubuntu20.04.1
; #@! TF.FileFunction,Plated,1,4,PTH
FMAT,2
INCH
T1C0.0157
T2C0.0295
T3C0.0300
T4C0.0315
T5C0.0374
T6C0.0394
T7C0.0433
T8C0.1063
%
G90
G05
T1
X5.3292Y-4.8041
X5.4331Y-3.8623
X5.5286Y-3.6421
X6.0587Y-3.5177
X6.1512Y-4.5998
X6.204Y-3.5341
X6.2598Y-3.4153
X6.6483Y-3.8578
X6.7492Y-3.8578
T2
X6.18Y-3.34
X6.23Y-3.34
X6.28Y-3.34
T3
X6.45Y-3.94
X6.45Y-4.04
X6.55Y-3.94
X6.55Y-4.04
X6.65Y-3.94
X6.65Y-4.04
X6.75Y-3.94
X6.75Y-4.04
T4
X5.5Y-4.7
X5.5Y-4.8921
X5.74Y-3.67
X5.74Y-3.77
X5.74Y-3.87
X5.74Y-3.97
X5.74Y-4.07
X5.74Y-4.17
X5.74Y-4.27
X5.74Y-4.37
X5.74Y-4.47
X5.74Y-4.57
X5.74Y-4.67
X5.74Y-4.77
X5.74Y-4.87
X5.74Y-4.97
X6.04Y-3.67
X6.04Y-3.77
X6.04Y-3.87
X6.04Y-3.97
X6.04Y-4.07
X6.04Y-4.17
X6.04Y-4.27
X6.04Y-4.37
X6.04Y-4.47
X6.04Y-4.57
X6.04Y-4.67
X6.04Y-4.77
X6.04Y-4.87
X6.04Y-4.97
T5
X6.4731Y-3.4
X6.5716Y-3.4
X6.67Y-3.4
T6
X5.3Y-3.31
X5.3984Y-3.31
X5.33Y-4.32
X5.43Y-4.32
X5.53Y-4.32
T7
X6.2752Y-3.7
X6.3752Y-3.7
X6.4752Y-3.7
T8
X5.73Y-3.3
X5.9269Y-3.3
T0
M30
