G04 #@! TF.GenerationSoftware,KiCad,Pcbnew,5.1.6-c6e7f7d~87~ubuntu20.04.1*
G04 #@! TF.CreationDate,2020-10-16T00:20:04+02:00*
G04 #@! TF.ProjectId,soil_humidity_module,736f696c-5f68-4756-9d69-646974795f6d,rev?*
G04 #@! TF.SameCoordinates,Original*
G04 #@! TF.FileFunction,Copper,L1,Top*
G04 #@! TF.FilePolarity,Positive*
%FSLAX46Y46*%
G04 Gerber Fmt 4.6, Leading zero omitted, Abs format (unit mm)*
G04 Created by KiCad (PCBNEW 5.1.6-c6e7f7d~87~ubuntu20.04.1) date 2020-10-16 00:20:04*
%MOMM*%
%LPD*%
G01*
G04 APERTURE LIST*
G04 #@! TA.AperFunction,SMDPad,CuDef*
%ADD10R,1.560000X0.650000*%
G04 #@! TD*
G04 #@! TA.AperFunction,ComponentPad*
%ADD11R,3.800000X3.800000*%
G04 #@! TD*
G04 #@! TA.AperFunction,ComponentPad*
%ADD12C,4.000000*%
G04 #@! TD*
G04 #@! TA.AperFunction,SMDPad,CuDef*
%ADD13R,0.650000X1.060000*%
G04 #@! TD*
G04 #@! TA.AperFunction,SMDPad,CuDef*
%ADD14R,0.900000X0.800000*%
G04 #@! TD*
G04 #@! TA.AperFunction,ComponentPad*
%ADD15O,1.950000X1.700000*%
G04 #@! TD*
G04 #@! TA.AperFunction,ComponentPad*
%ADD16O,1.700000X2.000000*%
G04 #@! TD*
G04 #@! TA.AperFunction,ComponentPad*
%ADD17R,1.700000X1.700000*%
G04 #@! TD*
G04 #@! TA.AperFunction,ComponentPad*
%ADD18O,1.700000X1.700000*%
G04 #@! TD*
G04 #@! TA.AperFunction,ComponentPad*
%ADD19C,1.524000*%
G04 #@! TD*
G04 #@! TA.AperFunction,ComponentPad*
%ADD20R,1.524000X1.524000*%
G04 #@! TD*
G04 #@! TA.AperFunction,ComponentPad*
%ADD21R,1.600000X1.600000*%
G04 #@! TD*
G04 #@! TA.AperFunction,ComponentPad*
%ADD22O,1.600000X1.600000*%
G04 #@! TD*
G04 #@! TA.AperFunction,ViaPad*
%ADD23C,0.800000*%
G04 #@! TD*
G04 #@! TA.AperFunction,Conductor*
%ADD24C,0.250000*%
G04 #@! TD*
G04 #@! TA.AperFunction,Conductor*
%ADD25C,0.254000*%
G04 #@! TD*
G04 APERTURE END LIST*
G04 #@! TA.AperFunction,SMDPad,CuDef*
G36*
G01*
X166040750Y-96995400D02*
X166953250Y-96995400D01*
G75*
G02*
X167197000Y-97239150I0J-243750D01*
G01*
X167197000Y-97726650D01*
G75*
G02*
X166953250Y-97970400I-243750J0D01*
G01*
X166040750Y-97970400D01*
G75*
G02*
X165797000Y-97726650I0J243750D01*
G01*
X165797000Y-97239150D01*
G75*
G02*
X166040750Y-96995400I243750J0D01*
G01*
G37*
G04 #@! TD.AperFunction*
G04 #@! TA.AperFunction,SMDPad,CuDef*
G36*
G01*
X166040750Y-95120400D02*
X166953250Y-95120400D01*
G75*
G02*
X167197000Y-95364150I0J-243750D01*
G01*
X167197000Y-95851650D01*
G75*
G02*
X166953250Y-96095400I-243750J0D01*
G01*
X166040750Y-96095400D01*
G75*
G02*
X165797000Y-95851650I0J243750D01*
G01*
X165797000Y-95364150D01*
G75*
G02*
X166040750Y-95120400I243750J0D01*
G01*
G37*
G04 #@! TD.AperFunction*
G04 #@! TA.AperFunction,SMDPad,CuDef*
G36*
G01*
X164794250Y-96095400D02*
X163881750Y-96095400D01*
G75*
G02*
X163638000Y-95851650I0J243750D01*
G01*
X163638000Y-95364150D01*
G75*
G02*
X163881750Y-95120400I243750J0D01*
G01*
X164794250Y-95120400D01*
G75*
G02*
X165038000Y-95364150I0J-243750D01*
G01*
X165038000Y-95851650D01*
G75*
G02*
X164794250Y-96095400I-243750J0D01*
G01*
G37*
G04 #@! TD.AperFunction*
G04 #@! TA.AperFunction,SMDPad,CuDef*
G36*
G01*
X164794250Y-97970400D02*
X163881750Y-97970400D01*
G75*
G02*
X163638000Y-97726650I0J243750D01*
G01*
X163638000Y-97239150D01*
G75*
G02*
X163881750Y-96995400I243750J0D01*
G01*
X164794250Y-96995400D01*
G75*
G02*
X165038000Y-97239150I0J-243750D01*
G01*
X165038000Y-97726650D01*
G75*
G02*
X164794250Y-97970400I-243750J0D01*
G01*
G37*
G04 #@! TD.AperFunction*
D10*
X161751000Y-95468400D03*
X161751000Y-97368400D03*
X159051000Y-97368400D03*
X159051000Y-96418400D03*
X159051000Y-95468400D03*
G04 #@! TA.AperFunction,SMDPad,CuDef*
G36*
G01*
X137844850Y-111995800D02*
X136932350Y-111995800D01*
G75*
G02*
X136688600Y-111752050I0J243750D01*
G01*
X136688600Y-111264550D01*
G75*
G02*
X136932350Y-111020800I243750J0D01*
G01*
X137844850Y-111020800D01*
G75*
G02*
X138088600Y-111264550I0J-243750D01*
G01*
X138088600Y-111752050D01*
G75*
G02*
X137844850Y-111995800I-243750J0D01*
G01*
G37*
G04 #@! TD.AperFunction*
G04 #@! TA.AperFunction,SMDPad,CuDef*
G36*
G01*
X137844850Y-113870800D02*
X136932350Y-113870800D01*
G75*
G02*
X136688600Y-113627050I0J243750D01*
G01*
X136688600Y-113139550D01*
G75*
G02*
X136932350Y-112895800I243750J0D01*
G01*
X137844850Y-112895800D01*
G75*
G02*
X138088600Y-113139550I0J-243750D01*
G01*
X138088600Y-113627050D01*
G75*
G02*
X137844850Y-113870800I-243750J0D01*
G01*
G37*
G04 #@! TD.AperFunction*
G04 #@! TA.AperFunction,SMDPad,CuDef*
G36*
G01*
X143712250Y-107119000D02*
X142799750Y-107119000D01*
G75*
G02*
X142556000Y-106875250I0J243750D01*
G01*
X142556000Y-106387750D01*
G75*
G02*
X142799750Y-106144000I243750J0D01*
G01*
X143712250Y-106144000D01*
G75*
G02*
X143956000Y-106387750I0J-243750D01*
G01*
X143956000Y-106875250D01*
G75*
G02*
X143712250Y-107119000I-243750J0D01*
G01*
G37*
G04 #@! TD.AperFunction*
G04 #@! TA.AperFunction,SMDPad,CuDef*
G36*
G01*
X143712250Y-108994000D02*
X142799750Y-108994000D01*
G75*
G02*
X142556000Y-108750250I0J243750D01*
G01*
X142556000Y-108262750D01*
G75*
G02*
X142799750Y-108019000I243750J0D01*
G01*
X143712250Y-108019000D01*
G75*
G02*
X143956000Y-108262750I0J-243750D01*
G01*
X143956000Y-108750250D01*
G75*
G02*
X143712250Y-108994000I-243750J0D01*
G01*
G37*
G04 #@! TD.AperFunction*
G04 #@! TA.AperFunction,SMDPad,CuDef*
G36*
G01*
X134836000Y-102665000D02*
X136436000Y-102665000D01*
G75*
G02*
X136636000Y-102865000I0J-200000D01*
G01*
X136636000Y-103265000D01*
G75*
G02*
X136436000Y-103465000I-200000J0D01*
G01*
X134836000Y-103465000D01*
G75*
G02*
X134636000Y-103265000I0J200000D01*
G01*
X134636000Y-102865000D01*
G75*
G02*
X134836000Y-102665000I200000J0D01*
G01*
G37*
G04 #@! TD.AperFunction*
G04 #@! TA.AperFunction,SMDPad,CuDef*
G36*
G01*
X134836000Y-98465000D02*
X136436000Y-98465000D01*
G75*
G02*
X136636000Y-98665000I0J-200000D01*
G01*
X136636000Y-99065000D01*
G75*
G02*
X136436000Y-99265000I-200000J0D01*
G01*
X134836000Y-99265000D01*
G75*
G02*
X134636000Y-99065000I0J200000D01*
G01*
X134636000Y-98665000D01*
G75*
G02*
X134836000Y-98465000I200000J0D01*
G01*
G37*
G04 #@! TD.AperFunction*
D11*
X171450000Y-88595200D03*
D12*
X166450000Y-88595200D03*
G04 #@! TA.AperFunction,SMDPad,CuDef*
G36*
G01*
X138227750Y-92906000D02*
X139140250Y-92906000D01*
G75*
G02*
X139384000Y-93149750I0J-243750D01*
G01*
X139384000Y-93637250D01*
G75*
G02*
X139140250Y-93881000I-243750J0D01*
G01*
X138227750Y-93881000D01*
G75*
G02*
X137984000Y-93637250I0J243750D01*
G01*
X137984000Y-93149750D01*
G75*
G02*
X138227750Y-92906000I243750J0D01*
G01*
G37*
G04 #@! TD.AperFunction*
G04 #@! TA.AperFunction,SMDPad,CuDef*
G36*
G01*
X138227750Y-91031000D02*
X139140250Y-91031000D01*
G75*
G02*
X139384000Y-91274750I0J-243750D01*
G01*
X139384000Y-91762250D01*
G75*
G02*
X139140250Y-92006000I-243750J0D01*
G01*
X138227750Y-92006000D01*
G75*
G02*
X137984000Y-91762250I0J243750D01*
G01*
X137984000Y-91274750D01*
G75*
G02*
X138227750Y-91031000I243750J0D01*
G01*
G37*
G04 #@! TD.AperFunction*
G04 #@! TA.AperFunction,SMDPad,CuDef*
G36*
G01*
X143585250Y-124899000D02*
X142672750Y-124899000D01*
G75*
G02*
X142429000Y-124655250I0J243750D01*
G01*
X142429000Y-124167750D01*
G75*
G02*
X142672750Y-123924000I243750J0D01*
G01*
X143585250Y-123924000D01*
G75*
G02*
X143829000Y-124167750I0J-243750D01*
G01*
X143829000Y-124655250D01*
G75*
G02*
X143585250Y-124899000I-243750J0D01*
G01*
G37*
G04 #@! TD.AperFunction*
G04 #@! TA.AperFunction,SMDPad,CuDef*
G36*
G01*
X143585250Y-126774000D02*
X142672750Y-126774000D01*
G75*
G02*
X142429000Y-126530250I0J243750D01*
G01*
X142429000Y-126042750D01*
G75*
G02*
X142672750Y-125799000I243750J0D01*
G01*
X143585250Y-125799000D01*
G75*
G02*
X143829000Y-126042750I0J-243750D01*
G01*
X143829000Y-126530250D01*
G75*
G02*
X143585250Y-126774000I-243750J0D01*
G01*
G37*
G04 #@! TD.AperFunction*
G04 #@! TA.AperFunction,SMDPad,CuDef*
G36*
G01*
X142672750Y-122116000D02*
X143585250Y-122116000D01*
G75*
G02*
X143829000Y-122359750I0J-243750D01*
G01*
X143829000Y-122847250D01*
G75*
G02*
X143585250Y-123091000I-243750J0D01*
G01*
X142672750Y-123091000D01*
G75*
G02*
X142429000Y-122847250I0J243750D01*
G01*
X142429000Y-122359750D01*
G75*
G02*
X142672750Y-122116000I243750J0D01*
G01*
G37*
G04 #@! TD.AperFunction*
G04 #@! TA.AperFunction,SMDPad,CuDef*
G36*
G01*
X142672750Y-120241000D02*
X143585250Y-120241000D01*
G75*
G02*
X143829000Y-120484750I0J-243750D01*
G01*
X143829000Y-120972250D01*
G75*
G02*
X143585250Y-121216000I-243750J0D01*
G01*
X142672750Y-121216000D01*
G75*
G02*
X142429000Y-120972250I0J243750D01*
G01*
X142429000Y-120484750D01*
G75*
G02*
X142672750Y-120241000I243750J0D01*
G01*
G37*
G04 #@! TD.AperFunction*
D13*
X140843000Y-98595000D03*
X139893000Y-98595000D03*
X141793000Y-98595000D03*
X141793000Y-100795000D03*
X140843000Y-100795000D03*
X139893000Y-100795000D03*
G04 #@! TA.AperFunction,SMDPad,CuDef*
G36*
G01*
X136314600Y-95934850D02*
X136314600Y-95022350D01*
G75*
G02*
X136558350Y-94778600I243750J0D01*
G01*
X137045850Y-94778600D01*
G75*
G02*
X137289600Y-95022350I0J-243750D01*
G01*
X137289600Y-95934850D01*
G75*
G02*
X137045850Y-96178600I-243750J0D01*
G01*
X136558350Y-96178600D01*
G75*
G02*
X136314600Y-95934850I0J243750D01*
G01*
G37*
G04 #@! TD.AperFunction*
G04 #@! TA.AperFunction,SMDPad,CuDef*
G36*
G01*
X134439600Y-95934850D02*
X134439600Y-95022350D01*
G75*
G02*
X134683350Y-94778600I243750J0D01*
G01*
X135170850Y-94778600D01*
G75*
G02*
X135414600Y-95022350I0J-243750D01*
G01*
X135414600Y-95934850D01*
G75*
G02*
X135170850Y-96178600I-243750J0D01*
G01*
X134683350Y-96178600D01*
G75*
G02*
X134439600Y-95934850I0J243750D01*
G01*
G37*
G04 #@! TD.AperFunction*
G04 #@! TA.AperFunction,SMDPad,CuDef*
G36*
G01*
X141166000Y-103199250D02*
X141166000Y-102286750D01*
G75*
G02*
X141409750Y-102043000I243750J0D01*
G01*
X141897250Y-102043000D01*
G75*
G02*
X142141000Y-102286750I0J-243750D01*
G01*
X142141000Y-103199250D01*
G75*
G02*
X141897250Y-103443000I-243750J0D01*
G01*
X141409750Y-103443000D01*
G75*
G02*
X141166000Y-103199250I0J243750D01*
G01*
G37*
G04 #@! TD.AperFunction*
G04 #@! TA.AperFunction,SMDPad,CuDef*
G36*
G01*
X139291000Y-103199250D02*
X139291000Y-102286750D01*
G75*
G02*
X139534750Y-102043000I243750J0D01*
G01*
X140022250Y-102043000D01*
G75*
G02*
X140266000Y-102286750I0J-243750D01*
G01*
X140266000Y-103199250D01*
G75*
G02*
X140022250Y-103443000I-243750J0D01*
G01*
X139534750Y-103443000D01*
G75*
G02*
X139291000Y-103199250I0J243750D01*
G01*
G37*
G04 #@! TD.AperFunction*
G04 #@! TA.AperFunction,SMDPad,CuDef*
G36*
G01*
X157174250Y-105976000D02*
X156261750Y-105976000D01*
G75*
G02*
X156018000Y-105732250I0J243750D01*
G01*
X156018000Y-105244750D01*
G75*
G02*
X156261750Y-105001000I243750J0D01*
G01*
X157174250Y-105001000D01*
G75*
G02*
X157418000Y-105244750I0J-243750D01*
G01*
X157418000Y-105732250D01*
G75*
G02*
X157174250Y-105976000I-243750J0D01*
G01*
G37*
G04 #@! TD.AperFunction*
G04 #@! TA.AperFunction,SMDPad,CuDef*
G36*
G01*
X157174250Y-107851000D02*
X156261750Y-107851000D01*
G75*
G02*
X156018000Y-107607250I0J243750D01*
G01*
X156018000Y-107119750D01*
G75*
G02*
X156261750Y-106876000I243750J0D01*
G01*
X157174250Y-106876000D01*
G75*
G02*
X157418000Y-107119750I0J-243750D01*
G01*
X157418000Y-107607250D01*
G75*
G02*
X157174250Y-107851000I-243750J0D01*
G01*
G37*
G04 #@! TD.AperFunction*
D14*
X140986000Y-112141000D03*
X142986000Y-111191000D03*
X142986000Y-113091000D03*
D15*
X136652000Y-119714000D03*
X136652000Y-122214000D03*
G04 #@! TA.AperFunction,ComponentPad*
G36*
G01*
X137377000Y-125564000D02*
X135927000Y-125564000D01*
G75*
G02*
X135677000Y-125314000I0J250000D01*
G01*
X135677000Y-124114000D01*
G75*
G02*
X135927000Y-123864000I250000J0D01*
G01*
X137377000Y-123864000D01*
G75*
G02*
X137627000Y-124114000I0J-250000D01*
G01*
X137627000Y-125314000D01*
G75*
G02*
X137377000Y-125564000I-250000J0D01*
G01*
G37*
G04 #@! TD.AperFunction*
D16*
X160132400Y-88366600D03*
G04 #@! TA.AperFunction,ComponentPad*
G36*
G01*
X156782400Y-89116600D02*
X156782400Y-87616600D01*
G75*
G02*
X157032400Y-87366600I250000J0D01*
G01*
X158232400Y-87366600D01*
G75*
G02*
X158482400Y-87616600I0J-250000D01*
G01*
X158482400Y-89116600D01*
G75*
G02*
X158232400Y-89366600I-250000J0D01*
G01*
X157032400Y-89366600D01*
G75*
G02*
X156782400Y-89116600I0J250000D01*
G01*
G37*
G04 #@! TD.AperFunction*
G04 #@! TA.AperFunction,SMDPad,CuDef*
G36*
G01*
X141536000Y-114605750D02*
X141536000Y-115518250D01*
G75*
G02*
X141292250Y-115762000I-243750J0D01*
G01*
X140804750Y-115762000D01*
G75*
G02*
X140561000Y-115518250I0J243750D01*
G01*
X140561000Y-114605750D01*
G75*
G02*
X140804750Y-114362000I243750J0D01*
G01*
X141292250Y-114362000D01*
G75*
G02*
X141536000Y-114605750I0J-243750D01*
G01*
G37*
G04 #@! TD.AperFunction*
G04 #@! TA.AperFunction,SMDPad,CuDef*
G36*
G01*
X143411000Y-114605750D02*
X143411000Y-115518250D01*
G75*
G02*
X143167250Y-115762000I-243750J0D01*
G01*
X142679750Y-115762000D01*
G75*
G02*
X142436000Y-115518250I0J243750D01*
G01*
X142436000Y-114605750D01*
G75*
G02*
X142679750Y-114362000I243750J0D01*
G01*
X143167250Y-114362000D01*
G75*
G02*
X143411000Y-114605750I0J-243750D01*
G01*
G37*
G04 #@! TD.AperFunction*
G04 #@! TA.AperFunction,SMDPad,CuDef*
G36*
G01*
X156261750Y-111956000D02*
X157174250Y-111956000D01*
G75*
G02*
X157418000Y-112199750I0J-243750D01*
G01*
X157418000Y-112687250D01*
G75*
G02*
X157174250Y-112931000I-243750J0D01*
G01*
X156261750Y-112931000D01*
G75*
G02*
X156018000Y-112687250I0J243750D01*
G01*
X156018000Y-112199750D01*
G75*
G02*
X156261750Y-111956000I243750J0D01*
G01*
G37*
G04 #@! TD.AperFunction*
G04 #@! TA.AperFunction,SMDPad,CuDef*
G36*
G01*
X156261750Y-110081000D02*
X157174250Y-110081000D01*
G75*
G02*
X157418000Y-110324750I0J-243750D01*
G01*
X157418000Y-110812250D01*
G75*
G02*
X157174250Y-111056000I-243750J0D01*
G01*
X156261750Y-111056000D01*
G75*
G02*
X156018000Y-110812250I0J243750D01*
G01*
X156018000Y-110324750D01*
G75*
G02*
X156261750Y-110081000I243750J0D01*
G01*
G37*
G04 #@! TD.AperFunction*
G04 #@! TA.AperFunction,SMDPad,CuDef*
G36*
G01*
X156261750Y-115766000D02*
X157174250Y-115766000D01*
G75*
G02*
X157418000Y-116009750I0J-243750D01*
G01*
X157418000Y-116497250D01*
G75*
G02*
X157174250Y-116741000I-243750J0D01*
G01*
X156261750Y-116741000D01*
G75*
G02*
X156018000Y-116497250I0J243750D01*
G01*
X156018000Y-116009750D01*
G75*
G02*
X156261750Y-115766000I243750J0D01*
G01*
G37*
G04 #@! TD.AperFunction*
G04 #@! TA.AperFunction,SMDPad,CuDef*
G36*
G01*
X156261750Y-113891000D02*
X157174250Y-113891000D01*
G75*
G02*
X157418000Y-114134750I0J-243750D01*
G01*
X157418000Y-114622250D01*
G75*
G02*
X157174250Y-114866000I-243750J0D01*
G01*
X156261750Y-114866000D01*
G75*
G02*
X156018000Y-114622250I0J243750D01*
G01*
X156018000Y-114134750D01*
G75*
G02*
X156261750Y-113891000I243750J0D01*
G01*
G37*
G04 #@! TD.AperFunction*
D17*
X143256000Y-87376000D03*
D18*
X140716000Y-87376000D03*
X138176000Y-87376000D03*
G04 #@! TA.AperFunction,SMDPad,CuDef*
G36*
G01*
X143966250Y-92006000D02*
X143053750Y-92006000D01*
G75*
G02*
X142810000Y-91762250I0J243750D01*
G01*
X142810000Y-91274750D01*
G75*
G02*
X143053750Y-91031000I243750J0D01*
G01*
X143966250Y-91031000D01*
G75*
G02*
X144210000Y-91274750I0J-243750D01*
G01*
X144210000Y-91762250D01*
G75*
G02*
X143966250Y-92006000I-243750J0D01*
G01*
G37*
G04 #@! TD.AperFunction*
G04 #@! TA.AperFunction,SMDPad,CuDef*
G36*
G01*
X143966250Y-93881000D02*
X143053750Y-93881000D01*
G75*
G02*
X142810000Y-93637250I0J243750D01*
G01*
X142810000Y-93149750D01*
G75*
G02*
X143053750Y-92906000I243750J0D01*
G01*
X143966250Y-92906000D01*
G75*
G02*
X144210000Y-93149750I0J-243750D01*
G01*
X144210000Y-93637250D01*
G75*
G02*
X143966250Y-93881000I-243750J0D01*
G01*
G37*
G04 #@! TD.AperFunction*
G04 #@! TA.AperFunction,SMDPad,CuDef*
G36*
G01*
X170638150Y-96970000D02*
X171550650Y-96970000D01*
G75*
G02*
X171794400Y-97213750I0J-243750D01*
G01*
X171794400Y-97701250D01*
G75*
G02*
X171550650Y-97945000I-243750J0D01*
G01*
X170638150Y-97945000D01*
G75*
G02*
X170394400Y-97701250I0J243750D01*
G01*
X170394400Y-97213750D01*
G75*
G02*
X170638150Y-96970000I243750J0D01*
G01*
G37*
G04 #@! TD.AperFunction*
G04 #@! TA.AperFunction,SMDPad,CuDef*
G36*
G01*
X170638150Y-95095000D02*
X171550650Y-95095000D01*
G75*
G02*
X171794400Y-95338750I0J-243750D01*
G01*
X171794400Y-95826250D01*
G75*
G02*
X171550650Y-96070000I-243750J0D01*
G01*
X170638150Y-96070000D01*
G75*
G02*
X170394400Y-95826250I0J243750D01*
G01*
X170394400Y-95338750D01*
G75*
G02*
X170638150Y-95095000I243750J0D01*
G01*
G37*
G04 #@! TD.AperFunction*
G04 #@! TA.AperFunction,SMDPad,CuDef*
G36*
G01*
X172797150Y-96970000D02*
X173709650Y-96970000D01*
G75*
G02*
X173953400Y-97213750I0J-243750D01*
G01*
X173953400Y-97701250D01*
G75*
G02*
X173709650Y-97945000I-243750J0D01*
G01*
X172797150Y-97945000D01*
G75*
G02*
X172553400Y-97701250I0J243750D01*
G01*
X172553400Y-97213750D01*
G75*
G02*
X172797150Y-96970000I243750J0D01*
G01*
G37*
G04 #@! TD.AperFunction*
G04 #@! TA.AperFunction,SMDPad,CuDef*
G36*
G01*
X172797150Y-95095000D02*
X173709650Y-95095000D01*
G75*
G02*
X173953400Y-95338750I0J-243750D01*
G01*
X173953400Y-95826250D01*
G75*
G02*
X173709650Y-96070000I-243750J0D01*
G01*
X172797150Y-96070000D01*
G75*
G02*
X172553400Y-95826250I0J243750D01*
G01*
X172553400Y-95338750D01*
G75*
G02*
X172797150Y-95095000I243750J0D01*
G01*
G37*
G04 #@! TD.AperFunction*
G04 #@! TA.AperFunction,SMDPad,CuDef*
G36*
G01*
X168174350Y-96970000D02*
X169086850Y-96970000D01*
G75*
G02*
X169330600Y-97213750I0J-243750D01*
G01*
X169330600Y-97701250D01*
G75*
G02*
X169086850Y-97945000I-243750J0D01*
G01*
X168174350Y-97945000D01*
G75*
G02*
X167930600Y-97701250I0J243750D01*
G01*
X167930600Y-97213750D01*
G75*
G02*
X168174350Y-96970000I243750J0D01*
G01*
G37*
G04 #@! TD.AperFunction*
G04 #@! TA.AperFunction,SMDPad,CuDef*
G36*
G01*
X168174350Y-95095000D02*
X169086850Y-95095000D01*
G75*
G02*
X169330600Y-95338750I0J-243750D01*
G01*
X169330600Y-95826250D01*
G75*
G02*
X169086850Y-96070000I-243750J0D01*
G01*
X168174350Y-96070000D01*
G75*
G02*
X167930600Y-95826250I0J243750D01*
G01*
X167930600Y-95338750D01*
G75*
G02*
X168174350Y-95095000I243750J0D01*
G01*
G37*
G04 #@! TD.AperFunction*
G04 #@! TA.AperFunction,SMDPad,CuDef*
G36*
G01*
X135584250Y-111995800D02*
X134671750Y-111995800D01*
G75*
G02*
X134428000Y-111752050I0J243750D01*
G01*
X134428000Y-111264550D01*
G75*
G02*
X134671750Y-111020800I243750J0D01*
G01*
X135584250Y-111020800D01*
G75*
G02*
X135828000Y-111264550I0J-243750D01*
G01*
X135828000Y-111752050D01*
G75*
G02*
X135584250Y-111995800I-243750J0D01*
G01*
G37*
G04 #@! TD.AperFunction*
G04 #@! TA.AperFunction,SMDPad,CuDef*
G36*
G01*
X135584250Y-113870800D02*
X134671750Y-113870800D01*
G75*
G02*
X134428000Y-113627050I0J243750D01*
G01*
X134428000Y-113139550D01*
G75*
G02*
X134671750Y-112895800I243750J0D01*
G01*
X135584250Y-112895800D01*
G75*
G02*
X135828000Y-113139550I0J-243750D01*
G01*
X135828000Y-113627050D01*
G75*
G02*
X135584250Y-113870800I-243750J0D01*
G01*
G37*
G04 #@! TD.AperFunction*
D19*
X164338000Y-103124000D03*
X164338000Y-100584000D03*
X166878000Y-103124000D03*
X166878000Y-100584000D03*
X169418000Y-103124000D03*
X169418000Y-100584000D03*
X171958000Y-103124000D03*
D20*
X171958000Y-100584000D03*
G04 #@! TA.AperFunction,SMDPad,CuDef*
G36*
G01*
X156007750Y-94993400D02*
X156920250Y-94993400D01*
G75*
G02*
X157164000Y-95237150I0J-243750D01*
G01*
X157164000Y-95724650D01*
G75*
G02*
X156920250Y-95968400I-243750J0D01*
G01*
X156007750Y-95968400D01*
G75*
G02*
X155764000Y-95724650I0J243750D01*
G01*
X155764000Y-95237150D01*
G75*
G02*
X156007750Y-94993400I243750J0D01*
G01*
G37*
G04 #@! TD.AperFunction*
G04 #@! TA.AperFunction,SMDPad,CuDef*
G36*
G01*
X156007750Y-96868400D02*
X156920250Y-96868400D01*
G75*
G02*
X157164000Y-97112150I0J-243750D01*
G01*
X157164000Y-97599650D01*
G75*
G02*
X156920250Y-97843400I-243750J0D01*
G01*
X156007750Y-97843400D01*
G75*
G02*
X155764000Y-97599650I0J243750D01*
G01*
X155764000Y-97112150D01*
G75*
G02*
X156007750Y-96868400I243750J0D01*
G01*
G37*
G04 #@! TD.AperFunction*
G04 #@! TA.AperFunction,SMDPad,CuDef*
G36*
G01*
X141553250Y-93881000D02*
X140640750Y-93881000D01*
G75*
G02*
X140397000Y-93637250I0J243750D01*
G01*
X140397000Y-93149750D01*
G75*
G02*
X140640750Y-92906000I243750J0D01*
G01*
X141553250Y-92906000D01*
G75*
G02*
X141797000Y-93149750I0J-243750D01*
G01*
X141797000Y-93637250D01*
G75*
G02*
X141553250Y-93881000I-243750J0D01*
G01*
G37*
G04 #@! TD.AperFunction*
G04 #@! TA.AperFunction,SMDPad,CuDef*
G36*
G01*
X141553250Y-92006000D02*
X140640750Y-92006000D01*
G75*
G02*
X140397000Y-91762250I0J243750D01*
G01*
X140397000Y-91274750D01*
G75*
G02*
X140640750Y-91031000I243750J0D01*
G01*
X141553250Y-91031000D01*
G75*
G02*
X141797000Y-91274750I0J-243750D01*
G01*
X141797000Y-91762250D01*
G75*
G02*
X141553250Y-92006000I-243750J0D01*
G01*
G37*
G04 #@! TD.AperFunction*
G04 #@! TA.AperFunction,SMDPad,CuDef*
G36*
G01*
X150546750Y-89985000D02*
X151459250Y-89985000D01*
G75*
G02*
X151703000Y-90228750I0J-243750D01*
G01*
X151703000Y-90716250D01*
G75*
G02*
X151459250Y-90960000I-243750J0D01*
G01*
X150546750Y-90960000D01*
G75*
G02*
X150303000Y-90716250I0J243750D01*
G01*
X150303000Y-90228750D01*
G75*
G02*
X150546750Y-89985000I243750J0D01*
G01*
G37*
G04 #@! TD.AperFunction*
G04 #@! TA.AperFunction,SMDPad,CuDef*
G36*
G01*
X150546750Y-88110000D02*
X151459250Y-88110000D01*
G75*
G02*
X151703000Y-88353750I0J-243750D01*
G01*
X151703000Y-88841250D01*
G75*
G02*
X151459250Y-89085000I-243750J0D01*
G01*
X150546750Y-89085000D01*
G75*
G02*
X150303000Y-88841250I0J243750D01*
G01*
X150303000Y-88353750D01*
G75*
G02*
X150546750Y-88110000I243750J0D01*
G01*
G37*
G04 #@! TD.AperFunction*
G04 #@! TA.AperFunction,SMDPad,CuDef*
G36*
G01*
X148919250Y-89085000D02*
X148006750Y-89085000D01*
G75*
G02*
X147763000Y-88841250I0J243750D01*
G01*
X147763000Y-88353750D01*
G75*
G02*
X148006750Y-88110000I243750J0D01*
G01*
X148919250Y-88110000D01*
G75*
G02*
X149163000Y-88353750I0J-243750D01*
G01*
X149163000Y-88841250D01*
G75*
G02*
X148919250Y-89085000I-243750J0D01*
G01*
G37*
G04 #@! TD.AperFunction*
G04 #@! TA.AperFunction,SMDPad,CuDef*
G36*
G01*
X148919250Y-90960000D02*
X148006750Y-90960000D01*
G75*
G02*
X147763000Y-90716250I0J243750D01*
G01*
X147763000Y-90228750D01*
G75*
G02*
X148006750Y-89985000I243750J0D01*
G01*
X148919250Y-89985000D01*
G75*
G02*
X149163000Y-90228750I0J-243750D01*
G01*
X149163000Y-90716250D01*
G75*
G02*
X148919250Y-90960000I-243750J0D01*
G01*
G37*
G04 #@! TD.AperFunction*
D21*
X145796000Y-93218000D03*
D22*
X153416000Y-126238000D03*
X145796000Y-95758000D03*
X153416000Y-123698000D03*
X145796000Y-98298000D03*
X153416000Y-121158000D03*
X145796000Y-100838000D03*
X153416000Y-118618000D03*
X145796000Y-103378000D03*
X153416000Y-116078000D03*
X145796000Y-105918000D03*
X153416000Y-113538000D03*
X145796000Y-108458000D03*
X153416000Y-110998000D03*
X145796000Y-110998000D03*
X153416000Y-108458000D03*
X145796000Y-113538000D03*
X153416000Y-105918000D03*
X145796000Y-116078000D03*
X153416000Y-103378000D03*
X145796000Y-118618000D03*
X153416000Y-100838000D03*
X145796000Y-121158000D03*
X153416000Y-98298000D03*
X145796000Y-123698000D03*
X153416000Y-95758000D03*
X145796000Y-126238000D03*
X153416000Y-93218000D03*
D23*
X167538400Y-98628200D03*
X163068000Y-94005400D03*
X172237400Y-98425000D03*
X146812000Y-87630000D03*
X139700000Y-113538000D03*
X138049000Y-97155000D03*
X155067000Y-116205000D03*
X143256000Y-103886000D03*
X155194000Y-106553000D03*
X141325600Y-120243600D03*
X155981400Y-99237800D03*
D24*
X166450000Y-88595200D02*
X163478200Y-91567000D01*
X163478200Y-91567000D02*
X159207200Y-91567000D01*
X157632400Y-89992200D02*
X157632400Y-88366600D01*
X159207200Y-91567000D02*
X157632400Y-89992200D01*
X141048500Y-115062500D02*
X141048500Y-115062000D01*
X141048500Y-115062500D02*
X141049000Y-115062000D01*
X147495500Y-87630000D02*
X148463000Y-88597500D01*
X146812000Y-87630000D02*
X147495500Y-87630000D01*
X140986000Y-112141000D02*
X140970000Y-112141000D01*
X140986000Y-112252000D02*
X139700000Y-113538000D01*
X140986000Y-112141000D02*
X140986000Y-112252000D01*
X155115500Y-116253500D02*
X155067000Y-116205000D01*
X156718000Y-116253500D02*
X155115500Y-116253500D01*
X140843000Y-101932500D02*
X140843000Y-100795000D01*
X141653500Y-102743000D02*
X140843000Y-101932500D01*
X142113000Y-102743000D02*
X143256000Y-103886000D01*
X141653500Y-102743000D02*
X142113000Y-102743000D01*
X143256000Y-103886000D02*
X143256000Y-106631500D01*
X156258500Y-105488500D02*
X155194000Y-106553000D01*
X156718000Y-105488500D02*
X156258500Y-105488500D01*
X143129000Y-120728500D02*
X143129000Y-120650000D01*
X171822000Y-100448000D02*
X171958000Y-100584000D01*
X156464000Y-97355900D02*
X156464000Y-97561400D01*
X164338000Y-95275400D02*
X163068000Y-94005400D01*
X164338000Y-95607900D02*
X164338000Y-95275400D01*
X173253400Y-97457500D02*
X173301900Y-97457500D01*
X171958000Y-100584000D02*
X172339000Y-100584000D01*
X171269900Y-97457500D02*
X172237400Y-98425000D01*
X171094400Y-97457500D02*
X171269900Y-97457500D01*
X173204900Y-97457500D02*
X172237400Y-98425000D01*
X173253400Y-97457500D02*
X173204900Y-97457500D01*
X157401500Y-96418400D02*
X156464000Y-97355900D01*
X159051000Y-96418400D02*
X157401500Y-96418400D01*
X171958000Y-98704400D02*
X172237400Y-98425000D01*
X171958000Y-100584000D02*
X171958000Y-98704400D01*
X141048500Y-114886500D02*
X139700000Y-113538000D01*
X141048500Y-115062000D02*
X141048500Y-114886500D01*
X162323500Y-95468400D02*
X164338000Y-97482900D01*
X161751000Y-95468400D02*
X162323500Y-95468400D01*
X164338000Y-97482900D02*
X166497000Y-97482900D01*
X174278410Y-96607510D02*
X173253400Y-95582500D01*
X174278410Y-100803590D02*
X174278410Y-96607510D01*
X171958000Y-103124000D02*
X174278410Y-100803590D01*
X142923500Y-115062500D02*
X142923500Y-115062000D01*
X142923500Y-115062500D02*
X142923000Y-115062000D01*
X142923000Y-115062000D02*
X142923000Y-113879000D01*
X142923000Y-113879000D02*
X142986000Y-113816000D01*
X142986000Y-113816000D02*
X142986000Y-113091000D01*
X148463000Y-90472500D02*
X151003000Y-90472500D01*
X151003000Y-98425000D02*
X153416000Y-100838000D01*
X151003000Y-90472500D02*
X151003000Y-98425000D01*
X166418500Y-95529400D02*
X166497000Y-95607900D01*
X153416000Y-110665500D02*
X153416000Y-110998000D01*
X156718000Y-107363500D02*
X153416000Y-110665500D01*
X153494500Y-113459500D02*
X153416000Y-113538000D01*
X156718000Y-112443500D02*
X156718000Y-114378500D01*
X154256500Y-114378500D02*
X153416000Y-113538000D01*
X156718000Y-114378500D02*
X154256500Y-114378500D01*
X150306000Y-88659700D02*
X150495000Y-88470500D01*
X138290500Y-91518500D02*
X138684000Y-91518500D01*
X139893000Y-102628500D02*
X139778500Y-102743000D01*
X139893000Y-100795000D02*
X139893000Y-102628500D01*
X145747500Y-108506500D02*
X145796000Y-108458000D01*
X143256000Y-108506500D02*
X145747500Y-108506500D01*
X159038500Y-95480900D02*
X159051000Y-95468400D01*
X156464000Y-95480900D02*
X159038500Y-95480900D01*
X156464000Y-98755200D02*
X155981400Y-99237800D01*
X156464000Y-97355900D02*
X156464000Y-98755200D01*
X168630600Y-97536000D02*
X167538400Y-98628200D01*
X168630600Y-97457500D02*
X168630600Y-97536000D01*
X136802100Y-95908100D02*
X138049000Y-97155000D01*
X136548100Y-95478600D02*
X136548100Y-95908100D01*
X143129000Y-120728500D02*
X141810500Y-120728500D01*
X141810500Y-120728500D02*
X141325600Y-120243600D01*
X171094400Y-95582500D02*
X173253400Y-95582500D01*
X170031910Y-96644990D02*
X171094400Y-95582500D01*
X167334910Y-96644990D02*
X170031910Y-96644990D01*
X166497000Y-97482900D02*
X167334910Y-96644990D01*
X146921001Y-104792999D02*
X145796000Y-105918000D01*
X153666003Y-104792999D02*
X146921001Y-104792999D01*
X159051000Y-99408002D02*
X153666003Y-104792999D01*
X159051000Y-97368400D02*
X159051000Y-99408002D01*
X145796000Y-117934500D02*
X145796000Y-118618000D01*
X142923500Y-115062000D02*
X145796000Y-117934500D01*
X168605200Y-95607900D02*
X168630600Y-95582500D01*
X166497000Y-95607900D02*
X168605200Y-95607900D01*
X137388600Y-113383300D02*
X135128000Y-113383300D01*
X143256000Y-91264500D02*
X143510000Y-91518500D01*
X143256000Y-87376000D02*
X143256000Y-91264500D01*
X142923000Y-111191000D02*
X142986000Y-111191000D01*
X142986000Y-111191000D02*
X141861010Y-112315990D01*
X141861010Y-111581008D02*
X141861010Y-112315990D01*
X137874127Y-111022773D02*
X141302775Y-111022773D01*
X141302775Y-111022773D02*
X141861010Y-111581008D01*
X137388600Y-111508300D02*
X137874127Y-111022773D01*
X141861010Y-112315990D02*
X141861010Y-117796988D01*
X137952010Y-123413990D02*
X136652000Y-124714000D01*
X141861010Y-117796988D02*
X137952010Y-121705988D01*
X137952010Y-121705988D02*
X137952010Y-123413990D01*
X141653500Y-101170500D02*
X141605000Y-101219000D01*
X135489500Y-99011500D02*
X135636000Y-98865000D01*
X135811500Y-98689500D02*
X135636000Y-98865000D01*
X141428001Y-99939999D02*
X141793000Y-100304998D01*
X141793000Y-100304998D02*
X141793000Y-100795000D01*
X136710999Y-99939999D02*
X141428001Y-99939999D01*
X135636000Y-98865000D02*
X136710999Y-99939999D01*
X134927100Y-98156100D02*
X135636000Y-98865000D01*
X134927100Y-95478600D02*
X134927100Y-98156100D01*
X143553000Y-98595000D02*
X145796000Y-100838000D01*
X141793000Y-98595000D02*
X143553000Y-98595000D01*
X145796000Y-102719000D02*
X145796000Y-103378000D01*
X141907989Y-99489989D02*
X145796000Y-103378000D01*
X140957989Y-99489989D02*
X141907989Y-99489989D01*
X140843000Y-99375000D02*
X140957989Y-99489989D01*
X140843000Y-98595000D02*
X140843000Y-99375000D01*
X145082500Y-92504500D02*
X145796000Y-93218000D01*
X142972000Y-93393500D02*
X143510000Y-93393500D01*
X138684000Y-93393500D02*
X141097000Y-93393500D01*
X141097000Y-93393500D02*
X143510000Y-93393500D01*
X141097000Y-93393500D02*
X140401000Y-94089500D01*
X139893000Y-94597500D02*
X139893000Y-98595000D01*
X141097000Y-93393500D02*
X139893000Y-94597500D01*
X145620500Y-93393500D02*
X145796000Y-93218000D01*
X143510000Y-93393500D02*
X145620500Y-93393500D01*
X145717500Y-123698000D02*
X145796000Y-123698000D01*
X143129000Y-126286500D02*
X145717500Y-123698000D01*
X143129000Y-122603500D02*
X143129000Y-124411500D01*
D25*
G36*
X162843056Y-85145842D02*
G01*
X162894925Y-85305741D01*
X162915905Y-85478731D01*
X163044865Y-90807000D01*
X159522002Y-90807000D01*
X158624269Y-89909267D01*
X158725786Y-89855005D01*
X158860362Y-89744562D01*
X158970805Y-89609986D01*
X159025314Y-89508007D01*
X159025598Y-89508395D01*
X159240354Y-89705264D01*
X159489391Y-89856454D01*
X159763139Y-89956154D01*
X159775510Y-89958076D01*
X160005400Y-89836755D01*
X160005400Y-88493600D01*
X160259400Y-88493600D01*
X160259400Y-89836755D01*
X160489290Y-89958076D01*
X160501661Y-89956154D01*
X160775409Y-89856454D01*
X161024446Y-89705264D01*
X161239202Y-89508395D01*
X161411425Y-89273412D01*
X161534496Y-89009345D01*
X161603685Y-88726342D01*
X161459632Y-88493600D01*
X160259400Y-88493600D01*
X160005400Y-88493600D01*
X159985400Y-88493600D01*
X159985400Y-88239600D01*
X160005400Y-88239600D01*
X160005400Y-86896445D01*
X160259400Y-86896445D01*
X160259400Y-88239600D01*
X161459632Y-88239600D01*
X161603685Y-88006858D01*
X161534496Y-87723855D01*
X161411425Y-87459788D01*
X161239202Y-87224805D01*
X161024446Y-87027936D01*
X160775409Y-86876746D01*
X160501661Y-86777046D01*
X160489290Y-86775124D01*
X160259400Y-86896445D01*
X160005400Y-86896445D01*
X159775510Y-86775124D01*
X159763139Y-86777046D01*
X159489391Y-86876746D01*
X159240354Y-87027936D01*
X159025598Y-87224805D01*
X159025314Y-87225193D01*
X158970805Y-87123214D01*
X158860362Y-86988638D01*
X158725786Y-86878195D01*
X158572250Y-86796128D01*
X158405654Y-86745592D01*
X158232400Y-86728528D01*
X157032400Y-86728528D01*
X156859146Y-86745592D01*
X156692550Y-86796128D01*
X156539014Y-86878195D01*
X156404438Y-86988638D01*
X156293995Y-87123214D01*
X156211928Y-87276750D01*
X156161392Y-87443346D01*
X156144328Y-87616600D01*
X156144328Y-89116600D01*
X156161392Y-89289854D01*
X156211928Y-89456450D01*
X156293995Y-89609986D01*
X156404438Y-89744562D01*
X156539014Y-89855005D01*
X156692550Y-89937072D01*
X156859146Y-89987608D01*
X156869080Y-89988586D01*
X156868724Y-89992200D01*
X156872400Y-90029522D01*
X156872400Y-90029532D01*
X156883397Y-90141185D01*
X156909959Y-90228750D01*
X156926854Y-90284446D01*
X156997426Y-90416476D01*
X157033189Y-90460053D01*
X157092399Y-90532201D01*
X157121403Y-90556004D01*
X158643401Y-92078003D01*
X158667199Y-92107001D01*
X158696197Y-92130799D01*
X158782924Y-92201974D01*
X158914953Y-92272546D01*
X159058214Y-92316003D01*
X159207200Y-92330677D01*
X159244533Y-92327000D01*
X161085793Y-92327000D01*
X159743660Y-92353360D01*
X159731332Y-92354204D01*
X159538292Y-92376889D01*
X159514172Y-92382139D01*
X159329166Y-92441738D01*
X159306517Y-92451555D01*
X159136536Y-92545818D01*
X159116214Y-92559830D01*
X158967679Y-92685194D01*
X158950451Y-92702874D01*
X158828973Y-92854605D01*
X158815492Y-92875282D01*
X158725660Y-93047645D01*
X158716432Y-93070541D01*
X158661641Y-93257027D01*
X158657018Y-93281274D01*
X158639337Y-93474837D01*
X158638812Y-93487183D01*
X158645067Y-94488640D01*
X158463487Y-94506524D01*
X158271000Y-94505328D01*
X158146518Y-94517588D01*
X158026820Y-94553898D01*
X157916506Y-94612863D01*
X157819815Y-94692215D01*
X157758773Y-94766595D01*
X157753502Y-94749220D01*
X157694537Y-94638906D01*
X157615185Y-94542215D01*
X157518494Y-94462863D01*
X157408180Y-94403898D01*
X157288482Y-94367588D01*
X157164000Y-94355328D01*
X156749750Y-94358400D01*
X156591000Y-94517150D01*
X156591000Y-95353900D01*
X156611000Y-95353900D01*
X156611000Y-95607900D01*
X156591000Y-95607900D01*
X156591000Y-95627900D01*
X156337000Y-95627900D01*
X156337000Y-95607900D01*
X155287750Y-95607900D01*
X155129000Y-95766650D01*
X155125928Y-95968400D01*
X155138188Y-96092882D01*
X155174498Y-96212580D01*
X155233463Y-96322894D01*
X155312815Y-96419585D01*
X155390564Y-96483392D01*
X155384208Y-96488608D01*
X155274542Y-96622236D01*
X155193053Y-96774691D01*
X155142872Y-96940115D01*
X155125928Y-97112150D01*
X155125928Y-97599650D01*
X155142872Y-97771685D01*
X155193053Y-97937109D01*
X155274542Y-98089564D01*
X155384208Y-98223192D01*
X155498952Y-98317361D01*
X155491144Y-98320595D01*
X155321626Y-98433863D01*
X155177463Y-98578026D01*
X155064195Y-98747544D01*
X154986174Y-98935902D01*
X154946400Y-99135861D01*
X154946400Y-99339739D01*
X154986174Y-99539698D01*
X155064195Y-99728056D01*
X155177463Y-99897574D01*
X155321626Y-100041737D01*
X155491144Y-100155005D01*
X155679502Y-100233026D01*
X155879461Y-100272800D01*
X156083339Y-100272800D01*
X156283298Y-100233026D01*
X156471656Y-100155005D01*
X156641174Y-100041737D01*
X156785337Y-99897574D01*
X156898605Y-99728056D01*
X156976626Y-99539698D01*
X157016400Y-99339739D01*
X157016400Y-99280093D01*
X157098974Y-99179476D01*
X157169546Y-99047447D01*
X157213003Y-98904186D01*
X157224000Y-98792533D01*
X157224000Y-98792524D01*
X157227676Y-98755201D01*
X157224000Y-98717878D01*
X157224000Y-98424573D01*
X157257709Y-98414347D01*
X157410164Y-98332858D01*
X157543792Y-98223192D01*
X157653458Y-98089564D01*
X157708097Y-97987342D01*
X157740463Y-98047894D01*
X157819815Y-98144585D01*
X157916506Y-98223937D01*
X158026820Y-98282902D01*
X158146518Y-98319212D01*
X158271000Y-98331472D01*
X158291000Y-98331472D01*
X158291001Y-99093199D01*
X154686978Y-102697223D01*
X154530637Y-102463241D01*
X154330759Y-102263363D01*
X154098241Y-102108000D01*
X154330759Y-101952637D01*
X154530637Y-101752759D01*
X154687680Y-101517727D01*
X154795853Y-101256574D01*
X154851000Y-100979335D01*
X154851000Y-100696665D01*
X154795853Y-100419426D01*
X154687680Y-100158273D01*
X154530637Y-99923241D01*
X154330759Y-99723363D01*
X154098241Y-99568000D01*
X154330759Y-99412637D01*
X154530637Y-99212759D01*
X154687680Y-98977727D01*
X154795853Y-98716574D01*
X154851000Y-98439335D01*
X154851000Y-98156665D01*
X154795853Y-97879426D01*
X154687680Y-97618273D01*
X154530637Y-97383241D01*
X154330759Y-97183363D01*
X154098241Y-97028000D01*
X154330759Y-96872637D01*
X154530637Y-96672759D01*
X154687680Y-96437727D01*
X154795853Y-96176574D01*
X154851000Y-95899335D01*
X154851000Y-95616665D01*
X154795853Y-95339426D01*
X154687680Y-95078273D01*
X154630970Y-94993400D01*
X155125928Y-94993400D01*
X155129000Y-95195150D01*
X155287750Y-95353900D01*
X156337000Y-95353900D01*
X156337000Y-94517150D01*
X156178250Y-94358400D01*
X155764000Y-94355328D01*
X155639518Y-94367588D01*
X155519820Y-94403898D01*
X155409506Y-94462863D01*
X155312815Y-94542215D01*
X155233463Y-94638906D01*
X155174498Y-94749220D01*
X155138188Y-94868918D01*
X155125928Y-94993400D01*
X154630970Y-94993400D01*
X154530637Y-94843241D01*
X154330759Y-94643363D01*
X154098241Y-94488000D01*
X154330759Y-94332637D01*
X154530637Y-94132759D01*
X154687680Y-93897727D01*
X154795853Y-93636574D01*
X154851000Y-93359335D01*
X154851000Y-93076665D01*
X154795853Y-92799426D01*
X154687680Y-92538273D01*
X154530637Y-92303241D01*
X154330759Y-92103363D01*
X154095727Y-91946320D01*
X153834574Y-91838147D01*
X153557335Y-91783000D01*
X153274665Y-91783000D01*
X152997426Y-91838147D01*
X152736273Y-91946320D01*
X152501241Y-92103363D01*
X152301363Y-92303241D01*
X152144320Y-92538273D01*
X152036147Y-92799426D01*
X151981000Y-93076665D01*
X151981000Y-93359335D01*
X152036147Y-93636574D01*
X152144320Y-93897727D01*
X152301363Y-94132759D01*
X152501241Y-94332637D01*
X152733759Y-94488000D01*
X152501241Y-94643363D01*
X152301363Y-94843241D01*
X152144320Y-95078273D01*
X152036147Y-95339426D01*
X151981000Y-95616665D01*
X151981000Y-95899335D01*
X152036147Y-96176574D01*
X152144320Y-96437727D01*
X152301363Y-96672759D01*
X152501241Y-96872637D01*
X152733759Y-97028000D01*
X152501241Y-97183363D01*
X152301363Y-97383241D01*
X152144320Y-97618273D01*
X152036147Y-97879426D01*
X151981000Y-98156665D01*
X151981000Y-98328199D01*
X151763000Y-98110199D01*
X151763000Y-91541173D01*
X151796709Y-91530947D01*
X151949164Y-91449458D01*
X152082792Y-91339792D01*
X152192458Y-91206164D01*
X152273947Y-91053709D01*
X152324128Y-90888285D01*
X152341072Y-90716250D01*
X152341072Y-90228750D01*
X152324128Y-90056715D01*
X152273947Y-89891291D01*
X152192458Y-89738836D01*
X152082792Y-89605208D01*
X152076436Y-89599992D01*
X152154185Y-89536185D01*
X152233537Y-89439494D01*
X152292502Y-89329180D01*
X152328812Y-89209482D01*
X152341072Y-89085000D01*
X152338000Y-88883250D01*
X152179250Y-88724500D01*
X151130000Y-88724500D01*
X151130000Y-88744500D01*
X150876000Y-88744500D01*
X150876000Y-88724500D01*
X150856000Y-88724500D01*
X150856000Y-88470500D01*
X150876000Y-88470500D01*
X150876000Y-87633750D01*
X151130000Y-87633750D01*
X151130000Y-88470500D01*
X152179250Y-88470500D01*
X152338000Y-88311750D01*
X152341072Y-88110000D01*
X152328812Y-87985518D01*
X152292502Y-87865820D01*
X152233537Y-87755506D01*
X152154185Y-87658815D01*
X152057494Y-87579463D01*
X151947180Y-87520498D01*
X151827482Y-87484188D01*
X151703000Y-87471928D01*
X151288750Y-87475000D01*
X151130000Y-87633750D01*
X150876000Y-87633750D01*
X150717250Y-87475000D01*
X150303000Y-87471928D01*
X150178518Y-87484188D01*
X150058820Y-87520498D01*
X149948506Y-87579463D01*
X149851815Y-87658815D01*
X149772463Y-87755506D01*
X149713498Y-87865820D01*
X149691782Y-87937407D01*
X149652458Y-87863836D01*
X149542792Y-87730208D01*
X149409164Y-87620542D01*
X149256709Y-87539053D01*
X149091285Y-87488872D01*
X148919250Y-87471928D01*
X148412229Y-87471928D01*
X148059304Y-87119002D01*
X148035501Y-87089999D01*
X147919776Y-86995026D01*
X147787747Y-86924454D01*
X147644486Y-86880997D01*
X147532833Y-86870000D01*
X147532822Y-86870000D01*
X147513842Y-86868131D01*
X147471774Y-86826063D01*
X147302256Y-86712795D01*
X147113898Y-86634774D01*
X146913939Y-86595000D01*
X146710061Y-86595000D01*
X146510102Y-86634774D01*
X146321744Y-86712795D01*
X146152226Y-86826063D01*
X146008063Y-86970226D01*
X145894795Y-87139744D01*
X145816774Y-87328102D01*
X145777000Y-87528061D01*
X145777000Y-87731939D01*
X145816774Y-87931898D01*
X145894795Y-88120256D01*
X146008063Y-88289774D01*
X146152226Y-88433937D01*
X146321744Y-88547205D01*
X146510102Y-88625226D01*
X146710061Y-88665000D01*
X146913939Y-88665000D01*
X147113898Y-88625226D01*
X147124928Y-88620657D01*
X147124928Y-88841250D01*
X147141872Y-89013285D01*
X147192053Y-89178709D01*
X147273542Y-89331164D01*
X147383208Y-89464792D01*
X147468756Y-89535000D01*
X147383208Y-89605208D01*
X147273542Y-89738836D01*
X147192053Y-89891291D01*
X147141872Y-90056715D01*
X147124928Y-90228750D01*
X147124928Y-90716250D01*
X147141872Y-90888285D01*
X147192053Y-91053709D01*
X147273542Y-91206164D01*
X147383208Y-91339792D01*
X147516836Y-91449458D01*
X147669291Y-91530947D01*
X147834715Y-91581128D01*
X148006750Y-91598072D01*
X148919250Y-91598072D01*
X149091285Y-91581128D01*
X149256709Y-91530947D01*
X149409164Y-91449458D01*
X149542792Y-91339792D01*
X149630845Y-91232500D01*
X149835155Y-91232500D01*
X149923208Y-91339792D01*
X150056836Y-91449458D01*
X150209291Y-91530947D01*
X150243000Y-91541173D01*
X150243001Y-98387668D01*
X150239324Y-98425000D01*
X150243001Y-98462333D01*
X150253998Y-98573986D01*
X150263774Y-98606215D01*
X150297454Y-98717246D01*
X150368026Y-98849276D01*
X150439119Y-98935902D01*
X150463000Y-98965001D01*
X150491998Y-98988799D01*
X152017312Y-100514114D01*
X151981000Y-100696665D01*
X151981000Y-100979335D01*
X152036147Y-101256574D01*
X152144320Y-101517727D01*
X152301363Y-101752759D01*
X152501241Y-101952637D01*
X152733759Y-102108000D01*
X152501241Y-102263363D01*
X152301363Y-102463241D01*
X152144320Y-102698273D01*
X152036147Y-102959426D01*
X151981000Y-103236665D01*
X151981000Y-103519335D01*
X152036147Y-103796574D01*
X152134077Y-104032999D01*
X147077923Y-104032999D01*
X147175853Y-103796574D01*
X147231000Y-103519335D01*
X147231000Y-103236665D01*
X147175853Y-102959426D01*
X147067680Y-102698273D01*
X146910637Y-102463241D01*
X146710759Y-102263363D01*
X146478241Y-102108000D01*
X146710759Y-101952637D01*
X146910637Y-101752759D01*
X147067680Y-101517727D01*
X147175853Y-101256574D01*
X147231000Y-100979335D01*
X147231000Y-100696665D01*
X147175853Y-100419426D01*
X147067680Y-100158273D01*
X146910637Y-99923241D01*
X146710759Y-99723363D01*
X146478241Y-99568000D01*
X146710759Y-99412637D01*
X146910637Y-99212759D01*
X147067680Y-98977727D01*
X147175853Y-98716574D01*
X147231000Y-98439335D01*
X147231000Y-98156665D01*
X147175853Y-97879426D01*
X147067680Y-97618273D01*
X146910637Y-97383241D01*
X146710759Y-97183363D01*
X146478241Y-97028000D01*
X146710759Y-96872637D01*
X146910637Y-96672759D01*
X147067680Y-96437727D01*
X147175853Y-96176574D01*
X147231000Y-95899335D01*
X147231000Y-95616665D01*
X147175853Y-95339426D01*
X147067680Y-95078273D01*
X146910637Y-94843241D01*
X146712039Y-94644643D01*
X146720482Y-94643812D01*
X146840180Y-94607502D01*
X146950494Y-94548537D01*
X147047185Y-94469185D01*
X147126537Y-94372494D01*
X147185502Y-94262180D01*
X147221812Y-94142482D01*
X147234072Y-94018000D01*
X147234072Y-92418000D01*
X147221812Y-92293518D01*
X147185502Y-92173820D01*
X147126537Y-92063506D01*
X147047185Y-91966815D01*
X146950494Y-91887463D01*
X146840180Y-91828498D01*
X146720482Y-91792188D01*
X146596000Y-91779928D01*
X145312023Y-91779928D01*
X145231485Y-91755498D01*
X145082500Y-91740824D01*
X144933515Y-91755498D01*
X144846126Y-91782006D01*
X144848072Y-91762250D01*
X144848072Y-91274750D01*
X144831128Y-91102715D01*
X144780947Y-90937291D01*
X144699458Y-90784836D01*
X144589792Y-90651208D01*
X144456164Y-90541542D01*
X144303709Y-90460053D01*
X144138285Y-90409872D01*
X144016000Y-90397828D01*
X144016000Y-88864072D01*
X144106000Y-88864072D01*
X144230482Y-88851812D01*
X144350180Y-88815502D01*
X144460494Y-88756537D01*
X144557185Y-88677185D01*
X144636537Y-88580494D01*
X144695502Y-88470180D01*
X144731812Y-88350482D01*
X144744072Y-88226000D01*
X144744072Y-86526000D01*
X144731812Y-86401518D01*
X144695502Y-86281820D01*
X144636537Y-86171506D01*
X144557185Y-86074815D01*
X144460494Y-85995463D01*
X144350180Y-85936498D01*
X144230482Y-85900188D01*
X144106000Y-85887928D01*
X142406000Y-85887928D01*
X142281518Y-85900188D01*
X142161820Y-85936498D01*
X142051506Y-85995463D01*
X141954815Y-86074815D01*
X141875463Y-86171506D01*
X141816498Y-86281820D01*
X141794487Y-86354380D01*
X141662632Y-86222525D01*
X141419411Y-86060010D01*
X141149158Y-85948068D01*
X140862260Y-85891000D01*
X140569740Y-85891000D01*
X140282842Y-85948068D01*
X140012589Y-86060010D01*
X139769368Y-86222525D01*
X139562525Y-86429368D01*
X139446000Y-86603760D01*
X139329475Y-86429368D01*
X139122632Y-86222525D01*
X138879411Y-86060010D01*
X138609158Y-85948068D01*
X138322260Y-85891000D01*
X138029740Y-85891000D01*
X137742842Y-85948068D01*
X137472589Y-86060010D01*
X137229368Y-86222525D01*
X137022525Y-86429368D01*
X136860010Y-86672589D01*
X136748068Y-86942842D01*
X136691000Y-87229740D01*
X136691000Y-87522260D01*
X136748068Y-87809158D01*
X136860010Y-88079411D01*
X137022525Y-88322632D01*
X137229368Y-88529475D01*
X137472589Y-88691990D01*
X137742842Y-88803932D01*
X138029740Y-88861000D01*
X138322260Y-88861000D01*
X138609158Y-88803932D01*
X138879411Y-88691990D01*
X139122632Y-88529475D01*
X139329475Y-88322632D01*
X139446000Y-88148240D01*
X139562525Y-88322632D01*
X139769368Y-88529475D01*
X140012589Y-88691990D01*
X140282842Y-88803932D01*
X140569740Y-88861000D01*
X140862260Y-88861000D01*
X141149158Y-88803932D01*
X141419411Y-88691990D01*
X141662632Y-88529475D01*
X141794487Y-88397620D01*
X141816498Y-88470180D01*
X141875463Y-88580494D01*
X141954815Y-88677185D01*
X142051506Y-88756537D01*
X142161820Y-88815502D01*
X142281518Y-88851812D01*
X142406000Y-88864072D01*
X142496000Y-88864072D01*
X142496001Y-90597213D01*
X142430208Y-90651208D01*
X142359844Y-90736947D01*
X142327537Y-90676506D01*
X142248185Y-90579815D01*
X142151494Y-90500463D01*
X142041180Y-90441498D01*
X141921482Y-90405188D01*
X141797000Y-90392928D01*
X141382750Y-90396000D01*
X141224000Y-90554750D01*
X141224000Y-91391500D01*
X141244000Y-91391500D01*
X141244000Y-91645500D01*
X141224000Y-91645500D01*
X141224000Y-91665500D01*
X140970000Y-91665500D01*
X140970000Y-91645500D01*
X139920750Y-91645500D01*
X139890500Y-91675750D01*
X139860250Y-91645500D01*
X138811000Y-91645500D01*
X138811000Y-91665500D01*
X138557000Y-91665500D01*
X138557000Y-91645500D01*
X137507750Y-91645500D01*
X137349000Y-91804250D01*
X137345928Y-92006000D01*
X137358188Y-92130482D01*
X137394498Y-92250180D01*
X137453463Y-92360494D01*
X137532815Y-92457185D01*
X137610564Y-92520992D01*
X137604208Y-92526208D01*
X137494542Y-92659836D01*
X137413053Y-92812291D01*
X137362872Y-92977715D01*
X137345928Y-93149750D01*
X137345928Y-93637250D01*
X137362872Y-93809285D01*
X137413053Y-93974709D01*
X137494542Y-94127164D01*
X137604208Y-94260792D01*
X137737836Y-94370458D01*
X137890291Y-94451947D01*
X138055715Y-94502128D01*
X138227750Y-94519072D01*
X139137048Y-94519072D01*
X139133000Y-94560168D01*
X139133000Y-94560178D01*
X139129324Y-94597500D01*
X139133000Y-94634823D01*
X139133001Y-97600532D01*
X139116815Y-97613815D01*
X139037463Y-97710506D01*
X138978498Y-97820820D01*
X138942188Y-97940518D01*
X138929928Y-98065000D01*
X138929928Y-99125000D01*
X138935345Y-99179999D01*
X137262746Y-99179999D01*
X137274072Y-99065000D01*
X137274072Y-98665000D01*
X137257969Y-98501500D01*
X137210278Y-98344284D01*
X137132831Y-98199392D01*
X137028606Y-98072394D01*
X136901608Y-97968169D01*
X136756716Y-97890722D01*
X136599500Y-97843031D01*
X136436000Y-97826928D01*
X135687100Y-97826928D01*
X135687100Y-96646445D01*
X135794392Y-96558392D01*
X135864600Y-96472844D01*
X135934808Y-96558392D01*
X136068436Y-96668058D01*
X136220891Y-96749547D01*
X136386315Y-96799728D01*
X136558350Y-96816672D01*
X136635871Y-96816672D01*
X137014000Y-97194802D01*
X137014000Y-97256939D01*
X137053774Y-97456898D01*
X137131795Y-97645256D01*
X137245063Y-97814774D01*
X137389226Y-97958937D01*
X137558744Y-98072205D01*
X137747102Y-98150226D01*
X137947061Y-98190000D01*
X138150939Y-98190000D01*
X138350898Y-98150226D01*
X138539256Y-98072205D01*
X138708774Y-97958937D01*
X138852937Y-97814774D01*
X138966205Y-97645256D01*
X139044226Y-97456898D01*
X139084000Y-97256939D01*
X139084000Y-97053061D01*
X139044226Y-96853102D01*
X138966205Y-96664744D01*
X138852937Y-96495226D01*
X138708774Y-96351063D01*
X138539256Y-96237795D01*
X138350898Y-96159774D01*
X138150939Y-96120000D01*
X138088802Y-96120000D01*
X137925518Y-95956717D01*
X137927672Y-95934850D01*
X137927672Y-95022350D01*
X137910728Y-94850315D01*
X137860547Y-94684891D01*
X137779058Y-94532436D01*
X137669392Y-94398808D01*
X137535764Y-94289142D01*
X137383309Y-94207653D01*
X137217885Y-94157472D01*
X137045850Y-94140528D01*
X136558350Y-94140528D01*
X136386315Y-94157472D01*
X136220891Y-94207653D01*
X136068436Y-94289142D01*
X135934808Y-94398808D01*
X135864600Y-94484356D01*
X135794392Y-94398808D01*
X135660764Y-94289142D01*
X135508309Y-94207653D01*
X135342885Y-94157472D01*
X135170850Y-94140528D01*
X134683350Y-94140528D01*
X134511315Y-94157472D01*
X134345891Y-94207653D01*
X134193436Y-94289142D01*
X134059808Y-94398808D01*
X133950142Y-94532436D01*
X133868653Y-94684891D01*
X133818472Y-94850315D01*
X133801528Y-95022350D01*
X133801528Y-95934850D01*
X133818472Y-96106885D01*
X133868653Y-96272309D01*
X133950142Y-96424764D01*
X134059808Y-96558392D01*
X134167100Y-96646445D01*
X134167101Y-98118768D01*
X134163424Y-98156100D01*
X134164632Y-98168365D01*
X134139169Y-98199392D01*
X134061722Y-98344284D01*
X134014031Y-98501500D01*
X133997928Y-98665000D01*
X133997928Y-99065000D01*
X134014031Y-99228500D01*
X134061722Y-99385716D01*
X134139169Y-99530608D01*
X134243394Y-99657606D01*
X134370392Y-99761831D01*
X134515284Y-99839278D01*
X134672500Y-99886969D01*
X134836000Y-99903072D01*
X135599271Y-99903072D01*
X136147199Y-100451001D01*
X136170998Y-100480000D01*
X136286723Y-100574973D01*
X136418752Y-100645545D01*
X136562013Y-100689002D01*
X136673666Y-100699999D01*
X136673675Y-100699999D01*
X136710998Y-100703675D01*
X136748321Y-100699999D01*
X139031137Y-100699999D01*
X139019833Y-100993917D01*
X138933000Y-101080750D01*
X138929928Y-101325000D01*
X138942188Y-101449482D01*
X138957835Y-101501062D01*
X138936506Y-101512463D01*
X138839815Y-101591815D01*
X138760463Y-101688506D01*
X138701498Y-101798820D01*
X138665188Y-101918518D01*
X138652928Y-102043000D01*
X138656000Y-102457250D01*
X138814750Y-102616000D01*
X139651500Y-102616000D01*
X139651500Y-102596000D01*
X139905500Y-102596000D01*
X139905500Y-102616000D01*
X139925500Y-102616000D01*
X139925500Y-102870000D01*
X139905500Y-102870000D01*
X139905500Y-103919250D01*
X140064250Y-104078000D01*
X140266000Y-104081072D01*
X140390482Y-104068812D01*
X140510180Y-104032502D01*
X140620494Y-103973537D01*
X140717185Y-103894185D01*
X140780992Y-103816436D01*
X140786208Y-103822792D01*
X140919836Y-103932458D01*
X141072291Y-104013947D01*
X141237715Y-104064128D01*
X141409750Y-104081072D01*
X141897250Y-104081072D01*
X142069285Y-104064128D01*
X142226659Y-104016389D01*
X142260774Y-104187898D01*
X142338795Y-104376256D01*
X142452063Y-104545774D01*
X142496000Y-104589711D01*
X142496001Y-105562827D01*
X142462291Y-105573053D01*
X142309836Y-105654542D01*
X142176208Y-105764208D01*
X142066542Y-105897836D01*
X141985053Y-106050291D01*
X141934872Y-106215715D01*
X141917928Y-106387750D01*
X141917928Y-106875250D01*
X141934872Y-107047285D01*
X141985053Y-107212709D01*
X142066542Y-107365164D01*
X142176208Y-107498792D01*
X142182564Y-107504008D01*
X142104815Y-107567815D01*
X142025463Y-107664506D01*
X141966498Y-107774820D01*
X141930188Y-107894518D01*
X141917928Y-108019000D01*
X141921000Y-108220750D01*
X142079750Y-108379500D01*
X143129000Y-108379500D01*
X143129000Y-108359500D01*
X143383000Y-108359500D01*
X143383000Y-108379500D01*
X143403000Y-108379500D01*
X143403000Y-108633500D01*
X143383000Y-108633500D01*
X143383000Y-109470250D01*
X143541750Y-109629000D01*
X143956000Y-109632072D01*
X144080482Y-109619812D01*
X144200180Y-109583502D01*
X144310494Y-109524537D01*
X144399000Y-109451902D01*
X144399000Y-109982000D01*
X144401440Y-110006776D01*
X144408667Y-110030601D01*
X144420403Y-110052557D01*
X144436197Y-110071803D01*
X144455443Y-110087597D01*
X144477399Y-110099333D01*
X144501224Y-110106560D01*
X144526000Y-110109000D01*
X144664151Y-110109000D01*
X144524320Y-110318273D01*
X144416147Y-110579426D01*
X144361000Y-110856665D01*
X144361000Y-111139335D01*
X144416147Y-111416574D01*
X144524320Y-111677727D01*
X144681363Y-111912759D01*
X144881241Y-112112637D01*
X145113759Y-112268000D01*
X144881241Y-112423363D01*
X144681363Y-112623241D01*
X144524320Y-112858273D01*
X144416147Y-113119426D01*
X144361000Y-113396665D01*
X144361000Y-113679335D01*
X144416147Y-113956574D01*
X144524320Y-114217727D01*
X144681363Y-114452759D01*
X144881241Y-114652637D01*
X145113759Y-114808000D01*
X144881241Y-114963363D01*
X144681363Y-115163241D01*
X144524320Y-115398273D01*
X144468745Y-115532443D01*
X144049072Y-115112771D01*
X144049072Y-114605750D01*
X144032128Y-114433715D01*
X143981947Y-114268291D01*
X143900458Y-114115836D01*
X143809959Y-114005563D01*
X143887185Y-113942185D01*
X143966537Y-113845494D01*
X144025502Y-113735180D01*
X144061812Y-113615482D01*
X144074072Y-113491000D01*
X144074072Y-112691000D01*
X144061812Y-112566518D01*
X144025502Y-112446820D01*
X143966537Y-112336506D01*
X143887185Y-112239815D01*
X143790494Y-112160463D01*
X143754082Y-112141000D01*
X143790494Y-112121537D01*
X143887185Y-112042185D01*
X143966537Y-111945494D01*
X144025502Y-111835180D01*
X144061812Y-111715482D01*
X144074072Y-111591000D01*
X144074072Y-110791000D01*
X144061812Y-110666518D01*
X144025502Y-110546820D01*
X143966537Y-110436506D01*
X143887185Y-110339815D01*
X143790494Y-110260463D01*
X143680180Y-110201498D01*
X143560482Y-110165188D01*
X143436000Y-110152928D01*
X142536000Y-110152928D01*
X142411518Y-110165188D01*
X142291820Y-110201498D01*
X142181506Y-110260463D01*
X142084815Y-110339815D01*
X142005463Y-110436506D01*
X141946498Y-110546820D01*
X141936054Y-110581250D01*
X141866578Y-110511775D01*
X141842776Y-110482772D01*
X141727051Y-110387799D01*
X141595022Y-110317227D01*
X141451761Y-110273770D01*
X141340108Y-110262773D01*
X141340097Y-110262773D01*
X141302775Y-110259097D01*
X141265453Y-110262773D01*
X137911450Y-110262773D01*
X137874127Y-110259097D01*
X137836804Y-110262773D01*
X137836794Y-110262773D01*
X137725141Y-110273770D01*
X137581880Y-110317227D01*
X137459338Y-110382728D01*
X136932350Y-110382728D01*
X136760315Y-110399672D01*
X136594891Y-110449853D01*
X136442436Y-110531342D01*
X136326117Y-110626802D01*
X136279185Y-110569615D01*
X136182494Y-110490263D01*
X136072180Y-110431298D01*
X135952482Y-110394988D01*
X135828000Y-110382728D01*
X135413750Y-110385800D01*
X135255000Y-110544550D01*
X135255000Y-111381300D01*
X135275000Y-111381300D01*
X135275000Y-111635300D01*
X135255000Y-111635300D01*
X135255000Y-111655300D01*
X135001000Y-111655300D01*
X135001000Y-111635300D01*
X133951750Y-111635300D01*
X133793000Y-111794050D01*
X133789928Y-111995800D01*
X133802188Y-112120282D01*
X133838498Y-112239980D01*
X133897463Y-112350294D01*
X133976815Y-112446985D01*
X134054564Y-112510792D01*
X134048208Y-112516008D01*
X133938542Y-112649636D01*
X133857053Y-112802091D01*
X133806872Y-112967515D01*
X133789928Y-113139550D01*
X133789928Y-113627050D01*
X133806872Y-113799085D01*
X133857053Y-113964509D01*
X133938542Y-114116964D01*
X134048208Y-114250592D01*
X134181836Y-114360258D01*
X134334291Y-114441747D01*
X134499715Y-114491928D01*
X134671750Y-114508872D01*
X135584250Y-114508872D01*
X135756285Y-114491928D01*
X135921709Y-114441747D01*
X136074164Y-114360258D01*
X136207792Y-114250592D01*
X136258300Y-114189048D01*
X136308808Y-114250592D01*
X136442436Y-114360258D01*
X136594891Y-114441747D01*
X136760315Y-114491928D01*
X136932350Y-114508872D01*
X137844850Y-114508872D01*
X138016885Y-114491928D01*
X138182309Y-114441747D01*
X138334764Y-114360258D01*
X138468392Y-114250592D01*
X138578058Y-114116964D01*
X138659547Y-113964509D01*
X138701833Y-113825112D01*
X138704774Y-113839898D01*
X138782795Y-114028256D01*
X138896063Y-114197774D01*
X139040226Y-114341937D01*
X139209744Y-114455205D01*
X139398102Y-114533226D01*
X139598061Y-114573000D01*
X139660199Y-114573000D01*
X139922928Y-114835730D01*
X139922928Y-115518250D01*
X139939872Y-115690285D01*
X139990053Y-115855709D01*
X140071542Y-116008164D01*
X140181208Y-116141792D01*
X140314836Y-116251458D01*
X140467291Y-116332947D01*
X140632715Y-116383128D01*
X140804750Y-116400072D01*
X141101011Y-116400072D01*
X141101011Y-117482185D01*
X137914838Y-120668359D01*
X138017706Y-120543014D01*
X138155599Y-120285034D01*
X138240513Y-120005111D01*
X138269185Y-119714000D01*
X138240513Y-119422889D01*
X138155599Y-119142966D01*
X138017706Y-118884986D01*
X137832134Y-118658866D01*
X137606014Y-118473294D01*
X137348034Y-118335401D01*
X137068111Y-118250487D01*
X136849950Y-118229000D01*
X136454050Y-118229000D01*
X136235889Y-118250487D01*
X135955966Y-118335401D01*
X135697986Y-118473294D01*
X135471866Y-118658866D01*
X135286294Y-118884986D01*
X135148401Y-119142966D01*
X135063487Y-119422889D01*
X135034815Y-119714000D01*
X135063487Y-120005111D01*
X135148401Y-120285034D01*
X135286294Y-120543014D01*
X135471866Y-120769134D01*
X135697986Y-120954706D01*
X135723722Y-120968462D01*
X135517571Y-121124951D01*
X135324504Y-121342807D01*
X135177648Y-121594142D01*
X135085524Y-121857110D01*
X135206845Y-122087000D01*
X136525000Y-122087000D01*
X136525000Y-122067000D01*
X136779000Y-122067000D01*
X136779000Y-122087000D01*
X136799000Y-122087000D01*
X136799000Y-122341000D01*
X136779000Y-122341000D01*
X136779000Y-122361000D01*
X136525000Y-122361000D01*
X136525000Y-122341000D01*
X135206845Y-122341000D01*
X135085524Y-122570890D01*
X135177648Y-122833858D01*
X135324504Y-123085193D01*
X135517571Y-123303049D01*
X135538961Y-123319286D01*
X135433614Y-123375595D01*
X135299038Y-123486038D01*
X135188595Y-123620614D01*
X135106528Y-123774150D01*
X135055992Y-123940746D01*
X135038928Y-124114000D01*
X135038928Y-125314000D01*
X135055992Y-125487254D01*
X135106528Y-125653850D01*
X135188595Y-125807386D01*
X135299038Y-125941962D01*
X135433614Y-126052405D01*
X135587150Y-126134472D01*
X135753746Y-126185008D01*
X135927000Y-126202072D01*
X137377000Y-126202072D01*
X137550254Y-126185008D01*
X137716850Y-126134472D01*
X137870386Y-126052405D01*
X138004962Y-125941962D01*
X138115405Y-125807386D01*
X138197472Y-125653850D01*
X138248008Y-125487254D01*
X138265072Y-125314000D01*
X138265072Y-124175730D01*
X138463013Y-123977789D01*
X138492011Y-123953991D01*
X138586984Y-123838266D01*
X138657556Y-123706237D01*
X138701013Y-123562976D01*
X138712010Y-123451323D01*
X138712010Y-123451315D01*
X138715686Y-123413990D01*
X138712010Y-123376665D01*
X138712010Y-122020789D01*
X140306637Y-120426163D01*
X140330374Y-120545498D01*
X140408395Y-120733856D01*
X140521663Y-120903374D01*
X140665826Y-121047537D01*
X140835344Y-121160805D01*
X141023702Y-121238826D01*
X141223661Y-121278600D01*
X141282805Y-121278600D01*
X141343646Y-121328531D01*
X141386223Y-121363474D01*
X141480267Y-121413742D01*
X141518253Y-121434046D01*
X141661514Y-121477503D01*
X141773167Y-121488500D01*
X141773176Y-121488500D01*
X141810499Y-121492176D01*
X141847822Y-121488500D01*
X141961155Y-121488500D01*
X142049208Y-121595792D01*
X142134756Y-121666000D01*
X142049208Y-121736208D01*
X141939542Y-121869836D01*
X141858053Y-122022291D01*
X141807872Y-122187715D01*
X141790928Y-122359750D01*
X141790928Y-122847250D01*
X141807872Y-123019285D01*
X141858053Y-123184709D01*
X141939542Y-123337164D01*
X142049208Y-123470792D01*
X142093937Y-123507500D01*
X142049208Y-123544208D01*
X141939542Y-123677836D01*
X141858053Y-123830291D01*
X141807872Y-123995715D01*
X141790928Y-124167750D01*
X141790928Y-124655250D01*
X141807872Y-124827285D01*
X141858053Y-124992709D01*
X141939542Y-125145164D01*
X142049208Y-125278792D01*
X142134756Y-125349000D01*
X142049208Y-125419208D01*
X141939542Y-125552836D01*
X141858053Y-125705291D01*
X141807872Y-125870715D01*
X141790928Y-126042750D01*
X141790928Y-126530250D01*
X141807872Y-126702285D01*
X141858053Y-126867709D01*
X141939542Y-127020164D01*
X142049208Y-127153792D01*
X142182836Y-127263458D01*
X142335291Y-127344947D01*
X142500715Y-127395128D01*
X142672750Y-127412072D01*
X143585250Y-127412072D01*
X143757285Y-127395128D01*
X143922709Y-127344947D01*
X144075164Y-127263458D01*
X144208792Y-127153792D01*
X144318458Y-127020164D01*
X144399947Y-126867709D01*
X144443767Y-126723255D01*
X144524320Y-126917727D01*
X144681363Y-127152759D01*
X144881241Y-127352637D01*
X145116273Y-127509680D01*
X145377426Y-127617853D01*
X145654665Y-127673000D01*
X145937335Y-127673000D01*
X146214574Y-127617853D01*
X146475727Y-127509680D01*
X146710759Y-127352637D01*
X146910637Y-127152759D01*
X147067680Y-126917727D01*
X147175853Y-126656574D01*
X147231000Y-126379335D01*
X147231000Y-126096665D01*
X147175853Y-125819426D01*
X147067680Y-125558273D01*
X146910637Y-125323241D01*
X146710759Y-125123363D01*
X146478241Y-124968000D01*
X146710759Y-124812637D01*
X146910637Y-124612759D01*
X147067680Y-124377727D01*
X147175853Y-124116574D01*
X147231000Y-123839335D01*
X147231000Y-123556665D01*
X147175853Y-123279426D01*
X147067680Y-123018273D01*
X146910637Y-122783241D01*
X146710759Y-122583363D01*
X146478241Y-122428000D01*
X146710759Y-122272637D01*
X146910637Y-122072759D01*
X147067680Y-121837727D01*
X147175853Y-121576574D01*
X147231000Y-121299335D01*
X147231000Y-121016665D01*
X147175853Y-120739426D01*
X147067680Y-120478273D01*
X146910637Y-120243241D01*
X146710759Y-120043363D01*
X146478241Y-119888000D01*
X146710759Y-119732637D01*
X146910637Y-119532759D01*
X147067680Y-119297727D01*
X147175853Y-119036574D01*
X147231000Y-118759335D01*
X147231000Y-118476665D01*
X147175853Y-118199426D01*
X147067680Y-117938273D01*
X146910637Y-117703241D01*
X146710759Y-117503363D01*
X146478241Y-117348000D01*
X146710759Y-117192637D01*
X146910637Y-116992759D01*
X147067680Y-116757727D01*
X147175853Y-116496574D01*
X147231000Y-116219335D01*
X147231000Y-115936665D01*
X147175853Y-115659426D01*
X147067680Y-115398273D01*
X146910637Y-115163241D01*
X146710759Y-114963363D01*
X146478241Y-114808000D01*
X146710759Y-114652637D01*
X146910637Y-114452759D01*
X147067680Y-114217727D01*
X147175853Y-113956574D01*
X147231000Y-113679335D01*
X147231000Y-113396665D01*
X147175853Y-113119426D01*
X147067680Y-112858273D01*
X146910637Y-112623241D01*
X146710759Y-112423363D01*
X146478241Y-112268000D01*
X146710759Y-112112637D01*
X146910637Y-111912759D01*
X147067680Y-111677727D01*
X147175853Y-111416574D01*
X147231000Y-111139335D01*
X147231000Y-110856665D01*
X147175853Y-110579426D01*
X147067680Y-110318273D01*
X146910637Y-110083241D01*
X146900373Y-110072977D01*
X146901803Y-110071803D01*
X146917597Y-110052557D01*
X146929333Y-110030601D01*
X146936560Y-110006776D01*
X146939000Y-109982000D01*
X146939000Y-109314188D01*
X147027037Y-109195420D01*
X147147246Y-108941087D01*
X147187904Y-108807039D01*
X147065915Y-108585000D01*
X146939000Y-108585000D01*
X146939000Y-108331000D01*
X147065915Y-108331000D01*
X147187904Y-108108961D01*
X147147246Y-107974913D01*
X147027037Y-107720580D01*
X146939000Y-107601812D01*
X146939000Y-107315000D01*
X146936560Y-107290224D01*
X146929333Y-107266399D01*
X146917597Y-107244443D01*
X146901803Y-107225197D01*
X146882557Y-107209403D01*
X146860601Y-107197667D01*
X146836776Y-107190440D01*
X146812000Y-107188000D01*
X146478241Y-107188000D01*
X146710759Y-107032637D01*
X146910637Y-106832759D01*
X147067680Y-106597727D01*
X147175853Y-106336574D01*
X147231000Y-106059335D01*
X147231000Y-105776665D01*
X147194688Y-105594114D01*
X147235803Y-105552999D01*
X152025491Y-105552999D01*
X151981000Y-105776665D01*
X151981000Y-106059335D01*
X152036147Y-106336574D01*
X152144320Y-106597727D01*
X152301363Y-106832759D01*
X152501241Y-107032637D01*
X152733759Y-107188000D01*
X152501241Y-107343363D01*
X152301363Y-107543241D01*
X152144320Y-107778273D01*
X152036147Y-108039426D01*
X151981000Y-108316665D01*
X151981000Y-108599335D01*
X152036147Y-108876574D01*
X152144320Y-109137727D01*
X152301363Y-109372759D01*
X152501241Y-109572637D01*
X152733759Y-109728000D01*
X152501241Y-109883363D01*
X152301363Y-110083241D01*
X152144320Y-110318273D01*
X152036147Y-110579426D01*
X151981000Y-110856665D01*
X151981000Y-111139335D01*
X152036147Y-111416574D01*
X152144320Y-111677727D01*
X152301363Y-111912759D01*
X152501241Y-112112637D01*
X152733759Y-112268000D01*
X152501241Y-112423363D01*
X152301363Y-112623241D01*
X152144320Y-112858273D01*
X152036147Y-113119426D01*
X151981000Y-113396665D01*
X151981000Y-113679335D01*
X152036147Y-113956574D01*
X152144320Y-114217727D01*
X152301363Y-114452759D01*
X152501241Y-114652637D01*
X152733759Y-114808000D01*
X152501241Y-114963363D01*
X152301363Y-115163241D01*
X152144320Y-115398273D01*
X152036147Y-115659426D01*
X151981000Y-115936665D01*
X151981000Y-116219335D01*
X152036147Y-116496574D01*
X152144320Y-116757727D01*
X152301363Y-116992759D01*
X152501241Y-117192637D01*
X152733759Y-117348000D01*
X152501241Y-117503363D01*
X152301363Y-117703241D01*
X152144320Y-117938273D01*
X152036147Y-118199426D01*
X151981000Y-118476665D01*
X151981000Y-118759335D01*
X152036147Y-119036574D01*
X152144320Y-119297727D01*
X152301363Y-119532759D01*
X152501241Y-119732637D01*
X152733759Y-119888000D01*
X152501241Y-120043363D01*
X152301363Y-120243241D01*
X152144320Y-120478273D01*
X152036147Y-120739426D01*
X151981000Y-121016665D01*
X151981000Y-121299335D01*
X152036147Y-121576574D01*
X152144320Y-121837727D01*
X152301363Y-122072759D01*
X152501241Y-122272637D01*
X152733759Y-122428000D01*
X152501241Y-122583363D01*
X152301363Y-122783241D01*
X152144320Y-123018273D01*
X152036147Y-123279426D01*
X151981000Y-123556665D01*
X151981000Y-123839335D01*
X152036147Y-124116574D01*
X152144320Y-124377727D01*
X152301363Y-124612759D01*
X152501241Y-124812637D01*
X152733759Y-124968000D01*
X152501241Y-125123363D01*
X152301363Y-125323241D01*
X152144320Y-125558273D01*
X152036147Y-125819426D01*
X151981000Y-126096665D01*
X151981000Y-126379335D01*
X152036147Y-126656574D01*
X152144320Y-126917727D01*
X152301363Y-127152759D01*
X152501241Y-127352637D01*
X152736273Y-127509680D01*
X152997426Y-127617853D01*
X153274665Y-127673000D01*
X153557335Y-127673000D01*
X153834574Y-127617853D01*
X154095727Y-127509680D01*
X154330759Y-127352637D01*
X154530637Y-127152759D01*
X154687680Y-126917727D01*
X154795853Y-126656574D01*
X154851000Y-126379335D01*
X154851000Y-126096665D01*
X154795853Y-125819426D01*
X154687680Y-125558273D01*
X154530637Y-125323241D01*
X154330759Y-125123363D01*
X154098241Y-124968000D01*
X154330759Y-124812637D01*
X154530637Y-124612759D01*
X154687680Y-124377727D01*
X154795853Y-124116574D01*
X154851000Y-123839335D01*
X154851000Y-123556665D01*
X154795853Y-123279426D01*
X154687680Y-123018273D01*
X154530637Y-122783241D01*
X154330759Y-122583363D01*
X154098241Y-122428000D01*
X154330759Y-122272637D01*
X154530637Y-122072759D01*
X154687680Y-121837727D01*
X154795853Y-121576574D01*
X154851000Y-121299335D01*
X154851000Y-121016665D01*
X154795853Y-120739426D01*
X154687680Y-120478273D01*
X154530637Y-120243241D01*
X154330759Y-120043363D01*
X154098241Y-119888000D01*
X154330759Y-119732637D01*
X154530637Y-119532759D01*
X154687680Y-119297727D01*
X154795853Y-119036574D01*
X154851000Y-118759335D01*
X154851000Y-118476665D01*
X154795853Y-118199426D01*
X154687680Y-117938273D01*
X154530637Y-117703241D01*
X154330759Y-117503363D01*
X154098241Y-117348000D01*
X154330759Y-117192637D01*
X154471508Y-117051888D01*
X154576744Y-117122205D01*
X154765102Y-117200226D01*
X154965061Y-117240000D01*
X155168939Y-117240000D01*
X155368898Y-117200226D01*
X155557256Y-117122205D01*
X155610287Y-117086771D01*
X155638208Y-117120792D01*
X155771836Y-117230458D01*
X155924291Y-117311947D01*
X156089715Y-117362128D01*
X156261750Y-117379072D01*
X157174250Y-117379072D01*
X157346285Y-117362128D01*
X157511709Y-117311947D01*
X157664164Y-117230458D01*
X157797792Y-117120792D01*
X157907458Y-116987164D01*
X157988947Y-116834709D01*
X158039128Y-116669285D01*
X158056072Y-116497250D01*
X158056072Y-116009750D01*
X158039128Y-115837715D01*
X157988947Y-115672291D01*
X157907458Y-115519836D01*
X157797792Y-115386208D01*
X157712244Y-115316000D01*
X157797792Y-115245792D01*
X157907458Y-115112164D01*
X157988947Y-114959709D01*
X158039128Y-114794285D01*
X158056072Y-114622250D01*
X158056072Y-114134750D01*
X158039128Y-113962715D01*
X157988947Y-113797291D01*
X157907458Y-113644836D01*
X157797792Y-113511208D01*
X157675689Y-113411000D01*
X157797792Y-113310792D01*
X157907458Y-113177164D01*
X157988947Y-113024709D01*
X158039128Y-112859285D01*
X158056072Y-112687250D01*
X158056072Y-112199750D01*
X158039128Y-112027715D01*
X157988947Y-111862291D01*
X157907458Y-111709836D01*
X157797792Y-111576208D01*
X157791436Y-111570992D01*
X157869185Y-111507185D01*
X157948537Y-111410494D01*
X158007502Y-111300180D01*
X158043812Y-111180482D01*
X158056072Y-111056000D01*
X158053000Y-110854250D01*
X157894250Y-110695500D01*
X156845000Y-110695500D01*
X156845000Y-110715500D01*
X156591000Y-110715500D01*
X156591000Y-110695500D01*
X155541750Y-110695500D01*
X155383000Y-110854250D01*
X155379928Y-111056000D01*
X155392188Y-111180482D01*
X155428498Y-111300180D01*
X155487463Y-111410494D01*
X155566815Y-111507185D01*
X155644564Y-111570992D01*
X155638208Y-111576208D01*
X155528542Y-111709836D01*
X155447053Y-111862291D01*
X155396872Y-112027715D01*
X155379928Y-112199750D01*
X155379928Y-112687250D01*
X155396872Y-112859285D01*
X155447053Y-113024709D01*
X155528542Y-113177164D01*
X155638208Y-113310792D01*
X155760311Y-113411000D01*
X155638208Y-113511208D01*
X155550155Y-113618500D01*
X154851000Y-113618500D01*
X154851000Y-113396665D01*
X154795853Y-113119426D01*
X154687680Y-112858273D01*
X154530637Y-112623241D01*
X154330759Y-112423363D01*
X154098241Y-112268000D01*
X154330759Y-112112637D01*
X154530637Y-111912759D01*
X154687680Y-111677727D01*
X154795853Y-111416574D01*
X154851000Y-111139335D01*
X154851000Y-110856665D01*
X154795853Y-110579426D01*
X154731716Y-110424585D01*
X155075301Y-110081000D01*
X155379928Y-110081000D01*
X155383000Y-110282750D01*
X155541750Y-110441500D01*
X156591000Y-110441500D01*
X156591000Y-109604750D01*
X156845000Y-109604750D01*
X156845000Y-110441500D01*
X157894250Y-110441500D01*
X158053000Y-110282750D01*
X158056072Y-110081000D01*
X158043812Y-109956518D01*
X158007502Y-109836820D01*
X157948537Y-109726506D01*
X157869185Y-109629815D01*
X157772494Y-109550463D01*
X157662180Y-109491498D01*
X157542482Y-109455188D01*
X157418000Y-109442928D01*
X157003750Y-109446000D01*
X156845000Y-109604750D01*
X156591000Y-109604750D01*
X156432250Y-109446000D01*
X156018000Y-109442928D01*
X155893518Y-109455188D01*
X155773820Y-109491498D01*
X155663506Y-109550463D01*
X155566815Y-109629815D01*
X155487463Y-109726506D01*
X155428498Y-109836820D01*
X155392188Y-109956518D01*
X155379928Y-110081000D01*
X155075301Y-110081000D01*
X156667230Y-108489072D01*
X157174250Y-108489072D01*
X157346285Y-108472128D01*
X157511709Y-108421947D01*
X157664164Y-108340458D01*
X157797792Y-108230792D01*
X157907458Y-108097164D01*
X157988947Y-107944709D01*
X158039128Y-107779285D01*
X158056072Y-107607250D01*
X158056072Y-107119750D01*
X158039128Y-106947715D01*
X157988947Y-106782291D01*
X157907458Y-106629836D01*
X157797792Y-106496208D01*
X157712244Y-106426000D01*
X157797792Y-106355792D01*
X157907458Y-106222164D01*
X157988947Y-106069709D01*
X158039128Y-105904285D01*
X158056072Y-105732250D01*
X158056072Y-105244750D01*
X158039128Y-105072715D01*
X157988947Y-104907291D01*
X157907458Y-104754836D01*
X157797792Y-104621208D01*
X157664164Y-104511542D01*
X157511709Y-104430053D01*
X157346285Y-104379872D01*
X157174250Y-104362928D01*
X156261750Y-104362928D01*
X156089715Y-104379872D01*
X155924291Y-104430053D01*
X155771836Y-104511542D01*
X155638208Y-104621208D01*
X155528542Y-104754836D01*
X155447053Y-104907291D01*
X155396872Y-105072715D01*
X155379928Y-105244750D01*
X155379928Y-105292270D01*
X155154199Y-105518000D01*
X155092061Y-105518000D01*
X154892102Y-105557774D01*
X154813902Y-105590166D01*
X154795853Y-105499426D01*
X154687680Y-105238273D01*
X154530637Y-105003241D01*
X154530600Y-105003204D01*
X158684796Y-100849008D01*
X158854033Y-127942718D01*
X158837709Y-128119509D01*
X158807862Y-128220000D01*
X135415505Y-128220000D01*
X135022333Y-128181449D01*
X134676365Y-128076996D01*
X134357276Y-127907333D01*
X134077219Y-127678924D01*
X133846859Y-127400466D01*
X133674973Y-127082570D01*
X133568106Y-126737340D01*
X133527000Y-126346238D01*
X133527000Y-111020800D01*
X133789928Y-111020800D01*
X133793000Y-111222550D01*
X133951750Y-111381300D01*
X135001000Y-111381300D01*
X135001000Y-110544550D01*
X134842250Y-110385800D01*
X134428000Y-110382728D01*
X134303518Y-110394988D01*
X134183820Y-110431298D01*
X134073506Y-110490263D01*
X133976815Y-110569615D01*
X133897463Y-110666306D01*
X133838498Y-110776620D01*
X133802188Y-110896318D01*
X133789928Y-111020800D01*
X133527000Y-111020800D01*
X133527000Y-108994000D01*
X141917928Y-108994000D01*
X141930188Y-109118482D01*
X141966498Y-109238180D01*
X142025463Y-109348494D01*
X142104815Y-109445185D01*
X142201506Y-109524537D01*
X142311820Y-109583502D01*
X142431518Y-109619812D01*
X142556000Y-109632072D01*
X142970250Y-109629000D01*
X143129000Y-109470250D01*
X143129000Y-108633500D01*
X142079750Y-108633500D01*
X141921000Y-108792250D01*
X141917928Y-108994000D01*
X133527000Y-108994000D01*
X133527000Y-103465000D01*
X133997928Y-103465000D01*
X134010188Y-103589482D01*
X134046498Y-103709180D01*
X134105463Y-103819494D01*
X134184815Y-103916185D01*
X134281506Y-103995537D01*
X134391820Y-104054502D01*
X134511518Y-104090812D01*
X134636000Y-104103072D01*
X135350250Y-104100000D01*
X135509000Y-103941250D01*
X135509000Y-103192000D01*
X135763000Y-103192000D01*
X135763000Y-103941250D01*
X135921750Y-104100000D01*
X136636000Y-104103072D01*
X136760482Y-104090812D01*
X136880180Y-104054502D01*
X136990494Y-103995537D01*
X137087185Y-103916185D01*
X137166537Y-103819494D01*
X137225502Y-103709180D01*
X137261812Y-103589482D01*
X137274072Y-103465000D01*
X137273481Y-103443000D01*
X138652928Y-103443000D01*
X138665188Y-103567482D01*
X138701498Y-103687180D01*
X138760463Y-103797494D01*
X138839815Y-103894185D01*
X138936506Y-103973537D01*
X139046820Y-104032502D01*
X139166518Y-104068812D01*
X139291000Y-104081072D01*
X139492750Y-104078000D01*
X139651500Y-103919250D01*
X139651500Y-102870000D01*
X138814750Y-102870000D01*
X138656000Y-103028750D01*
X138652928Y-103443000D01*
X137273481Y-103443000D01*
X137271000Y-103350750D01*
X137112250Y-103192000D01*
X135763000Y-103192000D01*
X135509000Y-103192000D01*
X134159750Y-103192000D01*
X134001000Y-103350750D01*
X133997928Y-103465000D01*
X133527000Y-103465000D01*
X133527000Y-102665000D01*
X133997928Y-102665000D01*
X134001000Y-102779250D01*
X134159750Y-102938000D01*
X135509000Y-102938000D01*
X135509000Y-102188750D01*
X135763000Y-102188750D01*
X135763000Y-102938000D01*
X137112250Y-102938000D01*
X137271000Y-102779250D01*
X137274072Y-102665000D01*
X137261812Y-102540518D01*
X137225502Y-102420820D01*
X137166537Y-102310506D01*
X137087185Y-102213815D01*
X136990494Y-102134463D01*
X136880180Y-102075498D01*
X136760482Y-102039188D01*
X136636000Y-102026928D01*
X135921750Y-102030000D01*
X135763000Y-102188750D01*
X135509000Y-102188750D01*
X135350250Y-102030000D01*
X134636000Y-102026928D01*
X134511518Y-102039188D01*
X134391820Y-102075498D01*
X134281506Y-102134463D01*
X134184815Y-102213815D01*
X134105463Y-102310506D01*
X134046498Y-102420820D01*
X134010188Y-102540518D01*
X133997928Y-102665000D01*
X133527000Y-102665000D01*
X133527000Y-91031000D01*
X137345928Y-91031000D01*
X137349000Y-91232750D01*
X137507750Y-91391500D01*
X138557000Y-91391500D01*
X138557000Y-90554750D01*
X138811000Y-90554750D01*
X138811000Y-91391500D01*
X139860250Y-91391500D01*
X139890500Y-91361250D01*
X139920750Y-91391500D01*
X140970000Y-91391500D01*
X140970000Y-90554750D01*
X140811250Y-90396000D01*
X140397000Y-90392928D01*
X140272518Y-90405188D01*
X140152820Y-90441498D01*
X140042506Y-90500463D01*
X139945815Y-90579815D01*
X139890500Y-90647217D01*
X139835185Y-90579815D01*
X139738494Y-90500463D01*
X139628180Y-90441498D01*
X139508482Y-90405188D01*
X139384000Y-90392928D01*
X138969750Y-90396000D01*
X138811000Y-90554750D01*
X138557000Y-90554750D01*
X138398250Y-90396000D01*
X137984000Y-90392928D01*
X137859518Y-90405188D01*
X137739820Y-90441498D01*
X137629506Y-90500463D01*
X137532815Y-90579815D01*
X137453463Y-90676506D01*
X137394498Y-90786820D01*
X137358188Y-90906518D01*
X137345928Y-91031000D01*
X133527000Y-91031000D01*
X133527000Y-87028504D01*
X133565551Y-86635332D01*
X133670004Y-86289366D01*
X133839667Y-85970276D01*
X134068076Y-85690219D01*
X134346534Y-85459859D01*
X134664430Y-85287973D01*
X135009658Y-85181107D01*
X135400753Y-85140000D01*
X162839814Y-85140000D01*
X162843056Y-85145842D01*
G37*
X162843056Y-85145842D02*
X162894925Y-85305741D01*
X162915905Y-85478731D01*
X163044865Y-90807000D01*
X159522002Y-90807000D01*
X158624269Y-89909267D01*
X158725786Y-89855005D01*
X158860362Y-89744562D01*
X158970805Y-89609986D01*
X159025314Y-89508007D01*
X159025598Y-89508395D01*
X159240354Y-89705264D01*
X159489391Y-89856454D01*
X159763139Y-89956154D01*
X159775510Y-89958076D01*
X160005400Y-89836755D01*
X160005400Y-88493600D01*
X160259400Y-88493600D01*
X160259400Y-89836755D01*
X160489290Y-89958076D01*
X160501661Y-89956154D01*
X160775409Y-89856454D01*
X161024446Y-89705264D01*
X161239202Y-89508395D01*
X161411425Y-89273412D01*
X161534496Y-89009345D01*
X161603685Y-88726342D01*
X161459632Y-88493600D01*
X160259400Y-88493600D01*
X160005400Y-88493600D01*
X159985400Y-88493600D01*
X159985400Y-88239600D01*
X160005400Y-88239600D01*
X160005400Y-86896445D01*
X160259400Y-86896445D01*
X160259400Y-88239600D01*
X161459632Y-88239600D01*
X161603685Y-88006858D01*
X161534496Y-87723855D01*
X161411425Y-87459788D01*
X161239202Y-87224805D01*
X161024446Y-87027936D01*
X160775409Y-86876746D01*
X160501661Y-86777046D01*
X160489290Y-86775124D01*
X160259400Y-86896445D01*
X160005400Y-86896445D01*
X159775510Y-86775124D01*
X159763139Y-86777046D01*
X159489391Y-86876746D01*
X159240354Y-87027936D01*
X159025598Y-87224805D01*
X159025314Y-87225193D01*
X158970805Y-87123214D01*
X158860362Y-86988638D01*
X158725786Y-86878195D01*
X158572250Y-86796128D01*
X158405654Y-86745592D01*
X158232400Y-86728528D01*
X157032400Y-86728528D01*
X156859146Y-86745592D01*
X156692550Y-86796128D01*
X156539014Y-86878195D01*
X156404438Y-86988638D01*
X156293995Y-87123214D01*
X156211928Y-87276750D01*
X156161392Y-87443346D01*
X156144328Y-87616600D01*
X156144328Y-89116600D01*
X156161392Y-89289854D01*
X156211928Y-89456450D01*
X156293995Y-89609986D01*
X156404438Y-89744562D01*
X156539014Y-89855005D01*
X156692550Y-89937072D01*
X156859146Y-89987608D01*
X156869080Y-89988586D01*
X156868724Y-89992200D01*
X156872400Y-90029522D01*
X156872400Y-90029532D01*
X156883397Y-90141185D01*
X156909959Y-90228750D01*
X156926854Y-90284446D01*
X156997426Y-90416476D01*
X157033189Y-90460053D01*
X157092399Y-90532201D01*
X157121403Y-90556004D01*
X158643401Y-92078003D01*
X158667199Y-92107001D01*
X158696197Y-92130799D01*
X158782924Y-92201974D01*
X158914953Y-92272546D01*
X159058214Y-92316003D01*
X159207200Y-92330677D01*
X159244533Y-92327000D01*
X161085793Y-92327000D01*
X159743660Y-92353360D01*
X159731332Y-92354204D01*
X159538292Y-92376889D01*
X159514172Y-92382139D01*
X159329166Y-92441738D01*
X159306517Y-92451555D01*
X159136536Y-92545818D01*
X159116214Y-92559830D01*
X158967679Y-92685194D01*
X158950451Y-92702874D01*
X158828973Y-92854605D01*
X158815492Y-92875282D01*
X158725660Y-93047645D01*
X158716432Y-93070541D01*
X158661641Y-93257027D01*
X158657018Y-93281274D01*
X158639337Y-93474837D01*
X158638812Y-93487183D01*
X158645067Y-94488640D01*
X158463487Y-94506524D01*
X158271000Y-94505328D01*
X158146518Y-94517588D01*
X158026820Y-94553898D01*
X157916506Y-94612863D01*
X157819815Y-94692215D01*
X157758773Y-94766595D01*
X157753502Y-94749220D01*
X157694537Y-94638906D01*
X157615185Y-94542215D01*
X157518494Y-94462863D01*
X157408180Y-94403898D01*
X157288482Y-94367588D01*
X157164000Y-94355328D01*
X156749750Y-94358400D01*
X156591000Y-94517150D01*
X156591000Y-95353900D01*
X156611000Y-95353900D01*
X156611000Y-95607900D01*
X156591000Y-95607900D01*
X156591000Y-95627900D01*
X156337000Y-95627900D01*
X156337000Y-95607900D01*
X155287750Y-95607900D01*
X155129000Y-95766650D01*
X155125928Y-95968400D01*
X155138188Y-96092882D01*
X155174498Y-96212580D01*
X155233463Y-96322894D01*
X155312815Y-96419585D01*
X155390564Y-96483392D01*
X155384208Y-96488608D01*
X155274542Y-96622236D01*
X155193053Y-96774691D01*
X155142872Y-96940115D01*
X155125928Y-97112150D01*
X155125928Y-97599650D01*
X155142872Y-97771685D01*
X155193053Y-97937109D01*
X155274542Y-98089564D01*
X155384208Y-98223192D01*
X155498952Y-98317361D01*
X155491144Y-98320595D01*
X155321626Y-98433863D01*
X155177463Y-98578026D01*
X155064195Y-98747544D01*
X154986174Y-98935902D01*
X154946400Y-99135861D01*
X154946400Y-99339739D01*
X154986174Y-99539698D01*
X155064195Y-99728056D01*
X155177463Y-99897574D01*
X155321626Y-100041737D01*
X155491144Y-100155005D01*
X155679502Y-100233026D01*
X155879461Y-100272800D01*
X156083339Y-100272800D01*
X156283298Y-100233026D01*
X156471656Y-100155005D01*
X156641174Y-100041737D01*
X156785337Y-99897574D01*
X156898605Y-99728056D01*
X156976626Y-99539698D01*
X157016400Y-99339739D01*
X157016400Y-99280093D01*
X157098974Y-99179476D01*
X157169546Y-99047447D01*
X157213003Y-98904186D01*
X157224000Y-98792533D01*
X157224000Y-98792524D01*
X157227676Y-98755201D01*
X157224000Y-98717878D01*
X157224000Y-98424573D01*
X157257709Y-98414347D01*
X157410164Y-98332858D01*
X157543792Y-98223192D01*
X157653458Y-98089564D01*
X157708097Y-97987342D01*
X157740463Y-98047894D01*
X157819815Y-98144585D01*
X157916506Y-98223937D01*
X158026820Y-98282902D01*
X158146518Y-98319212D01*
X158271000Y-98331472D01*
X158291000Y-98331472D01*
X158291001Y-99093199D01*
X154686978Y-102697223D01*
X154530637Y-102463241D01*
X154330759Y-102263363D01*
X154098241Y-102108000D01*
X154330759Y-101952637D01*
X154530637Y-101752759D01*
X154687680Y-101517727D01*
X154795853Y-101256574D01*
X154851000Y-100979335D01*
X154851000Y-100696665D01*
X154795853Y-100419426D01*
X154687680Y-100158273D01*
X154530637Y-99923241D01*
X154330759Y-99723363D01*
X154098241Y-99568000D01*
X154330759Y-99412637D01*
X154530637Y-99212759D01*
X154687680Y-98977727D01*
X154795853Y-98716574D01*
X154851000Y-98439335D01*
X154851000Y-98156665D01*
X154795853Y-97879426D01*
X154687680Y-97618273D01*
X154530637Y-97383241D01*
X154330759Y-97183363D01*
X154098241Y-97028000D01*
X154330759Y-96872637D01*
X154530637Y-96672759D01*
X154687680Y-96437727D01*
X154795853Y-96176574D01*
X154851000Y-95899335D01*
X154851000Y-95616665D01*
X154795853Y-95339426D01*
X154687680Y-95078273D01*
X154630970Y-94993400D01*
X155125928Y-94993400D01*
X155129000Y-95195150D01*
X155287750Y-95353900D01*
X156337000Y-95353900D01*
X156337000Y-94517150D01*
X156178250Y-94358400D01*
X155764000Y-94355328D01*
X155639518Y-94367588D01*
X155519820Y-94403898D01*
X155409506Y-94462863D01*
X155312815Y-94542215D01*
X155233463Y-94638906D01*
X155174498Y-94749220D01*
X155138188Y-94868918D01*
X155125928Y-94993400D01*
X154630970Y-94993400D01*
X154530637Y-94843241D01*
X154330759Y-94643363D01*
X154098241Y-94488000D01*
X154330759Y-94332637D01*
X154530637Y-94132759D01*
X154687680Y-93897727D01*
X154795853Y-93636574D01*
X154851000Y-93359335D01*
X154851000Y-93076665D01*
X154795853Y-92799426D01*
X154687680Y-92538273D01*
X154530637Y-92303241D01*
X154330759Y-92103363D01*
X154095727Y-91946320D01*
X153834574Y-91838147D01*
X153557335Y-91783000D01*
X153274665Y-91783000D01*
X152997426Y-91838147D01*
X152736273Y-91946320D01*
X152501241Y-92103363D01*
X152301363Y-92303241D01*
X152144320Y-92538273D01*
X152036147Y-92799426D01*
X151981000Y-93076665D01*
X151981000Y-93359335D01*
X152036147Y-93636574D01*
X152144320Y-93897727D01*
X152301363Y-94132759D01*
X152501241Y-94332637D01*
X152733759Y-94488000D01*
X152501241Y-94643363D01*
X152301363Y-94843241D01*
X152144320Y-95078273D01*
X152036147Y-95339426D01*
X151981000Y-95616665D01*
X151981000Y-95899335D01*
X152036147Y-96176574D01*
X152144320Y-96437727D01*
X152301363Y-96672759D01*
X152501241Y-96872637D01*
X152733759Y-97028000D01*
X152501241Y-97183363D01*
X152301363Y-97383241D01*
X152144320Y-97618273D01*
X152036147Y-97879426D01*
X151981000Y-98156665D01*
X151981000Y-98328199D01*
X151763000Y-98110199D01*
X151763000Y-91541173D01*
X151796709Y-91530947D01*
X151949164Y-91449458D01*
X152082792Y-91339792D01*
X152192458Y-91206164D01*
X152273947Y-91053709D01*
X152324128Y-90888285D01*
X152341072Y-90716250D01*
X152341072Y-90228750D01*
X152324128Y-90056715D01*
X152273947Y-89891291D01*
X152192458Y-89738836D01*
X152082792Y-89605208D01*
X152076436Y-89599992D01*
X152154185Y-89536185D01*
X152233537Y-89439494D01*
X152292502Y-89329180D01*
X152328812Y-89209482D01*
X152341072Y-89085000D01*
X152338000Y-88883250D01*
X152179250Y-88724500D01*
X151130000Y-88724500D01*
X151130000Y-88744500D01*
X150876000Y-88744500D01*
X150876000Y-88724500D01*
X150856000Y-88724500D01*
X150856000Y-88470500D01*
X150876000Y-88470500D01*
X150876000Y-87633750D01*
X151130000Y-87633750D01*
X151130000Y-88470500D01*
X152179250Y-88470500D01*
X152338000Y-88311750D01*
X152341072Y-88110000D01*
X152328812Y-87985518D01*
X152292502Y-87865820D01*
X152233537Y-87755506D01*
X152154185Y-87658815D01*
X152057494Y-87579463D01*
X151947180Y-87520498D01*
X151827482Y-87484188D01*
X151703000Y-87471928D01*
X151288750Y-87475000D01*
X151130000Y-87633750D01*
X150876000Y-87633750D01*
X150717250Y-87475000D01*
X150303000Y-87471928D01*
X150178518Y-87484188D01*
X150058820Y-87520498D01*
X149948506Y-87579463D01*
X149851815Y-87658815D01*
X149772463Y-87755506D01*
X149713498Y-87865820D01*
X149691782Y-87937407D01*
X149652458Y-87863836D01*
X149542792Y-87730208D01*
X149409164Y-87620542D01*
X149256709Y-87539053D01*
X149091285Y-87488872D01*
X148919250Y-87471928D01*
X148412229Y-87471928D01*
X148059304Y-87119002D01*
X148035501Y-87089999D01*
X147919776Y-86995026D01*
X147787747Y-86924454D01*
X147644486Y-86880997D01*
X147532833Y-86870000D01*
X147532822Y-86870000D01*
X147513842Y-86868131D01*
X147471774Y-86826063D01*
X147302256Y-86712795D01*
X147113898Y-86634774D01*
X146913939Y-86595000D01*
X146710061Y-86595000D01*
X146510102Y-86634774D01*
X146321744Y-86712795D01*
X146152226Y-86826063D01*
X146008063Y-86970226D01*
X145894795Y-87139744D01*
X145816774Y-87328102D01*
X145777000Y-87528061D01*
X145777000Y-87731939D01*
X145816774Y-87931898D01*
X145894795Y-88120256D01*
X146008063Y-88289774D01*
X146152226Y-88433937D01*
X146321744Y-88547205D01*
X146510102Y-88625226D01*
X146710061Y-88665000D01*
X146913939Y-88665000D01*
X147113898Y-88625226D01*
X147124928Y-88620657D01*
X147124928Y-88841250D01*
X147141872Y-89013285D01*
X147192053Y-89178709D01*
X147273542Y-89331164D01*
X147383208Y-89464792D01*
X147468756Y-89535000D01*
X147383208Y-89605208D01*
X147273542Y-89738836D01*
X147192053Y-89891291D01*
X147141872Y-90056715D01*
X147124928Y-90228750D01*
X147124928Y-90716250D01*
X147141872Y-90888285D01*
X147192053Y-91053709D01*
X147273542Y-91206164D01*
X147383208Y-91339792D01*
X147516836Y-91449458D01*
X147669291Y-91530947D01*
X147834715Y-91581128D01*
X148006750Y-91598072D01*
X148919250Y-91598072D01*
X149091285Y-91581128D01*
X149256709Y-91530947D01*
X149409164Y-91449458D01*
X149542792Y-91339792D01*
X149630845Y-91232500D01*
X149835155Y-91232500D01*
X149923208Y-91339792D01*
X150056836Y-91449458D01*
X150209291Y-91530947D01*
X150243000Y-91541173D01*
X150243001Y-98387668D01*
X150239324Y-98425000D01*
X150243001Y-98462333D01*
X150253998Y-98573986D01*
X150263774Y-98606215D01*
X150297454Y-98717246D01*
X150368026Y-98849276D01*
X150439119Y-98935902D01*
X150463000Y-98965001D01*
X150491998Y-98988799D01*
X152017312Y-100514114D01*
X151981000Y-100696665D01*
X151981000Y-100979335D01*
X152036147Y-101256574D01*
X152144320Y-101517727D01*
X152301363Y-101752759D01*
X152501241Y-101952637D01*
X152733759Y-102108000D01*
X152501241Y-102263363D01*
X152301363Y-102463241D01*
X152144320Y-102698273D01*
X152036147Y-102959426D01*
X151981000Y-103236665D01*
X151981000Y-103519335D01*
X152036147Y-103796574D01*
X152134077Y-104032999D01*
X147077923Y-104032999D01*
X147175853Y-103796574D01*
X147231000Y-103519335D01*
X147231000Y-103236665D01*
X147175853Y-102959426D01*
X147067680Y-102698273D01*
X146910637Y-102463241D01*
X146710759Y-102263363D01*
X146478241Y-102108000D01*
X146710759Y-101952637D01*
X146910637Y-101752759D01*
X147067680Y-101517727D01*
X147175853Y-101256574D01*
X147231000Y-100979335D01*
X147231000Y-100696665D01*
X147175853Y-100419426D01*
X147067680Y-100158273D01*
X146910637Y-99923241D01*
X146710759Y-99723363D01*
X146478241Y-99568000D01*
X146710759Y-99412637D01*
X146910637Y-99212759D01*
X147067680Y-98977727D01*
X147175853Y-98716574D01*
X147231000Y-98439335D01*
X147231000Y-98156665D01*
X147175853Y-97879426D01*
X147067680Y-97618273D01*
X146910637Y-97383241D01*
X146710759Y-97183363D01*
X146478241Y-97028000D01*
X146710759Y-96872637D01*
X146910637Y-96672759D01*
X147067680Y-96437727D01*
X147175853Y-96176574D01*
X147231000Y-95899335D01*
X147231000Y-95616665D01*
X147175853Y-95339426D01*
X147067680Y-95078273D01*
X146910637Y-94843241D01*
X146712039Y-94644643D01*
X146720482Y-94643812D01*
X146840180Y-94607502D01*
X146950494Y-94548537D01*
X147047185Y-94469185D01*
X147126537Y-94372494D01*
X147185502Y-94262180D01*
X147221812Y-94142482D01*
X147234072Y-94018000D01*
X147234072Y-92418000D01*
X147221812Y-92293518D01*
X147185502Y-92173820D01*
X147126537Y-92063506D01*
X147047185Y-91966815D01*
X146950494Y-91887463D01*
X146840180Y-91828498D01*
X146720482Y-91792188D01*
X146596000Y-91779928D01*
X145312023Y-91779928D01*
X145231485Y-91755498D01*
X145082500Y-91740824D01*
X144933515Y-91755498D01*
X144846126Y-91782006D01*
X144848072Y-91762250D01*
X144848072Y-91274750D01*
X144831128Y-91102715D01*
X144780947Y-90937291D01*
X144699458Y-90784836D01*
X144589792Y-90651208D01*
X144456164Y-90541542D01*
X144303709Y-90460053D01*
X144138285Y-90409872D01*
X144016000Y-90397828D01*
X144016000Y-88864072D01*
X144106000Y-88864072D01*
X144230482Y-88851812D01*
X144350180Y-88815502D01*
X144460494Y-88756537D01*
X144557185Y-88677185D01*
X144636537Y-88580494D01*
X144695502Y-88470180D01*
X144731812Y-88350482D01*
X144744072Y-88226000D01*
X144744072Y-86526000D01*
X144731812Y-86401518D01*
X144695502Y-86281820D01*
X144636537Y-86171506D01*
X144557185Y-86074815D01*
X144460494Y-85995463D01*
X144350180Y-85936498D01*
X144230482Y-85900188D01*
X144106000Y-85887928D01*
X142406000Y-85887928D01*
X142281518Y-85900188D01*
X142161820Y-85936498D01*
X142051506Y-85995463D01*
X141954815Y-86074815D01*
X141875463Y-86171506D01*
X141816498Y-86281820D01*
X141794487Y-86354380D01*
X141662632Y-86222525D01*
X141419411Y-86060010D01*
X141149158Y-85948068D01*
X140862260Y-85891000D01*
X140569740Y-85891000D01*
X140282842Y-85948068D01*
X140012589Y-86060010D01*
X139769368Y-86222525D01*
X139562525Y-86429368D01*
X139446000Y-86603760D01*
X139329475Y-86429368D01*
X139122632Y-86222525D01*
X138879411Y-86060010D01*
X138609158Y-85948068D01*
X138322260Y-85891000D01*
X138029740Y-85891000D01*
X137742842Y-85948068D01*
X137472589Y-86060010D01*
X137229368Y-86222525D01*
X137022525Y-86429368D01*
X136860010Y-86672589D01*
X136748068Y-86942842D01*
X136691000Y-87229740D01*
X136691000Y-87522260D01*
X136748068Y-87809158D01*
X136860010Y-88079411D01*
X137022525Y-88322632D01*
X137229368Y-88529475D01*
X137472589Y-88691990D01*
X137742842Y-88803932D01*
X138029740Y-88861000D01*
X138322260Y-88861000D01*
X138609158Y-88803932D01*
X138879411Y-88691990D01*
X139122632Y-88529475D01*
X139329475Y-88322632D01*
X139446000Y-88148240D01*
X139562525Y-88322632D01*
X139769368Y-88529475D01*
X140012589Y-88691990D01*
X140282842Y-88803932D01*
X140569740Y-88861000D01*
X140862260Y-88861000D01*
X141149158Y-88803932D01*
X141419411Y-88691990D01*
X141662632Y-88529475D01*
X141794487Y-88397620D01*
X141816498Y-88470180D01*
X141875463Y-88580494D01*
X141954815Y-88677185D01*
X142051506Y-88756537D01*
X142161820Y-88815502D01*
X142281518Y-88851812D01*
X142406000Y-88864072D01*
X142496000Y-88864072D01*
X142496001Y-90597213D01*
X142430208Y-90651208D01*
X142359844Y-90736947D01*
X142327537Y-90676506D01*
X142248185Y-90579815D01*
X142151494Y-90500463D01*
X142041180Y-90441498D01*
X141921482Y-90405188D01*
X141797000Y-90392928D01*
X141382750Y-90396000D01*
X141224000Y-90554750D01*
X141224000Y-91391500D01*
X141244000Y-91391500D01*
X141244000Y-91645500D01*
X141224000Y-91645500D01*
X141224000Y-91665500D01*
X140970000Y-91665500D01*
X140970000Y-91645500D01*
X139920750Y-91645500D01*
X139890500Y-91675750D01*
X139860250Y-91645500D01*
X138811000Y-91645500D01*
X138811000Y-91665500D01*
X138557000Y-91665500D01*
X138557000Y-91645500D01*
X137507750Y-91645500D01*
X137349000Y-91804250D01*
X137345928Y-92006000D01*
X137358188Y-92130482D01*
X137394498Y-92250180D01*
X137453463Y-92360494D01*
X137532815Y-92457185D01*
X137610564Y-92520992D01*
X137604208Y-92526208D01*
X137494542Y-92659836D01*
X137413053Y-92812291D01*
X137362872Y-92977715D01*
X137345928Y-93149750D01*
X137345928Y-93637250D01*
X137362872Y-93809285D01*
X137413053Y-93974709D01*
X137494542Y-94127164D01*
X137604208Y-94260792D01*
X137737836Y-94370458D01*
X137890291Y-94451947D01*
X138055715Y-94502128D01*
X138227750Y-94519072D01*
X139137048Y-94519072D01*
X139133000Y-94560168D01*
X139133000Y-94560178D01*
X139129324Y-94597500D01*
X139133000Y-94634823D01*
X139133001Y-97600532D01*
X139116815Y-97613815D01*
X139037463Y-97710506D01*
X138978498Y-97820820D01*
X138942188Y-97940518D01*
X138929928Y-98065000D01*
X138929928Y-99125000D01*
X138935345Y-99179999D01*
X137262746Y-99179999D01*
X137274072Y-99065000D01*
X137274072Y-98665000D01*
X137257969Y-98501500D01*
X137210278Y-98344284D01*
X137132831Y-98199392D01*
X137028606Y-98072394D01*
X136901608Y-97968169D01*
X136756716Y-97890722D01*
X136599500Y-97843031D01*
X136436000Y-97826928D01*
X135687100Y-97826928D01*
X135687100Y-96646445D01*
X135794392Y-96558392D01*
X135864600Y-96472844D01*
X135934808Y-96558392D01*
X136068436Y-96668058D01*
X136220891Y-96749547D01*
X136386315Y-96799728D01*
X136558350Y-96816672D01*
X136635871Y-96816672D01*
X137014000Y-97194802D01*
X137014000Y-97256939D01*
X137053774Y-97456898D01*
X137131795Y-97645256D01*
X137245063Y-97814774D01*
X137389226Y-97958937D01*
X137558744Y-98072205D01*
X137747102Y-98150226D01*
X137947061Y-98190000D01*
X138150939Y-98190000D01*
X138350898Y-98150226D01*
X138539256Y-98072205D01*
X138708774Y-97958937D01*
X138852937Y-97814774D01*
X138966205Y-97645256D01*
X139044226Y-97456898D01*
X139084000Y-97256939D01*
X139084000Y-97053061D01*
X139044226Y-96853102D01*
X138966205Y-96664744D01*
X138852937Y-96495226D01*
X138708774Y-96351063D01*
X138539256Y-96237795D01*
X138350898Y-96159774D01*
X138150939Y-96120000D01*
X138088802Y-96120000D01*
X137925518Y-95956717D01*
X137927672Y-95934850D01*
X137927672Y-95022350D01*
X137910728Y-94850315D01*
X137860547Y-94684891D01*
X137779058Y-94532436D01*
X137669392Y-94398808D01*
X137535764Y-94289142D01*
X137383309Y-94207653D01*
X137217885Y-94157472D01*
X137045850Y-94140528D01*
X136558350Y-94140528D01*
X136386315Y-94157472D01*
X136220891Y-94207653D01*
X136068436Y-94289142D01*
X135934808Y-94398808D01*
X135864600Y-94484356D01*
X135794392Y-94398808D01*
X135660764Y-94289142D01*
X135508309Y-94207653D01*
X135342885Y-94157472D01*
X135170850Y-94140528D01*
X134683350Y-94140528D01*
X134511315Y-94157472D01*
X134345891Y-94207653D01*
X134193436Y-94289142D01*
X134059808Y-94398808D01*
X133950142Y-94532436D01*
X133868653Y-94684891D01*
X133818472Y-94850315D01*
X133801528Y-95022350D01*
X133801528Y-95934850D01*
X133818472Y-96106885D01*
X133868653Y-96272309D01*
X133950142Y-96424764D01*
X134059808Y-96558392D01*
X134167100Y-96646445D01*
X134167101Y-98118768D01*
X134163424Y-98156100D01*
X134164632Y-98168365D01*
X134139169Y-98199392D01*
X134061722Y-98344284D01*
X134014031Y-98501500D01*
X133997928Y-98665000D01*
X133997928Y-99065000D01*
X134014031Y-99228500D01*
X134061722Y-99385716D01*
X134139169Y-99530608D01*
X134243394Y-99657606D01*
X134370392Y-99761831D01*
X134515284Y-99839278D01*
X134672500Y-99886969D01*
X134836000Y-99903072D01*
X135599271Y-99903072D01*
X136147199Y-100451001D01*
X136170998Y-100480000D01*
X136286723Y-100574973D01*
X136418752Y-100645545D01*
X136562013Y-100689002D01*
X136673666Y-100699999D01*
X136673675Y-100699999D01*
X136710998Y-100703675D01*
X136748321Y-100699999D01*
X139031137Y-100699999D01*
X139019833Y-100993917D01*
X138933000Y-101080750D01*
X138929928Y-101325000D01*
X138942188Y-101449482D01*
X138957835Y-101501062D01*
X138936506Y-101512463D01*
X138839815Y-101591815D01*
X138760463Y-101688506D01*
X138701498Y-101798820D01*
X138665188Y-101918518D01*
X138652928Y-102043000D01*
X138656000Y-102457250D01*
X138814750Y-102616000D01*
X139651500Y-102616000D01*
X139651500Y-102596000D01*
X139905500Y-102596000D01*
X139905500Y-102616000D01*
X139925500Y-102616000D01*
X139925500Y-102870000D01*
X139905500Y-102870000D01*
X139905500Y-103919250D01*
X140064250Y-104078000D01*
X140266000Y-104081072D01*
X140390482Y-104068812D01*
X140510180Y-104032502D01*
X140620494Y-103973537D01*
X140717185Y-103894185D01*
X140780992Y-103816436D01*
X140786208Y-103822792D01*
X140919836Y-103932458D01*
X141072291Y-104013947D01*
X141237715Y-104064128D01*
X141409750Y-104081072D01*
X141897250Y-104081072D01*
X142069285Y-104064128D01*
X142226659Y-104016389D01*
X142260774Y-104187898D01*
X142338795Y-104376256D01*
X142452063Y-104545774D01*
X142496000Y-104589711D01*
X142496001Y-105562827D01*
X142462291Y-105573053D01*
X142309836Y-105654542D01*
X142176208Y-105764208D01*
X142066542Y-105897836D01*
X141985053Y-106050291D01*
X141934872Y-106215715D01*
X141917928Y-106387750D01*
X141917928Y-106875250D01*
X141934872Y-107047285D01*
X141985053Y-107212709D01*
X142066542Y-107365164D01*
X142176208Y-107498792D01*
X142182564Y-107504008D01*
X142104815Y-107567815D01*
X142025463Y-107664506D01*
X141966498Y-107774820D01*
X141930188Y-107894518D01*
X141917928Y-108019000D01*
X141921000Y-108220750D01*
X142079750Y-108379500D01*
X143129000Y-108379500D01*
X143129000Y-108359500D01*
X143383000Y-108359500D01*
X143383000Y-108379500D01*
X143403000Y-108379500D01*
X143403000Y-108633500D01*
X143383000Y-108633500D01*
X143383000Y-109470250D01*
X143541750Y-109629000D01*
X143956000Y-109632072D01*
X144080482Y-109619812D01*
X144200180Y-109583502D01*
X144310494Y-109524537D01*
X144399000Y-109451902D01*
X144399000Y-109982000D01*
X144401440Y-110006776D01*
X144408667Y-110030601D01*
X144420403Y-110052557D01*
X144436197Y-110071803D01*
X144455443Y-110087597D01*
X144477399Y-110099333D01*
X144501224Y-110106560D01*
X144526000Y-110109000D01*
X144664151Y-110109000D01*
X144524320Y-110318273D01*
X144416147Y-110579426D01*
X144361000Y-110856665D01*
X144361000Y-111139335D01*
X144416147Y-111416574D01*
X144524320Y-111677727D01*
X144681363Y-111912759D01*
X144881241Y-112112637D01*
X145113759Y-112268000D01*
X144881241Y-112423363D01*
X144681363Y-112623241D01*
X144524320Y-112858273D01*
X144416147Y-113119426D01*
X144361000Y-113396665D01*
X144361000Y-113679335D01*
X144416147Y-113956574D01*
X144524320Y-114217727D01*
X144681363Y-114452759D01*
X144881241Y-114652637D01*
X145113759Y-114808000D01*
X144881241Y-114963363D01*
X144681363Y-115163241D01*
X144524320Y-115398273D01*
X144468745Y-115532443D01*
X144049072Y-115112771D01*
X144049072Y-114605750D01*
X144032128Y-114433715D01*
X143981947Y-114268291D01*
X143900458Y-114115836D01*
X143809959Y-114005563D01*
X143887185Y-113942185D01*
X143966537Y-113845494D01*
X144025502Y-113735180D01*
X144061812Y-113615482D01*
X144074072Y-113491000D01*
X144074072Y-112691000D01*
X144061812Y-112566518D01*
X144025502Y-112446820D01*
X143966537Y-112336506D01*
X143887185Y-112239815D01*
X143790494Y-112160463D01*
X143754082Y-112141000D01*
X143790494Y-112121537D01*
X143887185Y-112042185D01*
X143966537Y-111945494D01*
X144025502Y-111835180D01*
X144061812Y-111715482D01*
X144074072Y-111591000D01*
X144074072Y-110791000D01*
X144061812Y-110666518D01*
X144025502Y-110546820D01*
X143966537Y-110436506D01*
X143887185Y-110339815D01*
X143790494Y-110260463D01*
X143680180Y-110201498D01*
X143560482Y-110165188D01*
X143436000Y-110152928D01*
X142536000Y-110152928D01*
X142411518Y-110165188D01*
X142291820Y-110201498D01*
X142181506Y-110260463D01*
X142084815Y-110339815D01*
X142005463Y-110436506D01*
X141946498Y-110546820D01*
X141936054Y-110581250D01*
X141866578Y-110511775D01*
X141842776Y-110482772D01*
X141727051Y-110387799D01*
X141595022Y-110317227D01*
X141451761Y-110273770D01*
X141340108Y-110262773D01*
X141340097Y-110262773D01*
X141302775Y-110259097D01*
X141265453Y-110262773D01*
X137911450Y-110262773D01*
X137874127Y-110259097D01*
X137836804Y-110262773D01*
X137836794Y-110262773D01*
X137725141Y-110273770D01*
X137581880Y-110317227D01*
X137459338Y-110382728D01*
X136932350Y-110382728D01*
X136760315Y-110399672D01*
X136594891Y-110449853D01*
X136442436Y-110531342D01*
X136326117Y-110626802D01*
X136279185Y-110569615D01*
X136182494Y-110490263D01*
X136072180Y-110431298D01*
X135952482Y-110394988D01*
X135828000Y-110382728D01*
X135413750Y-110385800D01*
X135255000Y-110544550D01*
X135255000Y-111381300D01*
X135275000Y-111381300D01*
X135275000Y-111635300D01*
X135255000Y-111635300D01*
X135255000Y-111655300D01*
X135001000Y-111655300D01*
X135001000Y-111635300D01*
X133951750Y-111635300D01*
X133793000Y-111794050D01*
X133789928Y-111995800D01*
X133802188Y-112120282D01*
X133838498Y-112239980D01*
X133897463Y-112350294D01*
X133976815Y-112446985D01*
X134054564Y-112510792D01*
X134048208Y-112516008D01*
X133938542Y-112649636D01*
X133857053Y-112802091D01*
X133806872Y-112967515D01*
X133789928Y-113139550D01*
X133789928Y-113627050D01*
X133806872Y-113799085D01*
X133857053Y-113964509D01*
X133938542Y-114116964D01*
X134048208Y-114250592D01*
X134181836Y-114360258D01*
X134334291Y-114441747D01*
X134499715Y-114491928D01*
X134671750Y-114508872D01*
X135584250Y-114508872D01*
X135756285Y-114491928D01*
X135921709Y-114441747D01*
X136074164Y-114360258D01*
X136207792Y-114250592D01*
X136258300Y-114189048D01*
X136308808Y-114250592D01*
X136442436Y-114360258D01*
X136594891Y-114441747D01*
X136760315Y-114491928D01*
X136932350Y-114508872D01*
X137844850Y-114508872D01*
X138016885Y-114491928D01*
X138182309Y-114441747D01*
X138334764Y-114360258D01*
X138468392Y-114250592D01*
X138578058Y-114116964D01*
X138659547Y-113964509D01*
X138701833Y-113825112D01*
X138704774Y-113839898D01*
X138782795Y-114028256D01*
X138896063Y-114197774D01*
X139040226Y-114341937D01*
X139209744Y-114455205D01*
X139398102Y-114533226D01*
X139598061Y-114573000D01*
X139660199Y-114573000D01*
X139922928Y-114835730D01*
X139922928Y-115518250D01*
X139939872Y-115690285D01*
X139990053Y-115855709D01*
X140071542Y-116008164D01*
X140181208Y-116141792D01*
X140314836Y-116251458D01*
X140467291Y-116332947D01*
X140632715Y-116383128D01*
X140804750Y-116400072D01*
X141101011Y-116400072D01*
X141101011Y-117482185D01*
X137914838Y-120668359D01*
X138017706Y-120543014D01*
X138155599Y-120285034D01*
X138240513Y-120005111D01*
X138269185Y-119714000D01*
X138240513Y-119422889D01*
X138155599Y-119142966D01*
X138017706Y-118884986D01*
X137832134Y-118658866D01*
X137606014Y-118473294D01*
X137348034Y-118335401D01*
X137068111Y-118250487D01*
X136849950Y-118229000D01*
X136454050Y-118229000D01*
X136235889Y-118250487D01*
X135955966Y-118335401D01*
X135697986Y-118473294D01*
X135471866Y-118658866D01*
X135286294Y-118884986D01*
X135148401Y-119142966D01*
X135063487Y-119422889D01*
X135034815Y-119714000D01*
X135063487Y-120005111D01*
X135148401Y-120285034D01*
X135286294Y-120543014D01*
X135471866Y-120769134D01*
X135697986Y-120954706D01*
X135723722Y-120968462D01*
X135517571Y-121124951D01*
X135324504Y-121342807D01*
X135177648Y-121594142D01*
X135085524Y-121857110D01*
X135206845Y-122087000D01*
X136525000Y-122087000D01*
X136525000Y-122067000D01*
X136779000Y-122067000D01*
X136779000Y-122087000D01*
X136799000Y-122087000D01*
X136799000Y-122341000D01*
X136779000Y-122341000D01*
X136779000Y-122361000D01*
X136525000Y-122361000D01*
X136525000Y-122341000D01*
X135206845Y-122341000D01*
X135085524Y-122570890D01*
X135177648Y-122833858D01*
X135324504Y-123085193D01*
X135517571Y-123303049D01*
X135538961Y-123319286D01*
X135433614Y-123375595D01*
X135299038Y-123486038D01*
X135188595Y-123620614D01*
X135106528Y-123774150D01*
X135055992Y-123940746D01*
X135038928Y-124114000D01*
X135038928Y-125314000D01*
X135055992Y-125487254D01*
X135106528Y-125653850D01*
X135188595Y-125807386D01*
X135299038Y-125941962D01*
X135433614Y-126052405D01*
X135587150Y-126134472D01*
X135753746Y-126185008D01*
X135927000Y-126202072D01*
X137377000Y-126202072D01*
X137550254Y-126185008D01*
X137716850Y-126134472D01*
X137870386Y-126052405D01*
X138004962Y-125941962D01*
X138115405Y-125807386D01*
X138197472Y-125653850D01*
X138248008Y-125487254D01*
X138265072Y-125314000D01*
X138265072Y-124175730D01*
X138463013Y-123977789D01*
X138492011Y-123953991D01*
X138586984Y-123838266D01*
X138657556Y-123706237D01*
X138701013Y-123562976D01*
X138712010Y-123451323D01*
X138712010Y-123451315D01*
X138715686Y-123413990D01*
X138712010Y-123376665D01*
X138712010Y-122020789D01*
X140306637Y-120426163D01*
X140330374Y-120545498D01*
X140408395Y-120733856D01*
X140521663Y-120903374D01*
X140665826Y-121047537D01*
X140835344Y-121160805D01*
X141023702Y-121238826D01*
X141223661Y-121278600D01*
X141282805Y-121278600D01*
X141343646Y-121328531D01*
X141386223Y-121363474D01*
X141480267Y-121413742D01*
X141518253Y-121434046D01*
X141661514Y-121477503D01*
X141773167Y-121488500D01*
X141773176Y-121488500D01*
X141810499Y-121492176D01*
X141847822Y-121488500D01*
X141961155Y-121488500D01*
X142049208Y-121595792D01*
X142134756Y-121666000D01*
X142049208Y-121736208D01*
X141939542Y-121869836D01*
X141858053Y-122022291D01*
X141807872Y-122187715D01*
X141790928Y-122359750D01*
X141790928Y-122847250D01*
X141807872Y-123019285D01*
X141858053Y-123184709D01*
X141939542Y-123337164D01*
X142049208Y-123470792D01*
X142093937Y-123507500D01*
X142049208Y-123544208D01*
X141939542Y-123677836D01*
X141858053Y-123830291D01*
X141807872Y-123995715D01*
X141790928Y-124167750D01*
X141790928Y-124655250D01*
X141807872Y-124827285D01*
X141858053Y-124992709D01*
X141939542Y-125145164D01*
X142049208Y-125278792D01*
X142134756Y-125349000D01*
X142049208Y-125419208D01*
X141939542Y-125552836D01*
X141858053Y-125705291D01*
X141807872Y-125870715D01*
X141790928Y-126042750D01*
X141790928Y-126530250D01*
X141807872Y-126702285D01*
X141858053Y-126867709D01*
X141939542Y-127020164D01*
X142049208Y-127153792D01*
X142182836Y-127263458D01*
X142335291Y-127344947D01*
X142500715Y-127395128D01*
X142672750Y-127412072D01*
X143585250Y-127412072D01*
X143757285Y-127395128D01*
X143922709Y-127344947D01*
X144075164Y-127263458D01*
X144208792Y-127153792D01*
X144318458Y-127020164D01*
X144399947Y-126867709D01*
X144443767Y-126723255D01*
X144524320Y-126917727D01*
X144681363Y-127152759D01*
X144881241Y-127352637D01*
X145116273Y-127509680D01*
X145377426Y-127617853D01*
X145654665Y-127673000D01*
X145937335Y-127673000D01*
X146214574Y-127617853D01*
X146475727Y-127509680D01*
X146710759Y-127352637D01*
X146910637Y-127152759D01*
X147067680Y-126917727D01*
X147175853Y-126656574D01*
X147231000Y-126379335D01*
X147231000Y-126096665D01*
X147175853Y-125819426D01*
X147067680Y-125558273D01*
X146910637Y-125323241D01*
X146710759Y-125123363D01*
X146478241Y-124968000D01*
X146710759Y-124812637D01*
X146910637Y-124612759D01*
X147067680Y-124377727D01*
X147175853Y-124116574D01*
X147231000Y-123839335D01*
X147231000Y-123556665D01*
X147175853Y-123279426D01*
X147067680Y-123018273D01*
X146910637Y-122783241D01*
X146710759Y-122583363D01*
X146478241Y-122428000D01*
X146710759Y-122272637D01*
X146910637Y-122072759D01*
X147067680Y-121837727D01*
X147175853Y-121576574D01*
X147231000Y-121299335D01*
X147231000Y-121016665D01*
X147175853Y-120739426D01*
X147067680Y-120478273D01*
X146910637Y-120243241D01*
X146710759Y-120043363D01*
X146478241Y-119888000D01*
X146710759Y-119732637D01*
X146910637Y-119532759D01*
X147067680Y-119297727D01*
X147175853Y-119036574D01*
X147231000Y-118759335D01*
X147231000Y-118476665D01*
X147175853Y-118199426D01*
X147067680Y-117938273D01*
X146910637Y-117703241D01*
X146710759Y-117503363D01*
X146478241Y-117348000D01*
X146710759Y-117192637D01*
X146910637Y-116992759D01*
X147067680Y-116757727D01*
X147175853Y-116496574D01*
X147231000Y-116219335D01*
X147231000Y-115936665D01*
X147175853Y-115659426D01*
X147067680Y-115398273D01*
X146910637Y-115163241D01*
X146710759Y-114963363D01*
X146478241Y-114808000D01*
X146710759Y-114652637D01*
X146910637Y-114452759D01*
X147067680Y-114217727D01*
X147175853Y-113956574D01*
X147231000Y-113679335D01*
X147231000Y-113396665D01*
X147175853Y-113119426D01*
X147067680Y-112858273D01*
X146910637Y-112623241D01*
X146710759Y-112423363D01*
X146478241Y-112268000D01*
X146710759Y-112112637D01*
X146910637Y-111912759D01*
X147067680Y-111677727D01*
X147175853Y-111416574D01*
X147231000Y-111139335D01*
X147231000Y-110856665D01*
X147175853Y-110579426D01*
X147067680Y-110318273D01*
X146910637Y-110083241D01*
X146900373Y-110072977D01*
X146901803Y-110071803D01*
X146917597Y-110052557D01*
X146929333Y-110030601D01*
X146936560Y-110006776D01*
X146939000Y-109982000D01*
X146939000Y-109314188D01*
X147027037Y-109195420D01*
X147147246Y-108941087D01*
X147187904Y-108807039D01*
X147065915Y-108585000D01*
X146939000Y-108585000D01*
X146939000Y-108331000D01*
X147065915Y-108331000D01*
X147187904Y-108108961D01*
X147147246Y-107974913D01*
X147027037Y-107720580D01*
X146939000Y-107601812D01*
X146939000Y-107315000D01*
X146936560Y-107290224D01*
X146929333Y-107266399D01*
X146917597Y-107244443D01*
X146901803Y-107225197D01*
X146882557Y-107209403D01*
X146860601Y-107197667D01*
X146836776Y-107190440D01*
X146812000Y-107188000D01*
X146478241Y-107188000D01*
X146710759Y-107032637D01*
X146910637Y-106832759D01*
X147067680Y-106597727D01*
X147175853Y-106336574D01*
X147231000Y-106059335D01*
X147231000Y-105776665D01*
X147194688Y-105594114D01*
X147235803Y-105552999D01*
X152025491Y-105552999D01*
X151981000Y-105776665D01*
X151981000Y-106059335D01*
X152036147Y-106336574D01*
X152144320Y-106597727D01*
X152301363Y-106832759D01*
X152501241Y-107032637D01*
X152733759Y-107188000D01*
X152501241Y-107343363D01*
X152301363Y-107543241D01*
X152144320Y-107778273D01*
X152036147Y-108039426D01*
X151981000Y-108316665D01*
X151981000Y-108599335D01*
X152036147Y-108876574D01*
X152144320Y-109137727D01*
X152301363Y-109372759D01*
X152501241Y-109572637D01*
X152733759Y-109728000D01*
X152501241Y-109883363D01*
X152301363Y-110083241D01*
X152144320Y-110318273D01*
X152036147Y-110579426D01*
X151981000Y-110856665D01*
X151981000Y-111139335D01*
X152036147Y-111416574D01*
X152144320Y-111677727D01*
X152301363Y-111912759D01*
X152501241Y-112112637D01*
X152733759Y-112268000D01*
X152501241Y-112423363D01*
X152301363Y-112623241D01*
X152144320Y-112858273D01*
X152036147Y-113119426D01*
X151981000Y-113396665D01*
X151981000Y-113679335D01*
X152036147Y-113956574D01*
X152144320Y-114217727D01*
X152301363Y-114452759D01*
X152501241Y-114652637D01*
X152733759Y-114808000D01*
X152501241Y-114963363D01*
X152301363Y-115163241D01*
X152144320Y-115398273D01*
X152036147Y-115659426D01*
X151981000Y-115936665D01*
X151981000Y-116219335D01*
X152036147Y-116496574D01*
X152144320Y-116757727D01*
X152301363Y-116992759D01*
X152501241Y-117192637D01*
X152733759Y-117348000D01*
X152501241Y-117503363D01*
X152301363Y-117703241D01*
X152144320Y-117938273D01*
X152036147Y-118199426D01*
X151981000Y-118476665D01*
X151981000Y-118759335D01*
X152036147Y-119036574D01*
X152144320Y-119297727D01*
X152301363Y-119532759D01*
X152501241Y-119732637D01*
X152733759Y-119888000D01*
X152501241Y-120043363D01*
X152301363Y-120243241D01*
X152144320Y-120478273D01*
X152036147Y-120739426D01*
X151981000Y-121016665D01*
X151981000Y-121299335D01*
X152036147Y-121576574D01*
X152144320Y-121837727D01*
X152301363Y-122072759D01*
X152501241Y-122272637D01*
X152733759Y-122428000D01*
X152501241Y-122583363D01*
X152301363Y-122783241D01*
X152144320Y-123018273D01*
X152036147Y-123279426D01*
X151981000Y-123556665D01*
X151981000Y-123839335D01*
X152036147Y-124116574D01*
X152144320Y-124377727D01*
X152301363Y-124612759D01*
X152501241Y-124812637D01*
X152733759Y-124968000D01*
X152501241Y-125123363D01*
X152301363Y-125323241D01*
X152144320Y-125558273D01*
X152036147Y-125819426D01*
X151981000Y-126096665D01*
X151981000Y-126379335D01*
X152036147Y-126656574D01*
X152144320Y-126917727D01*
X152301363Y-127152759D01*
X152501241Y-127352637D01*
X152736273Y-127509680D01*
X152997426Y-127617853D01*
X153274665Y-127673000D01*
X153557335Y-127673000D01*
X153834574Y-127617853D01*
X154095727Y-127509680D01*
X154330759Y-127352637D01*
X154530637Y-127152759D01*
X154687680Y-126917727D01*
X154795853Y-126656574D01*
X154851000Y-126379335D01*
X154851000Y-126096665D01*
X154795853Y-125819426D01*
X154687680Y-125558273D01*
X154530637Y-125323241D01*
X154330759Y-125123363D01*
X154098241Y-124968000D01*
X154330759Y-124812637D01*
X154530637Y-124612759D01*
X154687680Y-124377727D01*
X154795853Y-124116574D01*
X154851000Y-123839335D01*
X154851000Y-123556665D01*
X154795853Y-123279426D01*
X154687680Y-123018273D01*
X154530637Y-122783241D01*
X154330759Y-122583363D01*
X154098241Y-122428000D01*
X154330759Y-122272637D01*
X154530637Y-122072759D01*
X154687680Y-121837727D01*
X154795853Y-121576574D01*
X154851000Y-121299335D01*
X154851000Y-121016665D01*
X154795853Y-120739426D01*
X154687680Y-120478273D01*
X154530637Y-120243241D01*
X154330759Y-120043363D01*
X154098241Y-119888000D01*
X154330759Y-119732637D01*
X154530637Y-119532759D01*
X154687680Y-119297727D01*
X154795853Y-119036574D01*
X154851000Y-118759335D01*
X154851000Y-118476665D01*
X154795853Y-118199426D01*
X154687680Y-117938273D01*
X154530637Y-117703241D01*
X154330759Y-117503363D01*
X154098241Y-117348000D01*
X154330759Y-117192637D01*
X154471508Y-117051888D01*
X154576744Y-117122205D01*
X154765102Y-117200226D01*
X154965061Y-117240000D01*
X155168939Y-117240000D01*
X155368898Y-117200226D01*
X155557256Y-117122205D01*
X155610287Y-117086771D01*
X155638208Y-117120792D01*
X155771836Y-117230458D01*
X155924291Y-117311947D01*
X156089715Y-117362128D01*
X156261750Y-117379072D01*
X157174250Y-117379072D01*
X157346285Y-117362128D01*
X157511709Y-117311947D01*
X157664164Y-117230458D01*
X157797792Y-117120792D01*
X157907458Y-116987164D01*
X157988947Y-116834709D01*
X158039128Y-116669285D01*
X158056072Y-116497250D01*
X158056072Y-116009750D01*
X158039128Y-115837715D01*
X157988947Y-115672291D01*
X157907458Y-115519836D01*
X157797792Y-115386208D01*
X157712244Y-115316000D01*
X157797792Y-115245792D01*
X157907458Y-115112164D01*
X157988947Y-114959709D01*
X158039128Y-114794285D01*
X158056072Y-114622250D01*
X158056072Y-114134750D01*
X158039128Y-113962715D01*
X157988947Y-113797291D01*
X157907458Y-113644836D01*
X157797792Y-113511208D01*
X157675689Y-113411000D01*
X157797792Y-113310792D01*
X157907458Y-113177164D01*
X157988947Y-113024709D01*
X158039128Y-112859285D01*
X158056072Y-112687250D01*
X158056072Y-112199750D01*
X158039128Y-112027715D01*
X157988947Y-111862291D01*
X157907458Y-111709836D01*
X157797792Y-111576208D01*
X157791436Y-111570992D01*
X157869185Y-111507185D01*
X157948537Y-111410494D01*
X158007502Y-111300180D01*
X158043812Y-111180482D01*
X158056072Y-111056000D01*
X158053000Y-110854250D01*
X157894250Y-110695500D01*
X156845000Y-110695500D01*
X156845000Y-110715500D01*
X156591000Y-110715500D01*
X156591000Y-110695500D01*
X155541750Y-110695500D01*
X155383000Y-110854250D01*
X155379928Y-111056000D01*
X155392188Y-111180482D01*
X155428498Y-111300180D01*
X155487463Y-111410494D01*
X155566815Y-111507185D01*
X155644564Y-111570992D01*
X155638208Y-111576208D01*
X155528542Y-111709836D01*
X155447053Y-111862291D01*
X155396872Y-112027715D01*
X155379928Y-112199750D01*
X155379928Y-112687250D01*
X155396872Y-112859285D01*
X155447053Y-113024709D01*
X155528542Y-113177164D01*
X155638208Y-113310792D01*
X155760311Y-113411000D01*
X155638208Y-113511208D01*
X155550155Y-113618500D01*
X154851000Y-113618500D01*
X154851000Y-113396665D01*
X154795853Y-113119426D01*
X154687680Y-112858273D01*
X154530637Y-112623241D01*
X154330759Y-112423363D01*
X154098241Y-112268000D01*
X154330759Y-112112637D01*
X154530637Y-111912759D01*
X154687680Y-111677727D01*
X154795853Y-111416574D01*
X154851000Y-111139335D01*
X154851000Y-110856665D01*
X154795853Y-110579426D01*
X154731716Y-110424585D01*
X155075301Y-110081000D01*
X155379928Y-110081000D01*
X155383000Y-110282750D01*
X155541750Y-110441500D01*
X156591000Y-110441500D01*
X156591000Y-109604750D01*
X156845000Y-109604750D01*
X156845000Y-110441500D01*
X157894250Y-110441500D01*
X158053000Y-110282750D01*
X158056072Y-110081000D01*
X158043812Y-109956518D01*
X158007502Y-109836820D01*
X157948537Y-109726506D01*
X157869185Y-109629815D01*
X157772494Y-109550463D01*
X157662180Y-109491498D01*
X157542482Y-109455188D01*
X157418000Y-109442928D01*
X157003750Y-109446000D01*
X156845000Y-109604750D01*
X156591000Y-109604750D01*
X156432250Y-109446000D01*
X156018000Y-109442928D01*
X155893518Y-109455188D01*
X155773820Y-109491498D01*
X155663506Y-109550463D01*
X155566815Y-109629815D01*
X155487463Y-109726506D01*
X155428498Y-109836820D01*
X155392188Y-109956518D01*
X155379928Y-110081000D01*
X155075301Y-110081000D01*
X156667230Y-108489072D01*
X157174250Y-108489072D01*
X157346285Y-108472128D01*
X157511709Y-108421947D01*
X157664164Y-108340458D01*
X157797792Y-108230792D01*
X157907458Y-108097164D01*
X157988947Y-107944709D01*
X158039128Y-107779285D01*
X158056072Y-107607250D01*
X158056072Y-107119750D01*
X158039128Y-106947715D01*
X157988947Y-106782291D01*
X157907458Y-106629836D01*
X157797792Y-106496208D01*
X157712244Y-106426000D01*
X157797792Y-106355792D01*
X157907458Y-106222164D01*
X157988947Y-106069709D01*
X158039128Y-105904285D01*
X158056072Y-105732250D01*
X158056072Y-105244750D01*
X158039128Y-105072715D01*
X157988947Y-104907291D01*
X157907458Y-104754836D01*
X157797792Y-104621208D01*
X157664164Y-104511542D01*
X157511709Y-104430053D01*
X157346285Y-104379872D01*
X157174250Y-104362928D01*
X156261750Y-104362928D01*
X156089715Y-104379872D01*
X155924291Y-104430053D01*
X155771836Y-104511542D01*
X155638208Y-104621208D01*
X155528542Y-104754836D01*
X155447053Y-104907291D01*
X155396872Y-105072715D01*
X155379928Y-105244750D01*
X155379928Y-105292270D01*
X155154199Y-105518000D01*
X155092061Y-105518000D01*
X154892102Y-105557774D01*
X154813902Y-105590166D01*
X154795853Y-105499426D01*
X154687680Y-105238273D01*
X154530637Y-105003241D01*
X154530600Y-105003204D01*
X158684796Y-100849008D01*
X158854033Y-127942718D01*
X158837709Y-128119509D01*
X158807862Y-128220000D01*
X135415505Y-128220000D01*
X135022333Y-128181449D01*
X134676365Y-128076996D01*
X134357276Y-127907333D01*
X134077219Y-127678924D01*
X133846859Y-127400466D01*
X133674973Y-127082570D01*
X133568106Y-126737340D01*
X133527000Y-126346238D01*
X133527000Y-111020800D01*
X133789928Y-111020800D01*
X133793000Y-111222550D01*
X133951750Y-111381300D01*
X135001000Y-111381300D01*
X135001000Y-110544550D01*
X134842250Y-110385800D01*
X134428000Y-110382728D01*
X134303518Y-110394988D01*
X134183820Y-110431298D01*
X134073506Y-110490263D01*
X133976815Y-110569615D01*
X133897463Y-110666306D01*
X133838498Y-110776620D01*
X133802188Y-110896318D01*
X133789928Y-111020800D01*
X133527000Y-111020800D01*
X133527000Y-108994000D01*
X141917928Y-108994000D01*
X141930188Y-109118482D01*
X141966498Y-109238180D01*
X142025463Y-109348494D01*
X142104815Y-109445185D01*
X142201506Y-109524537D01*
X142311820Y-109583502D01*
X142431518Y-109619812D01*
X142556000Y-109632072D01*
X142970250Y-109629000D01*
X143129000Y-109470250D01*
X143129000Y-108633500D01*
X142079750Y-108633500D01*
X141921000Y-108792250D01*
X141917928Y-108994000D01*
X133527000Y-108994000D01*
X133527000Y-103465000D01*
X133997928Y-103465000D01*
X134010188Y-103589482D01*
X134046498Y-103709180D01*
X134105463Y-103819494D01*
X134184815Y-103916185D01*
X134281506Y-103995537D01*
X134391820Y-104054502D01*
X134511518Y-104090812D01*
X134636000Y-104103072D01*
X135350250Y-104100000D01*
X135509000Y-103941250D01*
X135509000Y-103192000D01*
X135763000Y-103192000D01*
X135763000Y-103941250D01*
X135921750Y-104100000D01*
X136636000Y-104103072D01*
X136760482Y-104090812D01*
X136880180Y-104054502D01*
X136990494Y-103995537D01*
X137087185Y-103916185D01*
X137166537Y-103819494D01*
X137225502Y-103709180D01*
X137261812Y-103589482D01*
X137274072Y-103465000D01*
X137273481Y-103443000D01*
X138652928Y-103443000D01*
X138665188Y-103567482D01*
X138701498Y-103687180D01*
X138760463Y-103797494D01*
X138839815Y-103894185D01*
X138936506Y-103973537D01*
X139046820Y-104032502D01*
X139166518Y-104068812D01*
X139291000Y-104081072D01*
X139492750Y-104078000D01*
X139651500Y-103919250D01*
X139651500Y-102870000D01*
X138814750Y-102870000D01*
X138656000Y-103028750D01*
X138652928Y-103443000D01*
X137273481Y-103443000D01*
X137271000Y-103350750D01*
X137112250Y-103192000D01*
X135763000Y-103192000D01*
X135509000Y-103192000D01*
X134159750Y-103192000D01*
X134001000Y-103350750D01*
X133997928Y-103465000D01*
X133527000Y-103465000D01*
X133527000Y-102665000D01*
X133997928Y-102665000D01*
X134001000Y-102779250D01*
X134159750Y-102938000D01*
X135509000Y-102938000D01*
X135509000Y-102188750D01*
X135763000Y-102188750D01*
X135763000Y-102938000D01*
X137112250Y-102938000D01*
X137271000Y-102779250D01*
X137274072Y-102665000D01*
X137261812Y-102540518D01*
X137225502Y-102420820D01*
X137166537Y-102310506D01*
X137087185Y-102213815D01*
X136990494Y-102134463D01*
X136880180Y-102075498D01*
X136760482Y-102039188D01*
X136636000Y-102026928D01*
X135921750Y-102030000D01*
X135763000Y-102188750D01*
X135509000Y-102188750D01*
X135350250Y-102030000D01*
X134636000Y-102026928D01*
X134511518Y-102039188D01*
X134391820Y-102075498D01*
X134281506Y-102134463D01*
X134184815Y-102213815D01*
X134105463Y-102310506D01*
X134046498Y-102420820D01*
X134010188Y-102540518D01*
X133997928Y-102665000D01*
X133527000Y-102665000D01*
X133527000Y-91031000D01*
X137345928Y-91031000D01*
X137349000Y-91232750D01*
X137507750Y-91391500D01*
X138557000Y-91391500D01*
X138557000Y-90554750D01*
X138811000Y-90554750D01*
X138811000Y-91391500D01*
X139860250Y-91391500D01*
X139890500Y-91361250D01*
X139920750Y-91391500D01*
X140970000Y-91391500D01*
X140970000Y-90554750D01*
X140811250Y-90396000D01*
X140397000Y-90392928D01*
X140272518Y-90405188D01*
X140152820Y-90441498D01*
X140042506Y-90500463D01*
X139945815Y-90579815D01*
X139890500Y-90647217D01*
X139835185Y-90579815D01*
X139738494Y-90500463D01*
X139628180Y-90441498D01*
X139508482Y-90405188D01*
X139384000Y-90392928D01*
X138969750Y-90396000D01*
X138811000Y-90554750D01*
X138557000Y-90554750D01*
X138398250Y-90396000D01*
X137984000Y-90392928D01*
X137859518Y-90405188D01*
X137739820Y-90441498D01*
X137629506Y-90500463D01*
X137532815Y-90579815D01*
X137453463Y-90676506D01*
X137394498Y-90786820D01*
X137358188Y-90906518D01*
X137345928Y-91031000D01*
X133527000Y-91031000D01*
X133527000Y-87028504D01*
X133565551Y-86635332D01*
X133670004Y-86289366D01*
X133839667Y-85970276D01*
X134068076Y-85690219D01*
X134346534Y-85459859D01*
X134664430Y-85287973D01*
X135009658Y-85181107D01*
X135400753Y-85140000D01*
X162839814Y-85140000D01*
X162843056Y-85145842D01*
M02*
