G04 #@! TF.GenerationSoftware,KiCad,Pcbnew,5.1.6-c6e7f7d~87~ubuntu20.04.1*
G04 #@! TF.CreationDate,2020-09-27T23:00:53+02:00*
G04 #@! TF.ProjectId,soil_humidity_module,736f696c-5f68-4756-9d69-646974795f6d,rev?*
G04 #@! TF.SameCoordinates,Original*
G04 #@! TF.FileFunction,Soldermask,Top*
G04 #@! TF.FilePolarity,Negative*
%FSLAX46Y46*%
G04 Gerber Fmt 4.6, Leading zero omitted, Abs format (unit mm)*
G04 Created by KiCad (PCBNEW 5.1.6-c6e7f7d~87~ubuntu20.04.1) date 2020-09-27 23:00:53*
%MOMM*%
%LPD*%
G01*
G04 APERTURE LIST*
%ADD10O,1.700000X2.000000*%
%ADD11O,1.700000X1.700000*%
%ADD12R,1.700000X1.700000*%
%ADD13C,1.524000*%
%ADD14R,1.524000X1.524000*%
%ADD15R,3.800000X3.800000*%
%ADD16C,4.000000*%
%ADD17R,1.905000X2.000000*%
%ADD18O,1.905000X2.000000*%
%ADD19O,1.050000X1.500000*%
%ADD20R,1.050000X1.500000*%
%ADD21O,1.700000X1.950000*%
%ADD22R,2.000000X3.800000*%
%ADD23R,2.000000X1.500000*%
%ADD24R,1.600000X1.600000*%
%ADD25O,1.600000X1.600000*%
%ADD26C,1.500000*%
G04 APERTURE END LIST*
D10*
X137120000Y-84074000D03*
G36*
G01*
X133770000Y-84824000D02*
X133770000Y-83324000D01*
G75*
G02*
X134020000Y-83074000I250000J0D01*
G01*
X135220000Y-83074000D01*
G75*
G02*
X135470000Y-83324000I0J-250000D01*
G01*
X135470000Y-84824000D01*
G75*
G02*
X135220000Y-85074000I-250000J0D01*
G01*
X134020000Y-85074000D01*
G75*
G02*
X133770000Y-84824000I0J250000D01*
G01*
G37*
G36*
G01*
X158946000Y-88848250D02*
X158946000Y-87935750D01*
G75*
G02*
X159189750Y-87692000I243750J0D01*
G01*
X159677250Y-87692000D01*
G75*
G02*
X159921000Y-87935750I0J-243750D01*
G01*
X159921000Y-88848250D01*
G75*
G02*
X159677250Y-89092000I-243750J0D01*
G01*
X159189750Y-89092000D01*
G75*
G02*
X158946000Y-88848250I0J243750D01*
G01*
G37*
G36*
G01*
X157071000Y-88848250D02*
X157071000Y-87935750D01*
G75*
G02*
X157314750Y-87692000I243750J0D01*
G01*
X157802250Y-87692000D01*
G75*
G02*
X158046000Y-87935750I0J-243750D01*
G01*
X158046000Y-88848250D01*
G75*
G02*
X157802250Y-89092000I-243750J0D01*
G01*
X157314750Y-89092000D01*
G75*
G02*
X157071000Y-88848250I0J243750D01*
G01*
G37*
G36*
G01*
X156007750Y-111448000D02*
X156920250Y-111448000D01*
G75*
G02*
X157164000Y-111691750I0J-243750D01*
G01*
X157164000Y-112179250D01*
G75*
G02*
X156920250Y-112423000I-243750J0D01*
G01*
X156007750Y-112423000D01*
G75*
G02*
X155764000Y-112179250I0J243750D01*
G01*
X155764000Y-111691750D01*
G75*
G02*
X156007750Y-111448000I243750J0D01*
G01*
G37*
G36*
G01*
X156007750Y-109573000D02*
X156920250Y-109573000D01*
G75*
G02*
X157164000Y-109816750I0J-243750D01*
G01*
X157164000Y-110304250D01*
G75*
G02*
X156920250Y-110548000I-243750J0D01*
G01*
X156007750Y-110548000D01*
G75*
G02*
X155764000Y-110304250I0J243750D01*
G01*
X155764000Y-109816750D01*
G75*
G02*
X156007750Y-109573000I243750J0D01*
G01*
G37*
G36*
G01*
X156007750Y-115258000D02*
X156920250Y-115258000D01*
G75*
G02*
X157164000Y-115501750I0J-243750D01*
G01*
X157164000Y-115989250D01*
G75*
G02*
X156920250Y-116233000I-243750J0D01*
G01*
X156007750Y-116233000D01*
G75*
G02*
X155764000Y-115989250I0J243750D01*
G01*
X155764000Y-115501750D01*
G75*
G02*
X156007750Y-115258000I243750J0D01*
G01*
G37*
G36*
G01*
X156007750Y-113383000D02*
X156920250Y-113383000D01*
G75*
G02*
X157164000Y-113626750I0J-243750D01*
G01*
X157164000Y-114114250D01*
G75*
G02*
X156920250Y-114358000I-243750J0D01*
G01*
X156007750Y-114358000D01*
G75*
G02*
X155764000Y-114114250I0J243750D01*
G01*
X155764000Y-113626750D01*
G75*
G02*
X156007750Y-113383000I243750J0D01*
G01*
G37*
G36*
G01*
X156007750Y-101288000D02*
X156920250Y-101288000D01*
G75*
G02*
X157164000Y-101531750I0J-243750D01*
G01*
X157164000Y-102019250D01*
G75*
G02*
X156920250Y-102263000I-243750J0D01*
G01*
X156007750Y-102263000D01*
G75*
G02*
X155764000Y-102019250I0J243750D01*
G01*
X155764000Y-101531750D01*
G75*
G02*
X156007750Y-101288000I243750J0D01*
G01*
G37*
G36*
G01*
X156007750Y-99413000D02*
X156920250Y-99413000D01*
G75*
G02*
X157164000Y-99656750I0J-243750D01*
G01*
X157164000Y-100144250D01*
G75*
G02*
X156920250Y-100388000I-243750J0D01*
G01*
X156007750Y-100388000D01*
G75*
G02*
X155764000Y-100144250I0J243750D01*
G01*
X155764000Y-99656750D01*
G75*
G02*
X156007750Y-99413000I243750J0D01*
G01*
G37*
G36*
G01*
X156920250Y-104198000D02*
X156007750Y-104198000D01*
G75*
G02*
X155764000Y-103954250I0J243750D01*
G01*
X155764000Y-103466750D01*
G75*
G02*
X156007750Y-103223000I243750J0D01*
G01*
X156920250Y-103223000D01*
G75*
G02*
X157164000Y-103466750I0J-243750D01*
G01*
X157164000Y-103954250D01*
G75*
G02*
X156920250Y-104198000I-243750J0D01*
G01*
G37*
G36*
G01*
X156920250Y-106073000D02*
X156007750Y-106073000D01*
G75*
G02*
X155764000Y-105829250I0J243750D01*
G01*
X155764000Y-105341750D01*
G75*
G02*
X156007750Y-105098000I243750J0D01*
G01*
X156920250Y-105098000D01*
G75*
G02*
X157164000Y-105341750I0J-243750D01*
G01*
X157164000Y-105829250D01*
G75*
G02*
X156920250Y-106073000I-243750J0D01*
G01*
G37*
D11*
X140462000Y-109728000D03*
X137922000Y-109728000D03*
D12*
X135382000Y-109728000D03*
G36*
G01*
X136195750Y-103320000D02*
X137108250Y-103320000D01*
G75*
G02*
X137352000Y-103563750I0J-243750D01*
G01*
X137352000Y-104051250D01*
G75*
G02*
X137108250Y-104295000I-243750J0D01*
G01*
X136195750Y-104295000D01*
G75*
G02*
X135952000Y-104051250I0J243750D01*
G01*
X135952000Y-103563750D01*
G75*
G02*
X136195750Y-103320000I243750J0D01*
G01*
G37*
G36*
G01*
X136195750Y-101445000D02*
X137108250Y-101445000D01*
G75*
G02*
X137352000Y-101688750I0J-243750D01*
G01*
X137352000Y-102176250D01*
G75*
G02*
X137108250Y-102420000I-243750J0D01*
G01*
X136195750Y-102420000D01*
G75*
G02*
X135952000Y-102176250I0J243750D01*
G01*
X135952000Y-101688750D01*
G75*
G02*
X136195750Y-101445000I243750J0D01*
G01*
G37*
G36*
G01*
X170993750Y-96208000D02*
X171906250Y-96208000D01*
G75*
G02*
X172150000Y-96451750I0J-243750D01*
G01*
X172150000Y-96939250D01*
G75*
G02*
X171906250Y-97183000I-243750J0D01*
G01*
X170993750Y-97183000D01*
G75*
G02*
X170750000Y-96939250I0J243750D01*
G01*
X170750000Y-96451750D01*
G75*
G02*
X170993750Y-96208000I243750J0D01*
G01*
G37*
G36*
G01*
X170993750Y-94333000D02*
X171906250Y-94333000D01*
G75*
G02*
X172150000Y-94576750I0J-243750D01*
G01*
X172150000Y-95064250D01*
G75*
G02*
X171906250Y-95308000I-243750J0D01*
G01*
X170993750Y-95308000D01*
G75*
G02*
X170750000Y-95064250I0J243750D01*
G01*
X170750000Y-94576750D01*
G75*
G02*
X170993750Y-94333000I243750J0D01*
G01*
G37*
G36*
G01*
X168453750Y-96208000D02*
X169366250Y-96208000D01*
G75*
G02*
X169610000Y-96451750I0J-243750D01*
G01*
X169610000Y-96939250D01*
G75*
G02*
X169366250Y-97183000I-243750J0D01*
G01*
X168453750Y-97183000D01*
G75*
G02*
X168210000Y-96939250I0J243750D01*
G01*
X168210000Y-96451750D01*
G75*
G02*
X168453750Y-96208000I243750J0D01*
G01*
G37*
G36*
G01*
X168453750Y-94333000D02*
X169366250Y-94333000D01*
G75*
G02*
X169610000Y-94576750I0J-243750D01*
G01*
X169610000Y-95064250D01*
G75*
G02*
X169366250Y-95308000I-243750J0D01*
G01*
X168453750Y-95308000D01*
G75*
G02*
X168210000Y-95064250I0J243750D01*
G01*
X168210000Y-94576750D01*
G75*
G02*
X168453750Y-94333000I243750J0D01*
G01*
G37*
G36*
G01*
X169233000Y-83133250D02*
X169233000Y-82220750D01*
G75*
G02*
X169476750Y-81977000I243750J0D01*
G01*
X169964250Y-81977000D01*
G75*
G02*
X170208000Y-82220750I0J-243750D01*
G01*
X170208000Y-83133250D01*
G75*
G02*
X169964250Y-83377000I-243750J0D01*
G01*
X169476750Y-83377000D01*
G75*
G02*
X169233000Y-83133250I0J243750D01*
G01*
G37*
G36*
G01*
X167358000Y-83133250D02*
X167358000Y-82220750D01*
G75*
G02*
X167601750Y-81977000I243750J0D01*
G01*
X168089250Y-81977000D01*
G75*
G02*
X168333000Y-82220750I0J-243750D01*
G01*
X168333000Y-83133250D01*
G75*
G02*
X168089250Y-83377000I-243750J0D01*
G01*
X167601750Y-83377000D01*
G75*
G02*
X167358000Y-83133250I0J243750D01*
G01*
G37*
G36*
G01*
X167328000Y-91597250D02*
X167328000Y-90684750D01*
G75*
G02*
X167571750Y-90441000I243750J0D01*
G01*
X168059250Y-90441000D01*
G75*
G02*
X168303000Y-90684750I0J-243750D01*
G01*
X168303000Y-91597250D01*
G75*
G02*
X168059250Y-91841000I-243750J0D01*
G01*
X167571750Y-91841000D01*
G75*
G02*
X167328000Y-91597250I0J243750D01*
G01*
G37*
G36*
G01*
X165453000Y-91597250D02*
X165453000Y-90684750D01*
G75*
G02*
X165696750Y-90441000I243750J0D01*
G01*
X166184250Y-90441000D01*
G75*
G02*
X166428000Y-90684750I0J-243750D01*
G01*
X166428000Y-91597250D01*
G75*
G02*
X166184250Y-91841000I-243750J0D01*
G01*
X165696750Y-91841000D01*
G75*
G02*
X165453000Y-91597250I0J243750D01*
G01*
G37*
G36*
G01*
X164523000Y-82220750D02*
X164523000Y-83133250D01*
G75*
G02*
X164279250Y-83377000I-243750J0D01*
G01*
X163791750Y-83377000D01*
G75*
G02*
X163548000Y-83133250I0J243750D01*
G01*
X163548000Y-82220750D01*
G75*
G02*
X163791750Y-81977000I243750J0D01*
G01*
X164279250Y-81977000D01*
G75*
G02*
X164523000Y-82220750I0J-243750D01*
G01*
G37*
G36*
G01*
X166398000Y-82220750D02*
X166398000Y-83133250D01*
G75*
G02*
X166154250Y-83377000I-243750J0D01*
G01*
X165666750Y-83377000D01*
G75*
G02*
X165423000Y-83133250I0J243750D01*
G01*
X165423000Y-82220750D01*
G75*
G02*
X165666750Y-81977000I243750J0D01*
G01*
X166154250Y-81977000D01*
G75*
G02*
X166398000Y-82220750I0J-243750D01*
G01*
G37*
G36*
G01*
X171138000Y-91642250D02*
X171138000Y-90729750D01*
G75*
G02*
X171381750Y-90486000I243750J0D01*
G01*
X171869250Y-90486000D01*
G75*
G02*
X172113000Y-90729750I0J-243750D01*
G01*
X172113000Y-91642250D01*
G75*
G02*
X171869250Y-91886000I-243750J0D01*
G01*
X171381750Y-91886000D01*
G75*
G02*
X171138000Y-91642250I0J243750D01*
G01*
G37*
G36*
G01*
X169263000Y-91642250D02*
X169263000Y-90729750D01*
G75*
G02*
X169506750Y-90486000I243750J0D01*
G01*
X169994250Y-90486000D01*
G75*
G02*
X170238000Y-90729750I0J-243750D01*
G01*
X170238000Y-91642250D01*
G75*
G02*
X169994250Y-91886000I-243750J0D01*
G01*
X169506750Y-91886000D01*
G75*
G02*
X169263000Y-91642250I0J243750D01*
G01*
G37*
D13*
X163830000Y-102616000D03*
X163830000Y-100076000D03*
X166370000Y-102616000D03*
X166370000Y-100076000D03*
X168910000Y-102616000D03*
X168910000Y-100076000D03*
X171450000Y-102616000D03*
D14*
X171450000Y-100076000D03*
D15*
X145542000Y-83820000D03*
D16*
X150542000Y-83820000D03*
G36*
G01*
X141934250Y-97691000D02*
X141021750Y-97691000D01*
G75*
G02*
X140778000Y-97447250I0J243750D01*
G01*
X140778000Y-96959750D01*
G75*
G02*
X141021750Y-96716000I243750J0D01*
G01*
X141934250Y-96716000D01*
G75*
G02*
X142178000Y-96959750I0J-243750D01*
G01*
X142178000Y-97447250D01*
G75*
G02*
X141934250Y-97691000I-243750J0D01*
G01*
G37*
G36*
G01*
X141934250Y-95816000D02*
X141021750Y-95816000D01*
G75*
G02*
X140778000Y-95572250I0J243750D01*
G01*
X140778000Y-95084750D01*
G75*
G02*
X141021750Y-94841000I243750J0D01*
G01*
X141934250Y-94841000D01*
G75*
G02*
X142178000Y-95084750I0J-243750D01*
G01*
X142178000Y-95572250D01*
G75*
G02*
X141934250Y-95816000I-243750J0D01*
G01*
G37*
G36*
G01*
X141021750Y-92906000D02*
X141934250Y-92906000D01*
G75*
G02*
X142178000Y-93149750I0J-243750D01*
G01*
X142178000Y-93637250D01*
G75*
G02*
X141934250Y-93881000I-243750J0D01*
G01*
X141021750Y-93881000D01*
G75*
G02*
X140778000Y-93637250I0J243750D01*
G01*
X140778000Y-93149750D01*
G75*
G02*
X141021750Y-92906000I243750J0D01*
G01*
G37*
G36*
G01*
X141021750Y-91031000D02*
X141934250Y-91031000D01*
G75*
G02*
X142178000Y-91274750I0J-243750D01*
G01*
X142178000Y-91762250D01*
G75*
G02*
X141934250Y-92006000I-243750J0D01*
G01*
X141021750Y-92006000D01*
G75*
G02*
X140778000Y-91762250I0J243750D01*
G01*
X140778000Y-91274750D01*
G75*
G02*
X141021750Y-91031000I243750J0D01*
G01*
G37*
G36*
G01*
X133528750Y-123640000D02*
X134441250Y-123640000D01*
G75*
G02*
X134685000Y-123883750I0J-243750D01*
G01*
X134685000Y-124371250D01*
G75*
G02*
X134441250Y-124615000I-243750J0D01*
G01*
X133528750Y-124615000D01*
G75*
G02*
X133285000Y-124371250I0J243750D01*
G01*
X133285000Y-123883750D01*
G75*
G02*
X133528750Y-123640000I243750J0D01*
G01*
G37*
G36*
G01*
X133528750Y-121765000D02*
X134441250Y-121765000D01*
G75*
G02*
X134685000Y-122008750I0J-243750D01*
G01*
X134685000Y-122496250D01*
G75*
G02*
X134441250Y-122740000I-243750J0D01*
G01*
X133528750Y-122740000D01*
G75*
G02*
X133285000Y-122496250I0J243750D01*
G01*
X133285000Y-122008750D01*
G75*
G02*
X133528750Y-121765000I243750J0D01*
G01*
G37*
G36*
G01*
X134441250Y-120805000D02*
X133528750Y-120805000D01*
G75*
G02*
X133285000Y-120561250I0J243750D01*
G01*
X133285000Y-120073750D01*
G75*
G02*
X133528750Y-119830000I243750J0D01*
G01*
X134441250Y-119830000D01*
G75*
G02*
X134685000Y-120073750I0J-243750D01*
G01*
X134685000Y-120561250D01*
G75*
G02*
X134441250Y-120805000I-243750J0D01*
G01*
G37*
G36*
G01*
X134441250Y-118930000D02*
X133528750Y-118930000D01*
G75*
G02*
X133285000Y-118686250I0J243750D01*
G01*
X133285000Y-118198750D01*
G75*
G02*
X133528750Y-117955000I243750J0D01*
G01*
X134441250Y-117955000D01*
G75*
G02*
X134685000Y-118198750I0J-243750D01*
G01*
X134685000Y-118686250D01*
G75*
G02*
X134441250Y-118930000I-243750J0D01*
G01*
G37*
D17*
X164470000Y-93980000D03*
D18*
X161930000Y-93980000D03*
X159390000Y-93980000D03*
D19*
X158242000Y-84836000D03*
X159512000Y-84836000D03*
D20*
X156972000Y-84836000D03*
G36*
G01*
X159921000Y-90684750D02*
X159921000Y-91597250D01*
G75*
G02*
X159677250Y-91841000I-243750J0D01*
G01*
X159189750Y-91841000D01*
G75*
G02*
X158946000Y-91597250I0J243750D01*
G01*
X158946000Y-90684750D01*
G75*
G02*
X159189750Y-90441000I243750J0D01*
G01*
X159677250Y-90441000D01*
G75*
G02*
X159921000Y-90684750I0J-243750D01*
G01*
G37*
G36*
G01*
X158046000Y-90684750D02*
X158046000Y-91597250D01*
G75*
G02*
X157802250Y-91841000I-243750J0D01*
G01*
X157314750Y-91841000D01*
G75*
G02*
X157071000Y-91597250I0J243750D01*
G01*
X157071000Y-90684750D01*
G75*
G02*
X157314750Y-90441000I243750J0D01*
G01*
X157802250Y-90441000D01*
G75*
G02*
X158046000Y-90684750I0J-243750D01*
G01*
G37*
G36*
G01*
X139648250Y-104295000D02*
X138735750Y-104295000D01*
G75*
G02*
X138492000Y-104051250I0J243750D01*
G01*
X138492000Y-103563750D01*
G75*
G02*
X138735750Y-103320000I243750J0D01*
G01*
X139648250Y-103320000D01*
G75*
G02*
X139892000Y-103563750I0J-243750D01*
G01*
X139892000Y-104051250D01*
G75*
G02*
X139648250Y-104295000I-243750J0D01*
G01*
G37*
G36*
G01*
X139648250Y-102420000D02*
X138735750Y-102420000D01*
G75*
G02*
X138492000Y-102176250I0J243750D01*
G01*
X138492000Y-101688750D01*
G75*
G02*
X138735750Y-101445000I243750J0D01*
G01*
X139648250Y-101445000D01*
G75*
G02*
X139892000Y-101688750I0J-243750D01*
G01*
X139892000Y-102176250D01*
G75*
G02*
X139648250Y-102420000I-243750J0D01*
G01*
G37*
G36*
G01*
X149300250Y-88958000D02*
X148387750Y-88958000D01*
G75*
G02*
X148144000Y-88714250I0J243750D01*
G01*
X148144000Y-88226750D01*
G75*
G02*
X148387750Y-87983000I243750J0D01*
G01*
X149300250Y-87983000D01*
G75*
G02*
X149544000Y-88226750I0J-243750D01*
G01*
X149544000Y-88714250D01*
G75*
G02*
X149300250Y-88958000I-243750J0D01*
G01*
G37*
G36*
G01*
X149300250Y-90833000D02*
X148387750Y-90833000D01*
G75*
G02*
X148144000Y-90589250I0J243750D01*
G01*
X148144000Y-90101750D01*
G75*
G02*
X148387750Y-89858000I243750J0D01*
G01*
X149300250Y-89858000D01*
G75*
G02*
X149544000Y-90101750I0J-243750D01*
G01*
X149544000Y-90589250D01*
G75*
G02*
X149300250Y-90833000I-243750J0D01*
G01*
G37*
G36*
G01*
X150927750Y-89858000D02*
X151840250Y-89858000D01*
G75*
G02*
X152084000Y-90101750I0J-243750D01*
G01*
X152084000Y-90589250D01*
G75*
G02*
X151840250Y-90833000I-243750J0D01*
G01*
X150927750Y-90833000D01*
G75*
G02*
X150684000Y-90589250I0J243750D01*
G01*
X150684000Y-90101750D01*
G75*
G02*
X150927750Y-89858000I243750J0D01*
G01*
G37*
G36*
G01*
X150927750Y-87983000D02*
X151840250Y-87983000D01*
G75*
G02*
X152084000Y-88226750I0J-243750D01*
G01*
X152084000Y-88714250D01*
G75*
G02*
X151840250Y-88958000I-243750J0D01*
G01*
X150927750Y-88958000D01*
G75*
G02*
X150684000Y-88714250I0J243750D01*
G01*
X150684000Y-88226750D01*
G75*
G02*
X150927750Y-87983000I243750J0D01*
G01*
G37*
G36*
G01*
X170268000Y-85635000D02*
X170268000Y-87085000D01*
G75*
G02*
X170018000Y-87335000I-250000J0D01*
G01*
X168818000Y-87335000D01*
G75*
G02*
X168568000Y-87085000I0J250000D01*
G01*
X168568000Y-85635000D01*
G75*
G02*
X168818000Y-85385000I250000J0D01*
G01*
X170018000Y-85385000D01*
G75*
G02*
X170268000Y-85635000I0J-250000D01*
G01*
G37*
D21*
X166918000Y-86360000D03*
X164418000Y-86360000D03*
D22*
X131724000Y-94361000D03*
D23*
X138024000Y-94361000D03*
X138024000Y-92061000D03*
X138024000Y-96661000D03*
D24*
X145796000Y-93218000D03*
D25*
X153416000Y-126238000D03*
X145796000Y-95758000D03*
X153416000Y-123698000D03*
X145796000Y-98298000D03*
X153416000Y-121158000D03*
X145796000Y-100838000D03*
X153416000Y-118618000D03*
X145796000Y-103378000D03*
X153416000Y-116078000D03*
X145796000Y-105918000D03*
X153416000Y-113538000D03*
X145796000Y-108458000D03*
X153416000Y-110998000D03*
X145796000Y-110998000D03*
X153416000Y-108458000D03*
X145796000Y-113538000D03*
X153416000Y-105918000D03*
X145796000Y-116078000D03*
X153416000Y-103378000D03*
X145796000Y-118618000D03*
X153416000Y-100838000D03*
X145796000Y-121158000D03*
X153416000Y-98298000D03*
X145796000Y-123698000D03*
X153416000Y-95758000D03*
X145796000Y-126238000D03*
X153416000Y-93218000D03*
D26*
X139700000Y-119380000D03*
X139700000Y-124260000D03*
M02*
