G04 #@! TF.GenerationSoftware,KiCad,Pcbnew,5.1.6-c6e7f7d~87~ubuntu20.04.1*
G04 #@! TF.CreationDate,2020-09-27T23:00:53+02:00*
G04 #@! TF.ProjectId,soil_humidity_module,736f696c-5f68-4756-9d69-646974795f6d,rev?*
G04 #@! TF.SameCoordinates,Original*
G04 #@! TF.FileFunction,Copper,L3,Inr*
G04 #@! TF.FilePolarity,Positive*
%FSLAX46Y46*%
G04 Gerber Fmt 4.6, Leading zero omitted, Abs format (unit mm)*
G04 Created by KiCad (PCBNEW 5.1.6-c6e7f7d~87~ubuntu20.04.1) date 2020-09-27 23:00:53*
%MOMM*%
%LPD*%
G01*
G04 APERTURE LIST*
G04 #@! TA.AperFunction,ViaPad*
%ADD10O,1.700000X2.000000*%
G04 #@! TD*
G04 #@! TA.AperFunction,ViaPad*
%ADD11O,1.700000X1.700000*%
G04 #@! TD*
G04 #@! TA.AperFunction,ViaPad*
%ADD12R,1.700000X1.700000*%
G04 #@! TD*
G04 #@! TA.AperFunction,ViaPad*
%ADD13C,1.524000*%
G04 #@! TD*
G04 #@! TA.AperFunction,ViaPad*
%ADD14R,1.524000X1.524000*%
G04 #@! TD*
G04 #@! TA.AperFunction,ViaPad*
%ADD15R,3.800000X3.800000*%
G04 #@! TD*
G04 #@! TA.AperFunction,ViaPad*
%ADD16C,4.000000*%
G04 #@! TD*
G04 #@! TA.AperFunction,ViaPad*
%ADD17R,1.905000X2.000000*%
G04 #@! TD*
G04 #@! TA.AperFunction,ViaPad*
%ADD18O,1.905000X2.000000*%
G04 #@! TD*
G04 #@! TA.AperFunction,ViaPad*
%ADD19O,1.050000X1.500000*%
G04 #@! TD*
G04 #@! TA.AperFunction,ViaPad*
%ADD20R,1.050000X1.500000*%
G04 #@! TD*
G04 #@! TA.AperFunction,ViaPad*
%ADD21O,1.700000X1.950000*%
G04 #@! TD*
G04 #@! TA.AperFunction,ViaPad*
%ADD22R,1.600000X1.600000*%
G04 #@! TD*
G04 #@! TA.AperFunction,ViaPad*
%ADD23O,1.600000X1.600000*%
G04 #@! TD*
G04 #@! TA.AperFunction,ViaPad*
%ADD24C,1.500000*%
G04 #@! TD*
G04 #@! TA.AperFunction,ViaPad*
%ADD25C,0.800000*%
G04 #@! TD*
G04 #@! TA.AperFunction,Conductor*
%ADD26C,0.250000*%
G04 #@! TD*
G04 APERTURE END LIST*
D10*
X137120000Y-84074000D03*
G04 #@! TA.AperFunction,ViaPad*
G36*
G01*
X133770000Y-84824000D02*
X133770000Y-83324000D01*
G75*
G02*
X134020000Y-83074000I250000J0D01*
G01*
X135220000Y-83074000D01*
G75*
G02*
X135470000Y-83324000I0J-250000D01*
G01*
X135470000Y-84824000D01*
G75*
G02*
X135220000Y-85074000I-250000J0D01*
G01*
X134020000Y-85074000D01*
G75*
G02*
X133770000Y-84824000I0J250000D01*
G01*
G37*
G04 #@! TD.AperFunction*
D11*
X140462000Y-109728000D03*
X137922000Y-109728000D03*
D12*
X135382000Y-109728000D03*
D13*
X163830000Y-102616000D03*
X163830000Y-100076000D03*
X166370000Y-102616000D03*
X166370000Y-100076000D03*
X168910000Y-102616000D03*
X168910000Y-100076000D03*
X171450000Y-102616000D03*
D14*
X171450000Y-100076000D03*
D15*
X145542000Y-83820000D03*
D16*
X150542000Y-83820000D03*
D17*
X164470000Y-93980000D03*
D18*
X161930000Y-93980000D03*
X159390000Y-93980000D03*
D19*
X158242000Y-84836000D03*
X159512000Y-84836000D03*
D20*
X156972000Y-84836000D03*
G04 #@! TA.AperFunction,ViaPad*
G36*
G01*
X170268000Y-85635000D02*
X170268000Y-87085000D01*
G75*
G02*
X170018000Y-87335000I-250000J0D01*
G01*
X168818000Y-87335000D01*
G75*
G02*
X168568000Y-87085000I0J250000D01*
G01*
X168568000Y-85635000D01*
G75*
G02*
X168818000Y-85385000I250000J0D01*
G01*
X170018000Y-85385000D01*
G75*
G02*
X170268000Y-85635000I0J-250000D01*
G01*
G37*
G04 #@! TD.AperFunction*
D21*
X166918000Y-86360000D03*
X164418000Y-86360000D03*
D22*
X145796000Y-93218000D03*
D23*
X153416000Y-126238000D03*
X145796000Y-95758000D03*
X153416000Y-123698000D03*
X145796000Y-98298000D03*
X153416000Y-121158000D03*
X145796000Y-100838000D03*
X153416000Y-118618000D03*
X145796000Y-103378000D03*
X153416000Y-116078000D03*
X145796000Y-105918000D03*
X153416000Y-113538000D03*
X145796000Y-108458000D03*
X153416000Y-110998000D03*
X145796000Y-110998000D03*
X153416000Y-108458000D03*
X145796000Y-113538000D03*
X153416000Y-105918000D03*
X145796000Y-116078000D03*
X153416000Y-103378000D03*
X145796000Y-118618000D03*
X153416000Y-100838000D03*
X145796000Y-121158000D03*
X153416000Y-98298000D03*
X145796000Y-123698000D03*
X153416000Y-95758000D03*
X145796000Y-126238000D03*
X153416000Y-93218000D03*
D24*
X139700000Y-119380000D03*
X139700000Y-124260000D03*
D25*
X158998500Y-86749300D03*
X156240300Y-116835900D03*
X135360500Y-122024000D03*
X168866400Y-97988000D03*
X157582200Y-89766500D03*
X171428900Y-97987300D03*
X140426500Y-92510200D03*
X153891200Y-89350700D03*
X138001300Y-98101600D03*
D26*
X145796000Y-116078000D02*
X145796000Y-117203300D01*
X139700000Y-124260000D02*
X139700000Y-123018000D01*
X139700000Y-123018000D02*
X145514700Y-117203300D01*
X145514700Y-117203300D02*
X145796000Y-117203300D01*
X171450000Y-100076000D02*
X170362700Y-100076000D01*
X161930000Y-93980000D02*
X166938700Y-98988700D01*
X166938700Y-98988700D02*
X169411400Y-98988700D01*
X169411400Y-98988700D02*
X170362700Y-99940000D01*
X170362700Y-99940000D02*
X170362700Y-100076000D01*
X158242000Y-85911300D02*
X156856900Y-87296400D01*
X156856900Y-87296400D02*
X156856900Y-101581000D01*
X156856900Y-101581000D02*
X153789900Y-104648000D01*
X153789900Y-104648000D02*
X153038200Y-104648000D01*
X153038200Y-104648000D02*
X151356500Y-106329700D01*
X151356500Y-106329700D02*
X151356500Y-113057500D01*
X151356500Y-113057500D02*
X145796000Y-118618000D01*
X158242000Y-84836000D02*
X158242000Y-85911300D01*
X145796000Y-126238000D02*
X145796000Y-125112700D01*
X145796000Y-125112700D02*
X146077400Y-125112700D01*
X146077400Y-125112700D02*
X146921300Y-124268800D01*
X146921300Y-124268800D02*
X146921300Y-123474600D01*
X146921300Y-123474600D02*
X153047900Y-117348000D01*
X153047900Y-117348000D02*
X153782300Y-117348000D01*
X153782300Y-117348000D02*
X167640000Y-103490300D01*
X167640000Y-103490300D02*
X167640000Y-101346000D01*
X167640000Y-101346000D02*
X168910000Y-100076000D01*
X153416000Y-126238000D02*
X153416000Y-125112700D01*
X153416000Y-125112700D02*
X153697300Y-125112700D01*
X153697300Y-125112700D02*
X168910000Y-109900000D01*
X168910000Y-109900000D02*
X168910000Y-102616000D01*
X153416000Y-116078000D02*
X153416000Y-114952700D01*
X153416000Y-114952700D02*
X153697300Y-114952700D01*
X153697300Y-114952700D02*
X165100000Y-103550000D01*
X165100000Y-103550000D02*
X165100000Y-101346000D01*
X165100000Y-101346000D02*
X166370000Y-100076000D01*
X164418000Y-86360000D02*
X164418000Y-87660300D01*
X153416000Y-105918000D02*
X158083400Y-101250600D01*
X158083400Y-101250600D02*
X158083400Y-93432000D01*
X158083400Y-93432000D02*
X163855100Y-87660300D01*
X163855100Y-87660300D02*
X164418000Y-87660300D01*
X145796000Y-95758000D02*
X145796000Y-96883300D01*
X145796000Y-96883300D02*
X145514700Y-96883300D01*
X145514700Y-96883300D02*
X137922000Y-104476000D01*
X137922000Y-104476000D02*
X137922000Y-109728000D01*
X145796000Y-98298000D02*
X145796000Y-99423300D01*
X145796000Y-99423300D02*
X145514700Y-99423300D01*
X145514700Y-99423300D02*
X140462000Y-104476000D01*
X140462000Y-104476000D02*
X140462000Y-109728000D01*
M02*
