G04 #@! TF.GenerationSoftware,KiCad,Pcbnew,5.1.6-c6e7f7d~87~ubuntu20.04.1*
G04 #@! TF.CreationDate,2020-10-16T00:20:04+02:00*
G04 #@! TF.ProjectId,soil_humidity_module,736f696c-5f68-4756-9d69-646974795f6d,rev?*
G04 #@! TF.SameCoordinates,Original*
G04 #@! TF.FileFunction,Copper,L3,Inr*
G04 #@! TF.FilePolarity,Positive*
%FSLAX46Y46*%
G04 Gerber Fmt 4.6, Leading zero omitted, Abs format (unit mm)*
G04 Created by KiCad (PCBNEW 5.1.6-c6e7f7d~87~ubuntu20.04.1) date 2020-10-16 00:20:04*
%MOMM*%
%LPD*%
G01*
G04 APERTURE LIST*
G04 #@! TA.AperFunction,ViaPad*
%ADD10R,3.800000X3.800000*%
G04 #@! TD*
G04 #@! TA.AperFunction,ViaPad*
%ADD11C,4.000000*%
G04 #@! TD*
G04 #@! TA.AperFunction,ViaPad*
%ADD12O,1.950000X1.700000*%
G04 #@! TD*
G04 #@! TA.AperFunction,ViaPad*
%ADD13O,1.700000X2.000000*%
G04 #@! TD*
G04 #@! TA.AperFunction,ViaPad*
%ADD14R,1.700000X1.700000*%
G04 #@! TD*
G04 #@! TA.AperFunction,ViaPad*
%ADD15O,1.700000X1.700000*%
G04 #@! TD*
G04 #@! TA.AperFunction,ViaPad*
%ADD16C,1.524000*%
G04 #@! TD*
G04 #@! TA.AperFunction,ViaPad*
%ADD17R,1.524000X1.524000*%
G04 #@! TD*
G04 #@! TA.AperFunction,ViaPad*
%ADD18R,1.600000X1.600000*%
G04 #@! TD*
G04 #@! TA.AperFunction,ViaPad*
%ADD19O,1.600000X1.600000*%
G04 #@! TD*
G04 #@! TA.AperFunction,ViaPad*
%ADD20C,0.800000*%
G04 #@! TD*
G04 #@! TA.AperFunction,Conductor*
%ADD21C,0.250000*%
G04 #@! TD*
G04 APERTURE END LIST*
D10*
X171450000Y-88595200D03*
D11*
X166450000Y-88595200D03*
D12*
X136652000Y-119714000D03*
X136652000Y-122214000D03*
G04 #@! TA.AperFunction,ViaPad*
G36*
G01*
X137377000Y-125564000D02*
X135927000Y-125564000D01*
G75*
G02*
X135677000Y-125314000I0J250000D01*
G01*
X135677000Y-124114000D01*
G75*
G02*
X135927000Y-123864000I250000J0D01*
G01*
X137377000Y-123864000D01*
G75*
G02*
X137627000Y-124114000I0J-250000D01*
G01*
X137627000Y-125314000D01*
G75*
G02*
X137377000Y-125564000I-250000J0D01*
G01*
G37*
G04 #@! TD.AperFunction*
D13*
X160132400Y-88366600D03*
G04 #@! TA.AperFunction,ViaPad*
G36*
G01*
X156782400Y-89116600D02*
X156782400Y-87616600D01*
G75*
G02*
X157032400Y-87366600I250000J0D01*
G01*
X158232400Y-87366600D01*
G75*
G02*
X158482400Y-87616600I0J-250000D01*
G01*
X158482400Y-89116600D01*
G75*
G02*
X158232400Y-89366600I-250000J0D01*
G01*
X157032400Y-89366600D01*
G75*
G02*
X156782400Y-89116600I0J250000D01*
G01*
G37*
G04 #@! TD.AperFunction*
D14*
X143256000Y-87376000D03*
D15*
X140716000Y-87376000D03*
X138176000Y-87376000D03*
D16*
X164338000Y-103124000D03*
X164338000Y-100584000D03*
X166878000Y-103124000D03*
X166878000Y-100584000D03*
X169418000Y-103124000D03*
X169418000Y-100584000D03*
X171958000Y-103124000D03*
D17*
X171958000Y-100584000D03*
D18*
X145796000Y-93218000D03*
D19*
X153416000Y-126238000D03*
X145796000Y-95758000D03*
X153416000Y-123698000D03*
X145796000Y-98298000D03*
X153416000Y-121158000D03*
X145796000Y-100838000D03*
X153416000Y-118618000D03*
X145796000Y-103378000D03*
X153416000Y-116078000D03*
X145796000Y-105918000D03*
X153416000Y-113538000D03*
X145796000Y-108458000D03*
X153416000Y-110998000D03*
X145796000Y-110998000D03*
X153416000Y-108458000D03*
X145796000Y-113538000D03*
X153416000Y-105918000D03*
X145796000Y-116078000D03*
X153416000Y-103378000D03*
X145796000Y-118618000D03*
X153416000Y-100838000D03*
X145796000Y-121158000D03*
X153416000Y-98298000D03*
X145796000Y-123698000D03*
X153416000Y-95758000D03*
X145796000Y-126238000D03*
X153416000Y-93218000D03*
D20*
X167538400Y-98628200D03*
X163068000Y-94005400D03*
X172237400Y-98425000D03*
X146812000Y-87630000D03*
X139700000Y-113538000D03*
X138049000Y-97155000D03*
X155067000Y-116205000D03*
X143256000Y-103886000D03*
X155194000Y-106553000D03*
X141325600Y-120243600D03*
X155981400Y-99237800D03*
D21*
X145796000Y-126238000D02*
X146921000Y-126238000D01*
X146921000Y-126238000D02*
X146921000Y-125957000D01*
X146921000Y-125957000D02*
X152990000Y-119888000D01*
X152990000Y-119888000D02*
X154234000Y-119888000D01*
X154234000Y-119888000D02*
X168148000Y-105974000D01*
X168148000Y-105974000D02*
X168148000Y-101854000D01*
X168148000Y-101854000D02*
X169418000Y-100584000D01*
X153416000Y-126238000D02*
X153416000Y-125113000D01*
X153416000Y-125113000D02*
X153697000Y-125113000D01*
X153697000Y-125113000D02*
X169418000Y-109392000D01*
X169418000Y-109392000D02*
X169418000Y-103124000D01*
X153416000Y-116078000D02*
X153416000Y-114953000D01*
X153416000Y-114953000D02*
X154119000Y-114953000D01*
X154119000Y-114953000D02*
X165608000Y-103464000D01*
X165608000Y-103464000D02*
X165608000Y-101854000D01*
X165608000Y-101854000D02*
X166878000Y-100584000D01*
X153416000Y-118618000D02*
X153416000Y-117493000D01*
X153416000Y-117493000D02*
X153135000Y-117493000D01*
X153135000Y-117493000D02*
X152272000Y-116630000D01*
X152272000Y-116630000D02*
X152272000Y-113056000D01*
X152272000Y-113056000D02*
X153060000Y-112268000D01*
X153060000Y-112268000D02*
X153767000Y-112268000D01*
X153767000Y-112268000D02*
X162885000Y-103149000D01*
X162885000Y-103149000D02*
X162885000Y-102037000D01*
X162885000Y-102037000D02*
X164338000Y-100584000D01*
M02*
