M48
; DRILL file {KiCad 5.1.6-c6e7f7d~87~ubuntu20.04.1} date Fri Oct 16 00:21:09 2020
; FORMAT={-:-/ absolute / inch / decimal}
; #@! TF.CreationDate,2020-10-16T00:21:09+02:00
; #@! TF.GenerationSoftware,Kicad,Pcbnew,5.1.6-c6e7f7d~87~ubuntu20.04.1
FMAT,2
INCH
T1C0.0157
T2C0.0300
T3C0.0315
T4C0.0374
T5C0.0394
T6C0.1063
%
G90
G05
T1
X5.435Y-3.825
X5.5Y-4.47
X5.564Y-4.734
X5.64Y-4.09
X5.78Y-3.45
X6.105Y-4.575
X6.11Y-4.195
X6.141Y-3.907
X6.42Y-3.701
X6.596Y-3.883
X6.781Y-3.875
T2
X6.47Y-3.96
X6.47Y-4.06
X6.57Y-3.96
X6.57Y-4.06
X6.67Y-3.96
X6.67Y-4.06
X6.77Y-3.96
X6.77Y-4.06
T3
X5.74Y-3.67
X5.74Y-3.77
X5.74Y-3.87
X5.74Y-3.97
X5.74Y-4.07
X5.74Y-4.17
X5.74Y-4.27
X5.74Y-4.37
X5.74Y-4.47
X5.74Y-4.57
X5.74Y-4.67
X5.74Y-4.77
X5.74Y-4.87
X5.74Y-4.97
X6.04Y-3.67
X6.04Y-3.77
X6.04Y-3.87
X6.04Y-3.97
X6.04Y-4.07
X6.04Y-4.17
X6.04Y-4.27
X6.04Y-4.37
X6.04Y-4.47
X6.04Y-4.57
X6.04Y-4.67
X6.04Y-4.77
X6.04Y-4.87
X6.04Y-4.97
T4
X5.38Y-4.7131
X5.38Y-4.8116
X5.38Y-4.91
T5
X6.206Y-3.479
X6.3044Y-3.479
X5.44Y-3.44
X5.54Y-3.44
X5.64Y-3.44
T6
X6.5531Y-3.488
X6.75Y-3.488
T0
M30
