G04 #@! TF.GenerationSoftware,KiCad,Pcbnew,5.1.6-c6e7f7d~87~ubuntu20.04.1*
G04 #@! TF.CreationDate,2020-10-16T00:20:04+02:00*
G04 #@! TF.ProjectId,soil_humidity_module,736f696c-5f68-4756-9d69-646974795f6d,rev?*
G04 #@! TF.SameCoordinates,Original*
G04 #@! TF.FileFunction,Legend,Top*
G04 #@! TF.FilePolarity,Positive*
%FSLAX46Y46*%
G04 Gerber Fmt 4.6, Leading zero omitted, Abs format (unit mm)*
G04 Created by KiCad (PCBNEW 5.1.6-c6e7f7d~87~ubuntu20.04.1) date 2020-10-16 00:20:04*
%MOMM*%
%LPD*%
G01*
G04 APERTURE LIST*
%ADD10C,0.120000*%
%ADD11C,0.150000*%
G04 APERTURE END LIST*
D10*
X165537000Y-94860400D02*
X165537000Y-97545400D01*
X167457000Y-94860400D02*
X165537000Y-94860400D01*
X167457000Y-97545400D02*
X167457000Y-94860400D01*
X163628000Y-96803978D02*
X163628000Y-96286822D01*
X165048000Y-96803978D02*
X165048000Y-96286822D01*
X159501000Y-98028400D02*
X161301000Y-98028400D01*
X161301000Y-94808400D02*
X158851000Y-94808400D01*
X138098600Y-112704378D02*
X138098600Y-112187222D01*
X136678600Y-112704378D02*
X136678600Y-112187222D01*
X143966000Y-107827578D02*
X143966000Y-107310422D01*
X142546000Y-107827578D02*
X142546000Y-107310422D01*
X137206000Y-103035000D02*
X136906000Y-103035000D01*
X134066000Y-98895000D02*
X134366000Y-98895000D01*
X136906000Y-98895000D02*
X137206000Y-98895000D01*
X134066000Y-103035000D02*
X134066000Y-98895000D01*
X134366000Y-103035000D02*
X134066000Y-103035000D01*
X137206000Y-98895000D02*
X137206000Y-103035000D01*
X174160000Y-90005200D02*
X174160000Y-87185200D01*
X174160000Y-87185200D02*
X172460000Y-85885200D01*
X174160000Y-90005200D02*
X172460000Y-91305200D01*
X172460000Y-85885200D02*
X163740000Y-85885200D01*
X163740000Y-91305200D02*
X163740000Y-85885200D01*
X172460000Y-91305200D02*
X163740000Y-91305200D01*
X137724000Y-90771000D02*
X137724000Y-93456000D01*
X139644000Y-90771000D02*
X137724000Y-90771000D01*
X139644000Y-93456000D02*
X139644000Y-90771000D01*
X143839000Y-125607578D02*
X143839000Y-125090422D01*
X142419000Y-125607578D02*
X142419000Y-125090422D01*
X142169000Y-119981000D02*
X142169000Y-122666000D01*
X144089000Y-119981000D02*
X142169000Y-119981000D01*
X144089000Y-122666000D02*
X144089000Y-119981000D01*
X139233000Y-98795000D02*
X139233000Y-101245000D01*
X142453000Y-100595000D02*
X142453000Y-98795000D01*
X135606022Y-96188600D02*
X136123178Y-96188600D01*
X135606022Y-94768600D02*
X136123178Y-94768600D01*
X140457422Y-103453000D02*
X140974578Y-103453000D01*
X140457422Y-102033000D02*
X140974578Y-102033000D01*
X157428000Y-106684578D02*
X157428000Y-106167422D01*
X156008000Y-106684578D02*
X156008000Y-106167422D01*
X141226000Y-110561000D02*
X141226000Y-111491000D01*
X141226000Y-113721000D02*
X141226000Y-112791000D01*
X141226000Y-113721000D02*
X143386000Y-113721000D01*
X141226000Y-110561000D02*
X142686000Y-110561000D01*
X133902000Y-127564000D02*
X135152000Y-127564000D01*
X133902000Y-126314000D02*
X133902000Y-127564000D01*
X139402000Y-117914000D02*
X139402000Y-122214000D01*
X136452000Y-117914000D02*
X139402000Y-117914000D01*
X136452000Y-117164000D02*
X136452000Y-117914000D01*
X139402000Y-126514000D02*
X139402000Y-122214000D01*
X136452000Y-126514000D02*
X139402000Y-126514000D01*
X136452000Y-127264000D02*
X136452000Y-126514000D01*
X134202000Y-117164000D02*
X134202000Y-118964000D01*
X134952000Y-117164000D02*
X134202000Y-117164000D01*
X134952000Y-118964000D02*
X134952000Y-117164000D01*
X134202000Y-118964000D02*
X134952000Y-118964000D01*
X134202000Y-125464000D02*
X134202000Y-127264000D01*
X134952000Y-125464000D02*
X134202000Y-125464000D01*
X134952000Y-127264000D02*
X134952000Y-125464000D01*
X134202000Y-127264000D02*
X134952000Y-127264000D01*
X134202000Y-120464000D02*
X134202000Y-123964000D01*
X134952000Y-120464000D02*
X134202000Y-120464000D01*
X134952000Y-123964000D02*
X134952000Y-120464000D01*
X134202000Y-123964000D02*
X134952000Y-123964000D01*
X134192000Y-117154000D02*
X134192000Y-127274000D01*
X140162000Y-117154000D02*
X134192000Y-117154000D01*
X140162000Y-127274000D02*
X140162000Y-117154000D01*
X134192000Y-127274000D02*
X140162000Y-127274000D01*
X155072400Y-85906600D02*
X155072400Y-91876600D01*
X155072400Y-91876600D02*
X162692400Y-91876600D01*
X162692400Y-91876600D02*
X162692400Y-85906600D01*
X162692400Y-85906600D02*
X155072400Y-85906600D01*
X158382400Y-85916600D02*
X158382400Y-86666600D01*
X158382400Y-86666600D02*
X159382400Y-86666600D01*
X159382400Y-86666600D02*
X159382400Y-85916600D01*
X159382400Y-85916600D02*
X158382400Y-85916600D01*
X155082400Y-85916600D02*
X155082400Y-86666600D01*
X155082400Y-86666600D02*
X156882400Y-86666600D01*
X156882400Y-86666600D02*
X156882400Y-85916600D01*
X156882400Y-85916600D02*
X155082400Y-85916600D01*
X160882400Y-85916600D02*
X160882400Y-86666600D01*
X160882400Y-86666600D02*
X162682400Y-86666600D01*
X162682400Y-86666600D02*
X162682400Y-85916600D01*
X162682400Y-85916600D02*
X160882400Y-85916600D01*
X155082400Y-88166600D02*
X155832400Y-88166600D01*
X155832400Y-88166600D02*
X155832400Y-91116600D01*
X155832400Y-91116600D02*
X158882400Y-91116600D01*
X162682400Y-88166600D02*
X161932400Y-88166600D01*
X161932400Y-88166600D02*
X161932400Y-91116600D01*
X161932400Y-91116600D02*
X158882400Y-91116600D01*
X156032400Y-85616600D02*
X154782400Y-85616600D01*
X154782400Y-85616600D02*
X154782400Y-86866600D01*
X142244578Y-115772000D02*
X141727422Y-115772000D01*
X142244578Y-114352000D02*
X141727422Y-114352000D01*
X156008000Y-111247422D02*
X156008000Y-111764578D01*
X157428000Y-111247422D02*
X157428000Y-111764578D01*
X156008000Y-115057422D02*
X156008000Y-115574578D01*
X157428000Y-115057422D02*
X157428000Y-115574578D01*
X136846000Y-86046000D02*
X136846000Y-88706000D01*
X141986000Y-86046000D02*
X136846000Y-86046000D01*
X141986000Y-88706000D02*
X136846000Y-88706000D01*
X141986000Y-86046000D02*
X141986000Y-88706000D01*
X143256000Y-86046000D02*
X144586000Y-86046000D01*
X144586000Y-86046000D02*
X144586000Y-87376000D01*
X144220000Y-92714578D02*
X144220000Y-92197422D01*
X142800000Y-92714578D02*
X142800000Y-92197422D01*
X171804400Y-96261422D02*
X171804400Y-96778578D01*
X170384400Y-96261422D02*
X170384400Y-96778578D01*
X173963400Y-96261422D02*
X173963400Y-96778578D01*
X172543400Y-96261422D02*
X172543400Y-96778578D01*
X167920600Y-96261422D02*
X167920600Y-96778578D01*
X169340600Y-96261422D02*
X169340600Y-96778578D01*
X136088000Y-114130800D02*
X136088000Y-111445800D01*
X134168000Y-114130800D02*
X136088000Y-114130800D01*
X134168000Y-111445800D02*
X134168000Y-114130800D01*
X173482000Y-99314000D02*
X173482000Y-104648000D01*
X173482000Y-104648000D02*
X162814000Y-104648000D01*
X162814000Y-104648000D02*
X162814000Y-99314000D01*
X162814000Y-99314000D02*
X162814000Y-99314000D01*
X172974000Y-101854000D02*
X170688000Y-101854000D01*
X170688000Y-101854000D02*
X170688000Y-99568000D01*
X170688000Y-99568000D02*
X170688000Y-99568000D01*
X174058000Y-98984000D02*
X174058000Y-128184000D01*
X174058000Y-128184000D02*
X158608000Y-128184000D01*
X158608000Y-128184000D02*
X158608000Y-98984000D01*
X158608000Y-98984000D02*
X174058000Y-98984000D01*
X174058000Y-98984000D02*
X174058000Y-98984000D01*
X162814000Y-99314000D02*
X173482000Y-99314000D01*
X173482000Y-99314000D02*
X173482000Y-99314000D01*
X155754000Y-96159822D02*
X155754000Y-96676978D01*
X157174000Y-96159822D02*
X157174000Y-96676978D01*
X141807000Y-92714578D02*
X141807000Y-92197422D01*
X140387000Y-92714578D02*
X140387000Y-92197422D01*
X151713000Y-89276422D02*
X151713000Y-89793578D01*
X150293000Y-89276422D02*
X150293000Y-89793578D01*
X147753000Y-89793578D02*
X147753000Y-89276422D01*
X149173000Y-89793578D02*
X149173000Y-89276422D01*
X152256000Y-91888000D02*
X150606000Y-91888000D01*
X152256000Y-127568000D02*
X152256000Y-91888000D01*
X146956000Y-127568000D02*
X152256000Y-127568000D01*
X146956000Y-91888000D02*
X146956000Y-127568000D01*
X148606000Y-91888000D02*
X146956000Y-91888000D01*
X150606000Y-91888000D02*
G75*
G02*
X148606000Y-91888000I-1000000J0D01*
G01*
D11*
X165758904Y-94584780D02*
X165758904Y-93584780D01*
X165997000Y-93584780D01*
X166139857Y-93632400D01*
X166235095Y-93727638D01*
X166282714Y-93822876D01*
X166330333Y-94013352D01*
X166330333Y-94156209D01*
X166282714Y-94346685D01*
X166235095Y-94441923D01*
X166139857Y-94537161D01*
X165997000Y-94584780D01*
X165758904Y-94584780D01*
X167282714Y-94584780D02*
X166711285Y-94584780D01*
X166997000Y-94584780D02*
X166997000Y-93584780D01*
X166901761Y-93727638D01*
X166806523Y-93822876D01*
X166711285Y-93870495D01*
X164196733Y-94464142D02*
X164149114Y-94511761D01*
X164006257Y-94559380D01*
X163911019Y-94559380D01*
X163768161Y-94511761D01*
X163672923Y-94416523D01*
X163625304Y-94321285D01*
X163577685Y-94130809D01*
X163577685Y-93987952D01*
X163625304Y-93797476D01*
X163672923Y-93702238D01*
X163768161Y-93607000D01*
X163911019Y-93559380D01*
X164006257Y-93559380D01*
X164149114Y-93607000D01*
X164196733Y-93654619D01*
X164577685Y-93654619D02*
X164625304Y-93607000D01*
X164720542Y-93559380D01*
X164958638Y-93559380D01*
X165053876Y-93607000D01*
X165101495Y-93654619D01*
X165149114Y-93749857D01*
X165149114Y-93845095D01*
X165101495Y-93987952D01*
X164530066Y-94559380D01*
X165149114Y-94559380D01*
X159639095Y-93330780D02*
X159639095Y-94140304D01*
X159686714Y-94235542D01*
X159734333Y-94283161D01*
X159829571Y-94330780D01*
X160020047Y-94330780D01*
X160115285Y-94283161D01*
X160162904Y-94235542D01*
X160210523Y-94140304D01*
X160210523Y-93330780D01*
X160591476Y-93330780D02*
X161210523Y-93330780D01*
X160877190Y-93711733D01*
X161020047Y-93711733D01*
X161115285Y-93759352D01*
X161162904Y-93806971D01*
X161210523Y-93902209D01*
X161210523Y-94140304D01*
X161162904Y-94235542D01*
X161115285Y-94283161D01*
X161020047Y-94330780D01*
X160734333Y-94330780D01*
X160639095Y-94283161D01*
X160591476Y-94235542D01*
X137221933Y-110561380D02*
X136888600Y-110085190D01*
X136650504Y-110561380D02*
X136650504Y-109561380D01*
X137031457Y-109561380D01*
X137126695Y-109609000D01*
X137174314Y-109656619D01*
X137221933Y-109751857D01*
X137221933Y-109894714D01*
X137174314Y-109989952D01*
X137126695Y-110037571D01*
X137031457Y-110085190D01*
X136650504Y-110085190D01*
X138079076Y-109561380D02*
X137888600Y-109561380D01*
X137793361Y-109609000D01*
X137745742Y-109656619D01*
X137650504Y-109799476D01*
X137602885Y-109989952D01*
X137602885Y-110370904D01*
X137650504Y-110466142D01*
X137698123Y-110513761D01*
X137793361Y-110561380D01*
X137983838Y-110561380D01*
X138079076Y-110513761D01*
X138126695Y-110466142D01*
X138174314Y-110370904D01*
X138174314Y-110132809D01*
X138126695Y-110037571D01*
X138079076Y-109989952D01*
X137983838Y-109942333D01*
X137793361Y-109942333D01*
X137698123Y-109989952D01*
X137650504Y-110037571D01*
X137602885Y-110132809D01*
X142613142Y-105513142D02*
X142565523Y-105560761D01*
X142422666Y-105608380D01*
X142327428Y-105608380D01*
X142184571Y-105560761D01*
X142089333Y-105465523D01*
X142041714Y-105370285D01*
X141994095Y-105179809D01*
X141994095Y-105036952D01*
X142041714Y-104846476D01*
X142089333Y-104751238D01*
X142184571Y-104656000D01*
X142327428Y-104608380D01*
X142422666Y-104608380D01*
X142565523Y-104656000D01*
X142613142Y-104703619D01*
X143565523Y-105608380D02*
X142994095Y-105608380D01*
X143279809Y-105608380D02*
X143279809Y-104608380D01*
X143184571Y-104751238D01*
X143089333Y-104846476D01*
X142994095Y-104894095D01*
X144517904Y-105608380D02*
X143946476Y-105608380D01*
X144232190Y-105608380D02*
X144232190Y-104608380D01*
X144136952Y-104751238D01*
X144041714Y-104846476D01*
X143946476Y-104894095D01*
X134302666Y-97940761D02*
X134445523Y-97988380D01*
X134683619Y-97988380D01*
X134778857Y-97940761D01*
X134826476Y-97893142D01*
X134874095Y-97797904D01*
X134874095Y-97702666D01*
X134826476Y-97607428D01*
X134778857Y-97559809D01*
X134683619Y-97512190D01*
X134493142Y-97464571D01*
X134397904Y-97416952D01*
X134350285Y-97369333D01*
X134302666Y-97274095D01*
X134302666Y-97178857D01*
X134350285Y-97083619D01*
X134397904Y-97036000D01*
X134493142Y-96988380D01*
X134731238Y-96988380D01*
X134874095Y-97036000D01*
X135207428Y-96988380D02*
X135445523Y-97988380D01*
X135636000Y-97274095D01*
X135826476Y-97988380D01*
X136064571Y-96988380D01*
X136969333Y-97988380D02*
X136397904Y-97988380D01*
X136683619Y-97988380D02*
X136683619Y-96988380D01*
X136588380Y-97131238D01*
X136493142Y-97226476D01*
X136397904Y-97274095D01*
X167717885Y-92435371D02*
X167860742Y-92482990D01*
X167908361Y-92530609D01*
X167955980Y-92625847D01*
X167955980Y-92768704D01*
X167908361Y-92863942D01*
X167860742Y-92911561D01*
X167765504Y-92959180D01*
X167384552Y-92959180D01*
X167384552Y-91959180D01*
X167717885Y-91959180D01*
X167813123Y-92006800D01*
X167860742Y-92054419D01*
X167908361Y-92149657D01*
X167908361Y-92244895D01*
X167860742Y-92340133D01*
X167813123Y-92387752D01*
X167717885Y-92435371D01*
X167384552Y-92435371D01*
X168241695Y-91959180D02*
X168813123Y-91959180D01*
X168527409Y-92959180D02*
X168527409Y-91959180D01*
X169670266Y-92959180D02*
X169098838Y-92959180D01*
X169384552Y-92959180D02*
X169384552Y-91959180D01*
X169289314Y-92102038D01*
X169194076Y-92197276D01*
X169098838Y-92244895D01*
X137945904Y-90495380D02*
X137945904Y-89495380D01*
X138184000Y-89495380D01*
X138326857Y-89543000D01*
X138422095Y-89638238D01*
X138469714Y-89733476D01*
X138517333Y-89923952D01*
X138517333Y-90066809D01*
X138469714Y-90257285D01*
X138422095Y-90352523D01*
X138326857Y-90447761D01*
X138184000Y-90495380D01*
X137945904Y-90495380D01*
X139374476Y-89828714D02*
X139374476Y-90495380D01*
X139136380Y-89447761D02*
X138898285Y-90162047D01*
X139517333Y-90162047D01*
X142486142Y-128087380D02*
X142152809Y-127611190D01*
X141914714Y-128087380D02*
X141914714Y-127087380D01*
X142295666Y-127087380D01*
X142390904Y-127135000D01*
X142438523Y-127182619D01*
X142486142Y-127277857D01*
X142486142Y-127420714D01*
X142438523Y-127515952D01*
X142390904Y-127563571D01*
X142295666Y-127611190D01*
X141914714Y-127611190D01*
X143438523Y-128087380D02*
X142867095Y-128087380D01*
X143152809Y-128087380D02*
X143152809Y-127087380D01*
X143057571Y-127230238D01*
X142962333Y-127325476D01*
X142867095Y-127373095D01*
X144057571Y-127087380D02*
X144152809Y-127087380D01*
X144248047Y-127135000D01*
X144295666Y-127182619D01*
X144343285Y-127277857D01*
X144390904Y-127468333D01*
X144390904Y-127706428D01*
X144343285Y-127896904D01*
X144295666Y-127992142D01*
X144248047Y-128039761D01*
X144152809Y-128087380D01*
X144057571Y-128087380D01*
X143962333Y-128039761D01*
X143914714Y-127992142D01*
X143867095Y-127896904D01*
X143819476Y-127706428D01*
X143819476Y-127468333D01*
X143867095Y-127277857D01*
X143914714Y-127182619D01*
X143962333Y-127135000D01*
X144057571Y-127087380D01*
X142390904Y-119578380D02*
X142390904Y-118578380D01*
X142629000Y-118578380D01*
X142771857Y-118626000D01*
X142867095Y-118721238D01*
X142914714Y-118816476D01*
X142962333Y-119006952D01*
X142962333Y-119149809D01*
X142914714Y-119340285D01*
X142867095Y-119435523D01*
X142771857Y-119530761D01*
X142629000Y-119578380D01*
X142390904Y-119578380D01*
X143295666Y-118578380D02*
X143914714Y-118578380D01*
X143581380Y-118959333D01*
X143724238Y-118959333D01*
X143819476Y-119006952D01*
X143867095Y-119054571D01*
X143914714Y-119149809D01*
X143914714Y-119387904D01*
X143867095Y-119483142D01*
X143819476Y-119530761D01*
X143724238Y-119578380D01*
X143438523Y-119578380D01*
X143343285Y-119530761D01*
X143295666Y-119483142D01*
X137755380Y-100456904D02*
X138564904Y-100456904D01*
X138660142Y-100409285D01*
X138707761Y-100361666D01*
X138755380Y-100266428D01*
X138755380Y-100075952D01*
X138707761Y-99980714D01*
X138660142Y-99933095D01*
X138564904Y-99885476D01*
X137755380Y-99885476D01*
X137755380Y-98933095D02*
X137755380Y-99409285D01*
X138231571Y-99456904D01*
X138183952Y-99409285D01*
X138136333Y-99314047D01*
X138136333Y-99075952D01*
X138183952Y-98980714D01*
X138231571Y-98933095D01*
X138326809Y-98885476D01*
X138564904Y-98885476D01*
X138660142Y-98933095D01*
X138707761Y-98980714D01*
X138755380Y-99075952D01*
X138755380Y-99314047D01*
X138707761Y-99409285D01*
X138660142Y-99456904D01*
X138755380Y-95670666D02*
X138279190Y-96004000D01*
X138755380Y-96242095D02*
X137755380Y-96242095D01*
X137755380Y-95861142D01*
X137803000Y-95765904D01*
X137850619Y-95718285D01*
X137945857Y-95670666D01*
X138088714Y-95670666D01*
X138183952Y-95718285D01*
X138231571Y-95765904D01*
X138279190Y-95861142D01*
X138279190Y-96242095D01*
X138755380Y-95194476D02*
X138755380Y-95004000D01*
X138707761Y-94908761D01*
X138660142Y-94861142D01*
X138517285Y-94765904D01*
X138326809Y-94718285D01*
X137945857Y-94718285D01*
X137850619Y-94765904D01*
X137803000Y-94813523D01*
X137755380Y-94908761D01*
X137755380Y-95099238D01*
X137803000Y-95194476D01*
X137850619Y-95242095D01*
X137945857Y-95289714D01*
X138183952Y-95289714D01*
X138279190Y-95242095D01*
X138326809Y-95194476D01*
X138374428Y-95099238D01*
X138374428Y-94908761D01*
X138326809Y-94813523D01*
X138279190Y-94765904D01*
X138183952Y-94718285D01*
X138533142Y-103385857D02*
X138580761Y-103433476D01*
X138628380Y-103576333D01*
X138628380Y-103671571D01*
X138580761Y-103814428D01*
X138485523Y-103909666D01*
X138390285Y-103957285D01*
X138199809Y-104004904D01*
X138056952Y-104004904D01*
X137866476Y-103957285D01*
X137771238Y-103909666D01*
X137676000Y-103814428D01*
X137628380Y-103671571D01*
X137628380Y-103576333D01*
X137676000Y-103433476D01*
X137723619Y-103385857D01*
X138628380Y-102433476D02*
X138628380Y-103004904D01*
X138628380Y-102719190D02*
X137628380Y-102719190D01*
X137771238Y-102814428D01*
X137866476Y-102909666D01*
X137914095Y-103004904D01*
X137628380Y-101814428D02*
X137628380Y-101719190D01*
X137676000Y-101623952D01*
X137723619Y-101576333D01*
X137818857Y-101528714D01*
X138009333Y-101481095D01*
X138247428Y-101481095D01*
X138437904Y-101528714D01*
X138533142Y-101576333D01*
X138580761Y-101623952D01*
X138628380Y-101719190D01*
X138628380Y-101814428D01*
X138580761Y-101909666D01*
X138533142Y-101957285D01*
X138437904Y-102004904D01*
X138247428Y-102052523D01*
X138009333Y-102052523D01*
X137818857Y-102004904D01*
X137723619Y-101957285D01*
X137676000Y-101909666D01*
X137628380Y-101814428D01*
X156551333Y-104370142D02*
X156503714Y-104417761D01*
X156360857Y-104465380D01*
X156265619Y-104465380D01*
X156122761Y-104417761D01*
X156027523Y-104322523D01*
X155979904Y-104227285D01*
X155932285Y-104036809D01*
X155932285Y-103893952D01*
X155979904Y-103703476D01*
X156027523Y-103608238D01*
X156122761Y-103513000D01*
X156265619Y-103465380D01*
X156360857Y-103465380D01*
X156503714Y-103513000D01*
X156551333Y-103560619D01*
X157122761Y-103893952D02*
X157027523Y-103846333D01*
X156979904Y-103798714D01*
X156932285Y-103703476D01*
X156932285Y-103655857D01*
X156979904Y-103560619D01*
X157027523Y-103513000D01*
X157122761Y-103465380D01*
X157313238Y-103465380D01*
X157408476Y-103513000D01*
X157456095Y-103560619D01*
X157503714Y-103655857D01*
X157503714Y-103703476D01*
X157456095Y-103798714D01*
X157408476Y-103846333D01*
X157313238Y-103893952D01*
X157122761Y-103893952D01*
X157027523Y-103941571D01*
X156979904Y-103989190D01*
X156932285Y-104084428D01*
X156932285Y-104274904D01*
X156979904Y-104370142D01*
X157027523Y-104417761D01*
X157122761Y-104465380D01*
X157313238Y-104465380D01*
X157408476Y-104417761D01*
X157456095Y-104370142D01*
X157503714Y-104274904D01*
X157503714Y-104084428D01*
X157456095Y-103989190D01*
X157408476Y-103941571D01*
X157313238Y-103893952D01*
X139993619Y-112236238D02*
X139946000Y-112331476D01*
X139850761Y-112426714D01*
X139707904Y-112569571D01*
X139660285Y-112664809D01*
X139660285Y-112760047D01*
X139898380Y-112712428D02*
X139850761Y-112807666D01*
X139755523Y-112902904D01*
X139565047Y-112950523D01*
X139231714Y-112950523D01*
X139041238Y-112902904D01*
X138946000Y-112807666D01*
X138898380Y-112712428D01*
X138898380Y-112521952D01*
X138946000Y-112426714D01*
X139041238Y-112331476D01*
X139231714Y-112283857D01*
X139565047Y-112283857D01*
X139755523Y-112331476D01*
X139850761Y-112426714D01*
X139898380Y-112521952D01*
X139898380Y-112712428D01*
X138993619Y-111902904D02*
X138946000Y-111855285D01*
X138898380Y-111760047D01*
X138898380Y-111521952D01*
X138946000Y-111426714D01*
X138993619Y-111379095D01*
X139088857Y-111331476D01*
X139184095Y-111331476D01*
X139326952Y-111379095D01*
X139898380Y-111950523D01*
X139898380Y-111331476D01*
X136144095Y-115530380D02*
X136144095Y-116339904D01*
X136191714Y-116435142D01*
X136239333Y-116482761D01*
X136334571Y-116530380D01*
X136525047Y-116530380D01*
X136620285Y-116482761D01*
X136667904Y-116435142D01*
X136715523Y-116339904D01*
X136715523Y-115530380D01*
X137144095Y-115625619D02*
X137191714Y-115578000D01*
X137286952Y-115530380D01*
X137525047Y-115530380D01*
X137620285Y-115578000D01*
X137667904Y-115625619D01*
X137715523Y-115720857D01*
X137715523Y-115816095D01*
X137667904Y-115958952D01*
X137096476Y-116530380D01*
X137715523Y-116530380D01*
X154230342Y-89007866D02*
X154277961Y-89055485D01*
X154325580Y-89198342D01*
X154325580Y-89293580D01*
X154277961Y-89436438D01*
X154182723Y-89531676D01*
X154087485Y-89579295D01*
X153897009Y-89626914D01*
X153754152Y-89626914D01*
X153563676Y-89579295D01*
X153468438Y-89531676D01*
X153373200Y-89436438D01*
X153325580Y-89293580D01*
X153325580Y-89198342D01*
X153373200Y-89055485D01*
X153420819Y-89007866D01*
X153801771Y-88245961D02*
X153849390Y-88103104D01*
X153897009Y-88055485D01*
X153992247Y-88007866D01*
X154135104Y-88007866D01*
X154230342Y-88055485D01*
X154277961Y-88103104D01*
X154325580Y-88198342D01*
X154325580Y-88579295D01*
X153325580Y-88579295D01*
X153325580Y-88245961D01*
X153373200Y-88150723D01*
X153420819Y-88103104D01*
X153516057Y-88055485D01*
X153611295Y-88055485D01*
X153706533Y-88103104D01*
X153754152Y-88150723D01*
X153801771Y-88245961D01*
X153801771Y-88579295D01*
X154325580Y-87055485D02*
X154325580Y-87626914D01*
X154325580Y-87341200D02*
X153325580Y-87341200D01*
X153468438Y-87436438D01*
X153563676Y-87531676D01*
X153611295Y-87626914D01*
X140025380Y-115228666D02*
X139549190Y-115562000D01*
X140025380Y-115800095D02*
X139025380Y-115800095D01*
X139025380Y-115419142D01*
X139073000Y-115323904D01*
X139120619Y-115276285D01*
X139215857Y-115228666D01*
X139358714Y-115228666D01*
X139453952Y-115276285D01*
X139501571Y-115323904D01*
X139549190Y-115419142D01*
X139549190Y-115800095D01*
X139453952Y-114657238D02*
X139406333Y-114752476D01*
X139358714Y-114800095D01*
X139263476Y-114847714D01*
X139215857Y-114847714D01*
X139120619Y-114800095D01*
X139073000Y-114752476D01*
X139025380Y-114657238D01*
X139025380Y-114466761D01*
X139073000Y-114371523D01*
X139120619Y-114323904D01*
X139215857Y-114276285D01*
X139263476Y-114276285D01*
X139358714Y-114323904D01*
X139406333Y-114371523D01*
X139453952Y-114466761D01*
X139453952Y-114657238D01*
X139501571Y-114752476D01*
X139549190Y-114800095D01*
X139644428Y-114847714D01*
X139834904Y-114847714D01*
X139930142Y-114800095D01*
X139977761Y-114752476D01*
X140025380Y-114657238D01*
X140025380Y-114466761D01*
X139977761Y-114371523D01*
X139930142Y-114323904D01*
X139834904Y-114276285D01*
X139644428Y-114276285D01*
X139549190Y-114323904D01*
X139501571Y-114371523D01*
X139453952Y-114466761D01*
X156551333Y-109672380D02*
X156075142Y-109672380D01*
X156075142Y-108672380D01*
X157408476Y-109672380D02*
X156837047Y-109672380D01*
X157122761Y-109672380D02*
X157122761Y-108672380D01*
X157027523Y-108815238D01*
X156932285Y-108910476D01*
X156837047Y-108958095D01*
X156551333Y-118086142D02*
X156503714Y-118133761D01*
X156360857Y-118181380D01*
X156265619Y-118181380D01*
X156122761Y-118133761D01*
X156027523Y-118038523D01*
X155979904Y-117943285D01*
X155932285Y-117752809D01*
X155932285Y-117609952D01*
X155979904Y-117419476D01*
X156027523Y-117324238D01*
X156122761Y-117229000D01*
X156265619Y-117181380D01*
X156360857Y-117181380D01*
X156503714Y-117229000D01*
X156551333Y-117276619D01*
X157027523Y-118181380D02*
X157218000Y-118181380D01*
X157313238Y-118133761D01*
X157360857Y-118086142D01*
X157456095Y-117943285D01*
X157503714Y-117752809D01*
X157503714Y-117371857D01*
X157456095Y-117276619D01*
X157408476Y-117229000D01*
X157313238Y-117181380D01*
X157122761Y-117181380D01*
X157027523Y-117229000D01*
X156979904Y-117276619D01*
X156932285Y-117371857D01*
X156932285Y-117609952D01*
X156979904Y-117705190D01*
X157027523Y-117752809D01*
X157122761Y-117800428D01*
X157313238Y-117800428D01*
X157408476Y-117752809D01*
X157456095Y-117705190D01*
X157503714Y-117609952D01*
X134794666Y-86828380D02*
X134794666Y-87542666D01*
X134747047Y-87685523D01*
X134651809Y-87780761D01*
X134508952Y-87828380D01*
X134413714Y-87828380D01*
X135794666Y-87828380D02*
X135223238Y-87828380D01*
X135508952Y-87828380D02*
X135508952Y-86828380D01*
X135413714Y-86971238D01*
X135318476Y-87066476D01*
X135223238Y-87114095D01*
X143343333Y-90400142D02*
X143295714Y-90447761D01*
X143152857Y-90495380D01*
X143057619Y-90495380D01*
X142914761Y-90447761D01*
X142819523Y-90352523D01*
X142771904Y-90257285D01*
X142724285Y-90066809D01*
X142724285Y-89923952D01*
X142771904Y-89733476D01*
X142819523Y-89638238D01*
X142914761Y-89543000D01*
X143057619Y-89495380D01*
X143152857Y-89495380D01*
X143295714Y-89543000D01*
X143343333Y-89590619D01*
X143676666Y-89495380D02*
X144343333Y-89495380D01*
X143914761Y-90495380D01*
X170927733Y-94540342D02*
X170880114Y-94587961D01*
X170737257Y-94635580D01*
X170642019Y-94635580D01*
X170499161Y-94587961D01*
X170403923Y-94492723D01*
X170356304Y-94397485D01*
X170308685Y-94207009D01*
X170308685Y-94064152D01*
X170356304Y-93873676D01*
X170403923Y-93778438D01*
X170499161Y-93683200D01*
X170642019Y-93635580D01*
X170737257Y-93635580D01*
X170880114Y-93683200D01*
X170927733Y-93730819D01*
X171784876Y-93635580D02*
X171594400Y-93635580D01*
X171499161Y-93683200D01*
X171451542Y-93730819D01*
X171356304Y-93873676D01*
X171308685Y-94064152D01*
X171308685Y-94445104D01*
X171356304Y-94540342D01*
X171403923Y-94587961D01*
X171499161Y-94635580D01*
X171689638Y-94635580D01*
X171784876Y-94587961D01*
X171832495Y-94540342D01*
X171880114Y-94445104D01*
X171880114Y-94207009D01*
X171832495Y-94111771D01*
X171784876Y-94064152D01*
X171689638Y-94016533D01*
X171499161Y-94016533D01*
X171403923Y-94064152D01*
X171356304Y-94111771D01*
X171308685Y-94207009D01*
X173061333Y-94540342D02*
X173013714Y-94587961D01*
X172870857Y-94635580D01*
X172775619Y-94635580D01*
X172632761Y-94587961D01*
X172537523Y-94492723D01*
X172489904Y-94397485D01*
X172442285Y-94207009D01*
X172442285Y-94064152D01*
X172489904Y-93873676D01*
X172537523Y-93778438D01*
X172632761Y-93683200D01*
X172775619Y-93635580D01*
X172870857Y-93635580D01*
X173013714Y-93683200D01*
X173061333Y-93730819D01*
X173966095Y-93635580D02*
X173489904Y-93635580D01*
X173442285Y-94111771D01*
X173489904Y-94064152D01*
X173585142Y-94016533D01*
X173823238Y-94016533D01*
X173918476Y-94064152D01*
X173966095Y-94111771D01*
X174013714Y-94207009D01*
X174013714Y-94445104D01*
X173966095Y-94540342D01*
X173918476Y-94587961D01*
X173823238Y-94635580D01*
X173585142Y-94635580D01*
X173489904Y-94587961D01*
X173442285Y-94540342D01*
X168413133Y-94610180D02*
X168079800Y-94133990D01*
X167841704Y-94610180D02*
X167841704Y-93610180D01*
X168222657Y-93610180D01*
X168317895Y-93657800D01*
X168365514Y-93705419D01*
X168413133Y-93800657D01*
X168413133Y-93943514D01*
X168365514Y-94038752D01*
X168317895Y-94086371D01*
X168222657Y-94133990D01*
X167841704Y-94133990D01*
X169317895Y-93610180D02*
X168841704Y-93610180D01*
X168794085Y-94086371D01*
X168841704Y-94038752D01*
X168936942Y-93991133D01*
X169175038Y-93991133D01*
X169270276Y-94038752D01*
X169317895Y-94086371D01*
X169365514Y-94181609D01*
X169365514Y-94419704D01*
X169317895Y-94514942D01*
X169270276Y-94562561D01*
X169175038Y-94610180D01*
X168936942Y-94610180D01*
X168841704Y-94562561D01*
X168794085Y-94514942D01*
X134415304Y-110561380D02*
X134415304Y-109561380D01*
X134653400Y-109561380D01*
X134796257Y-109609000D01*
X134891495Y-109704238D01*
X134939114Y-109799476D01*
X134986733Y-109989952D01*
X134986733Y-110132809D01*
X134939114Y-110323285D01*
X134891495Y-110418523D01*
X134796257Y-110513761D01*
X134653400Y-110561380D01*
X134415304Y-110561380D01*
X135367685Y-109656619D02*
X135415304Y-109609000D01*
X135510542Y-109561380D01*
X135748638Y-109561380D01*
X135843876Y-109609000D01*
X135891495Y-109656619D01*
X135939114Y-109751857D01*
X135939114Y-109847095D01*
X135891495Y-109989952D01*
X135320066Y-110561380D01*
X135939114Y-110561380D01*
X165060380Y-113290904D02*
X165869904Y-113290904D01*
X165965142Y-113243285D01*
X166012761Y-113195666D01*
X166060380Y-113100428D01*
X166060380Y-112909952D01*
X166012761Y-112814714D01*
X165965142Y-112767095D01*
X165869904Y-112719476D01*
X165060380Y-112719476D01*
X166060380Y-111719476D02*
X166060380Y-112290904D01*
X166060380Y-112005190D02*
X165060380Y-112005190D01*
X165203238Y-112100428D01*
X165298476Y-112195666D01*
X165346095Y-112290904D01*
X156297333Y-94362542D02*
X156249714Y-94410161D01*
X156106857Y-94457780D01*
X156011619Y-94457780D01*
X155868761Y-94410161D01*
X155773523Y-94314923D01*
X155725904Y-94219685D01*
X155678285Y-94029209D01*
X155678285Y-93886352D01*
X155725904Y-93695876D01*
X155773523Y-93600638D01*
X155868761Y-93505400D01*
X156011619Y-93457780D01*
X156106857Y-93457780D01*
X156249714Y-93505400D01*
X156297333Y-93553019D01*
X157249714Y-94457780D02*
X156678285Y-94457780D01*
X156964000Y-94457780D02*
X156964000Y-93457780D01*
X156868761Y-93600638D01*
X156773523Y-93695876D01*
X156678285Y-93743495D01*
X140930333Y-90495380D02*
X140597000Y-90019190D01*
X140358904Y-90495380D02*
X140358904Y-89495380D01*
X140739857Y-89495380D01*
X140835095Y-89543000D01*
X140882714Y-89590619D01*
X140930333Y-89685857D01*
X140930333Y-89828714D01*
X140882714Y-89923952D01*
X140835095Y-89971571D01*
X140739857Y-90019190D01*
X140358904Y-90019190D01*
X141311285Y-89590619D02*
X141358904Y-89543000D01*
X141454142Y-89495380D01*
X141692238Y-89495380D01*
X141787476Y-89543000D01*
X141835095Y-89590619D01*
X141882714Y-89685857D01*
X141882714Y-89781095D01*
X141835095Y-89923952D01*
X141263666Y-90495380D01*
X141882714Y-90495380D01*
X150836333Y-87625180D02*
X150503000Y-87148990D01*
X150264904Y-87625180D02*
X150264904Y-86625180D01*
X150645857Y-86625180D01*
X150741095Y-86672800D01*
X150788714Y-86720419D01*
X150836333Y-86815657D01*
X150836333Y-86958514D01*
X150788714Y-87053752D01*
X150741095Y-87101371D01*
X150645857Y-87148990D01*
X150264904Y-87148990D01*
X151169666Y-86625180D02*
X151788714Y-86625180D01*
X151455380Y-87006133D01*
X151598238Y-87006133D01*
X151693476Y-87053752D01*
X151741095Y-87101371D01*
X151788714Y-87196609D01*
X151788714Y-87434704D01*
X151741095Y-87529942D01*
X151693476Y-87577561D01*
X151598238Y-87625180D01*
X151312523Y-87625180D01*
X151217285Y-87577561D01*
X151169666Y-87529942D01*
X148321733Y-87650580D02*
X147988400Y-87174390D01*
X147750304Y-87650580D02*
X147750304Y-86650580D01*
X148131257Y-86650580D01*
X148226495Y-86698200D01*
X148274114Y-86745819D01*
X148321733Y-86841057D01*
X148321733Y-86983914D01*
X148274114Y-87079152D01*
X148226495Y-87126771D01*
X148131257Y-87174390D01*
X147750304Y-87174390D01*
X149178876Y-86983914D02*
X149178876Y-87650580D01*
X148940780Y-86602961D02*
X148702685Y-87317247D01*
X149321733Y-87317247D01*
X148989095Y-107605380D02*
X148989095Y-108414904D01*
X149036714Y-108510142D01*
X149084333Y-108557761D01*
X149179571Y-108605380D01*
X149370047Y-108605380D01*
X149465285Y-108557761D01*
X149512904Y-108510142D01*
X149560523Y-108414904D01*
X149560523Y-107605380D01*
X150465285Y-107938714D02*
X150465285Y-108605380D01*
X150227190Y-107557761D02*
X149989095Y-108272047D01*
X150608142Y-108272047D01*
M02*
